<svg width="16" height="22" viewBox="0 0 16 22" fill="none" xmlns="http://www.w3.org/2000/svg">
<path d="M7.98449 0.010777C7.79245 0.0148549 7.60929 0.0924521 7.47277 0.227574L6.2423 1.44437L4.56848 1.00492C4.37724 0.954738 4.17393 0.982091 4.00275 1.08103C3.83158 1.17997 3.70639 1.34248 3.65441 1.53324L3.19934 3.20218L1.53039 3.65726C1.34003 3.70946 1.17792 3.83458 1.0792 4.00551C0.980488 4.17643 0.953124 4.37938 1.00305 4.57035L1.44152 6.24515L0.224727 7.47562C0.0859103 7.61603 0.00805664 7.80552 0.00805664 8.00296C0.00805664 8.20041 0.0859103 8.3899 0.224727 8.53031L1.44152 9.76078L1.00207 11.4336C0.951891 11.6249 0.979244 11.8282 1.07818 11.9993C1.17712 12.1705 1.33964 12.2957 1.53039 12.3477L3.19934 12.8028L3.50598 13.9258C3.50198 13.9576 3.50003 13.9895 3.50012 14.0215V21.25C3.50015 21.3858 3.53701 21.519 3.60677 21.6354C3.67654 21.7518 3.77659 21.8471 3.89627 21.9112C4.01594 21.9752 4.15076 22.0056 4.28634 21.9991C4.42192 21.9925 4.55318 21.9493 4.66613 21.8741L7.86145 19.7442C7.94743 19.6869 8.0528 19.6869 8.13879 19.7442L11.3341 21.8741C11.4471 21.9493 11.5783 21.9925 11.7139 21.9991C11.8495 22.0056 11.9843 21.9752 12.104 21.9112C12.2236 21.8471 12.3237 21.7518 12.3935 21.6354C12.4632 21.519 12.5001 21.3858 12.5001 21.25V14.0215C12.5002 13.9895 12.4983 13.9576 12.4943 13.9258L12.8009 12.8028L14.4689 12.3477C14.6594 12.2957 14.8218 12.1707 14.9207 11.9997C15.0196 11.8288 15.0471 11.6257 14.9972 11.4346L14.5587 9.76078L15.7755 8.53031C15.9143 8.3899 15.9922 8.20041 15.9922 8.00296C15.9922 7.80552 15.9143 7.61603 15.7755 7.47562L14.5587 6.24515L14.9982 4.57132C15.0483 4.38009 15.021 4.17677 14.9221 4.0056C14.8231 3.83443 14.6606 3.70924 14.4698 3.65726L12.8009 3.20218L12.3458 1.53324C12.2938 1.34248 12.1687 1.17997 11.9975 1.08103C11.8263 0.982091 11.623 0.954738 11.4318 1.00492L9.75793 1.44437L8.52746 0.227574C8.45608 0.156928 8.37124 0.101336 8.27797 0.0640952C8.1847 0.0268545 8.0849 0.00872329 7.98449 0.010777ZM8.00012 1.81546L9.00695 2.81156C9.09958 2.90321 9.21448 2.96915 9.34034 3.00288C9.4662 3.03662 9.59868 3.03698 9.72473 3.00394L11.0939 2.64457L11.4669 4.01078C11.5014 4.13655 11.5681 4.25117 11.6604 4.3433C11.7527 4.43544 11.8674 4.50191 11.9933 4.53617L13.3585 4.90921L12.9991 6.27738C12.9661 6.40342 12.9665 6.5359 13.0002 6.66176C13.0339 6.78762 13.0999 6.90253 13.1915 6.99515L14.1876 8.00296L13.1915 9.0098C13.0999 9.10242 13.0339 9.21733 13.0002 9.34319C12.9665 9.46905 12.9661 9.60153 12.9991 9.72757L13.3585 11.0967L11.9923 11.4688C11.8663 11.5031 11.7515 11.5697 11.6592 11.6621C11.5669 11.7544 11.5003 11.8692 11.4659 11.9952L11.0939 13.3604L9.72473 13.002C9.59876 12.9688 9.46634 12.969 9.34048 13.0026C9.21462 13.0362 9.09968 13.1019 9.00695 13.1934L8.00012 14.1895L6.99328 13.1934C6.90056 13.1019 6.78561 13.0362 6.65975 13.0026C6.5339 12.969 6.40147 12.9688 6.27551 13.002L4.90637 13.3604L4.53332 11.9952C4.49898 11.8692 4.43236 11.7544 4.34004 11.6621C4.24772 11.5697 4.13291 11.5031 4.00695 11.4688L2.64172 11.0967L3.00109 9.72757C3.03414 9.60153 3.03377 9.46905 3.00004 9.34319C2.9663 9.21733 2.90036 9.10242 2.80871 9.0098L1.81262 8.00296L2.80871 6.99515C2.90036 6.90253 2.9663 6.78762 3.00004 6.66176C3.03377 6.5359 3.03414 6.40342 3.00109 6.27738L2.64172 4.90824L4.00793 4.53617C4.13389 4.50183 4.2487 4.4352 4.34102 4.34289C4.43333 4.25057 4.49996 4.13576 4.5343 4.0098L4.90637 2.64457L6.27551 3.00394C6.40155 3.03698 6.53403 3.03662 6.65989 3.00288C6.78575 2.96915 6.90066 2.90321 6.99328 2.81156L8.00012 1.81546ZM6.2423 14.5606L7.47277 15.7774C7.61319 15.9162 7.80267 15.994 8.00012 15.994C8.19757 15.994 8.38705 15.9162 8.52746 15.7774L9.75793 14.5606L11.0001 14.8868V19.8487L8.97082 18.4961C8.38481 18.1054 7.61543 18.1054 7.02941 18.4961L5.00012 19.8487V14.8868L6.2423 14.5606Z" fill="#B073E0"/>
</svg>
