<svg width="58" height="63" viewBox="0 0 58 63" fill="none" xmlns="http://www.w3.org/2000/svg">
<g filter="url(#filter0_d_4678_1221)">
<path d="M25.1599 12.097C27.5361 10.7251 30.4637 10.7251 32.8399 12.097L43.4504 18.223C45.8266 19.5949 47.2904 22.1303 47.2904 24.8741V37.126C47.2904 39.8698 45.8266 42.4051 43.4504 43.777L32.8399 49.903C30.4637 51.2749 27.5361 51.2749 25.1599 49.903L14.5495 43.777C12.1733 42.4051 10.7095 39.8698 10.7095 37.126V24.8741C10.7095 22.1303 12.1733 19.5949 14.5495 18.223L25.1599 12.097Z" fill="url(#paint0_linear_4678_1221)"/>
</g>
<path fill-rule="evenodd" clip-rule="evenodd" d="M42.4904 19.8858L31.8799 13.7598C30.0978 12.7309 27.9021 12.7309 26.1199 13.7598L15.5095 19.8858C13.7273 20.9147 12.6295 22.8162 12.6295 24.8741V37.126C12.6295 39.1838 13.7273 41.0853 15.5095 42.1143L26.1199 48.2402C27.9021 49.2691 30.0978 49.2691 31.8799 48.2402L42.4904 42.1143C44.2725 41.0853 45.3704 39.1838 45.3704 37.126V24.8741C45.3704 22.8162 44.2725 20.9147 42.4904 19.8858ZM32.8399 12.097C30.4637 10.7251 27.5361 10.7251 25.1599 12.097L14.5495 18.223C12.1733 19.5949 10.7095 22.1303 10.7095 24.8741V37.126C10.7095 39.8698 12.1733 42.4051 14.5495 43.777L25.1599 49.903C27.5361 51.2749 30.4637 51.2749 32.8399 49.903L43.4504 43.777C45.8266 42.4051 47.2904 39.8698 47.2904 37.126V24.8741C47.2904 22.1303 45.8266 19.5949 43.4504 18.223L32.8399 12.097Z" fill="url(#paint1_linear_4678_1221)" fill-opacity="0.04"/>
<g filter="url(#filter1_d_4678_1221)">
<path fill-rule="evenodd" clip-rule="evenodd" d="M44.505 19.2771L31.4004 11.7112C29.9153 10.8538 28.0856 10.8538 26.6004 11.7112L13.4958 19.2771C12.0107 20.1346 11.0958 21.7192 11.0958 23.4341V38.566C11.0958 40.2808 12.0107 41.8654 13.4958 42.7229L26.6004 50.2888C28.0856 51.1463 29.9153 51.1463 31.4004 50.2888L44.505 42.7229C45.9902 41.8654 46.905 40.2808 46.905 38.566V23.4341C46.905 21.7192 45.9902 20.1346 44.505 19.2771ZM32.8404 9.21704C30.4642 7.84514 27.5366 7.84514 25.1604 9.21704L12.0558 16.783C9.67962 18.1549 8.21582 20.6903 8.21582 23.4341V38.566C8.21582 41.3098 9.67962 43.8451 12.0558 45.217L25.1604 52.783C27.5366 54.1549 30.4642 54.1549 32.8404 52.783L45.945 45.217C48.3212 43.8451 49.785 41.3098 49.785 38.566V23.4341C49.785 20.6903 48.3212 18.1549 45.945 16.783L32.8404 9.21704Z" fill="url(#paint2_linear_4678_1221)"/>
</g>
<mask id="mask0_4678_1221" style="mask-type:alpha" maskUnits="userSpaceOnUse" x="10" y="11" width="38" height="40">
<path d="M24.9999 12.1894C27.4751 10.7603 30.5247 10.7603 32.9999 12.1894L43.2903 18.1306C45.7655 19.5597 47.2903 22.2007 47.2903 25.0588V36.9412C47.2903 39.7993 45.7655 42.4403 43.2903 43.8694L32.9999 49.8106C30.5247 51.2397 27.4751 51.2397 24.9999 49.8106L14.7094 43.8694C12.2342 42.4403 10.7094 39.7993 10.7094 36.9412V25.0588C10.7094 22.2007 12.2342 19.5597 14.7094 18.1306L24.9999 12.1894Z" fill="white"/>
</mask>
<g mask="url(#mask0_4678_1221)">
<path d="M17.0968 25.3835L18.589 25.7509L17.811 24.4257L18.6218 23.119L17.1218 23.4497L16.1314 22.2797L15.9794 23.805L14.5564 24.3836L15.9654 24.9998L16.0764 26.5325L17.0968 25.3835Z" fill="#1A2233" fill-opacity="0.3"/>
<path d="M15.6076 32.496L17.0997 32.8635L16.3218 31.5382L17.1326 30.2315L15.6325 30.5622L14.6421 29.3922L14.4901 30.9176L13.0671 31.4962L14.4761 32.1124L14.5872 33.6451L15.6076 32.496Z" fill="#1A2233" fill-opacity="0.3"/>
<path d="M17.0968 39.6087L18.589 39.9762L17.811 38.6509L18.6218 37.3442L17.1218 37.6749L16.1314 36.5049L15.9794 38.0303L14.5564 38.6088L15.9654 39.225L16.0764 40.7577L17.0968 39.6087Z" fill="#1A2233" fill-opacity="0.3"/>
<path d="M35.0842 19.6806L34.7167 21.1727L36.042 20.3948L37.3487 21.2056L37.018 19.7055L38.188 18.7151L36.6626 18.5631L36.084 17.1401L35.4678 18.5491L33.9352 18.6602L35.0842 19.6806Z" fill="#1A2233" fill-opacity="0.3"/>
<path d="M27.9719 17.1982L27.6044 18.6903L28.9296 17.9124L30.2364 18.7232L29.9057 17.2231L31.0757 16.2327L29.5503 16.0807L28.9717 14.6577L28.3555 16.0667L26.8228 16.1778L27.9719 17.1982Z" fill="#1A2233" fill-opacity="0.3"/>
<path d="M20.8596 19.6806L20.4921 21.1727L21.8173 20.3948L23.1241 21.2056L22.7934 19.7055L23.9634 18.7151L22.438 18.5631L21.8594 17.1401L21.2432 18.5491L19.7105 18.6602L20.8596 19.6806Z" fill="#1A2233" fill-opacity="0.3"/>
<path d="M35.0842 43.2794L34.7167 41.7873L36.042 42.5652L37.3487 41.7544L37.018 43.2544L38.188 44.2449L36.6626 44.3969L36.084 45.8198L35.4678 44.4109L33.9352 44.2998L35.0842 43.2794Z" fill="#1A2233" fill-opacity="0.3"/>
<path d="M27.9719 45.7618L27.6044 44.2697L28.9296 45.0476L30.2364 44.2368L29.9057 45.7369L31.0757 46.7273L29.5503 46.8793L28.9717 48.3022L28.3555 46.8933L26.8228 46.7822L27.9719 45.7618Z" fill="#1A2233" fill-opacity="0.3"/>
<path d="M20.8596 43.2794L20.4921 41.7873L21.8173 42.5652L23.1241 41.7544L22.7934 43.2544L23.9634 44.2449L22.438 44.3969L21.8594 45.8198L21.2432 44.4109L19.7105 44.2998L20.8596 43.2794Z" fill="#1A2233" fill-opacity="0.3"/>
<path d="M41.2518 25.3835L39.7597 25.7509L40.5376 24.4257L39.7268 23.119L41.2269 23.4497L42.2173 22.2797L42.3693 23.805L43.7922 24.3836L42.3833 24.9998L42.2722 26.5325L41.2518 25.3835Z" fill="#1A2233" fill-opacity="0.3"/>
<path d="M42.7415 32.496L41.2494 32.8635L42.0273 31.5382L41.2165 30.2315L42.7166 30.5622L43.707 29.3922L43.859 30.9176L45.282 31.4962L43.873 32.1124L43.7619 33.645L42.7415 32.496Z" fill="#1A2233" fill-opacity="0.3"/>
<path d="M41.2518 39.6087L39.7597 39.9762L40.5376 38.6509L39.7268 37.3442L41.2269 37.6749L42.2173 36.5049L42.3693 38.0303L43.7922 38.6088L42.3833 39.225L42.2722 40.7577L41.2518 39.6087Z" fill="#1A2233" fill-opacity="0.3"/>
<path d="M28.9999 36.6149L33.7976 39.4941C34.5546 39.9482 35.4883 39.2733 35.2874 38.4179L34.0139 32.9907L38.2535 29.3386C38.9217 28.7635 38.5644 27.6719 37.6839 27.598L32.1031 27.1275L29.9201 22.0056C29.5754 21.1982 28.4244 21.1982 28.0798 22.0056L25.8967 27.1275L20.3159 27.598C19.4354 27.6719 19.0781 28.7635 19.7463 29.3386L23.9859 32.9907L22.7124 38.4179C22.5115 39.2733 23.4452 39.9482 24.2022 39.4941L28.9999 36.6149Z" fill="#1A2233" fill-opacity="0.5"/>
<path d="M28.9275 32.2288V29.442H28.8103L28.3805 30.7586H27.5601V30.6928L28.107 29.08H29.787V32.2288H30.9201V32.92H27.6382V32.2288H28.9275Z" fill="white"/>
</g>
<defs>
<filter id="filter0_d_4678_1221" x="2.70947" y="7.06812" width="52.5811" height="55.8638" filterUnits="userSpaceOnUse" color-interpolation-filters="sRGB">
<feFlood flood-opacity="0" result="BackgroundImageFix"/>
<feColorMatrix in="SourceAlpha" type="matrix" values="0 0 0 0 0 0 0 0 0 0 0 0 0 0 0 0 0 0 127 0" result="hardAlpha"/>
<feOffset dy="4"/>
<feGaussianBlur stdDeviation="4"/>
<feComposite in2="hardAlpha" operator="out"/>
<feColorMatrix type="matrix" values="0 0 0 0 0 0 0 0 0 0 0 0 0 0 0 0 0 0 0.1 0"/>
<feBlend mode="normal" in2="BackgroundImageFix" result="effect1_dropShadow_4678_1221"/>
<feBlend mode="normal" in="SourceGraphic" in2="effect1_dropShadow_4678_1221" result="shape"/>
</filter>
<filter id="filter1_d_4678_1221" x="0.21582" y="0.18811" width="57.5693" height="61.6238" filterUnits="userSpaceOnUse" color-interpolation-filters="sRGB">
<feFlood flood-opacity="0" result="BackgroundImageFix"/>
<feColorMatrix in="SourceAlpha" type="matrix" values="0 0 0 0 0 0 0 0 0 0 0 0 0 0 0 0 0 0 127 0" result="hardAlpha"/>
<feOffset/>
<feGaussianBlur stdDeviation="4"/>
<feComposite in2="hardAlpha" operator="out"/>
<feColorMatrix type="matrix" values="0 0 0 0 0.368368 0 0 0 0 0.53169 0 0 0 0 0.858333 0 0 0 0.5 0"/>
<feBlend mode="normal" in2="BackgroundImageFix" result="effect1_dropShadow_4678_1221"/>
<feBlend mode="normal" in="SourceGraphic" in2="effect1_dropShadow_4678_1221" result="shape"/>
</filter>
<linearGradient id="paint0_linear_4678_1221" x1="28.9997" y1="10.03" x2="28.9997" y2="51.97" gradientUnits="userSpaceOnUse">
<stop stop-color="#6A7385"/>
<stop offset="1" stop-color="#ABBAD6"/>
</linearGradient>
<linearGradient id="paint1_linear_4678_1221" x1="29.0001" y1="9.88001" x2="29.0001" y2="52.12" gradientUnits="userSpaceOnUse">
<stop/>
<stop offset="1" stop-opacity="0"/>
</linearGradient>
<linearGradient id="paint2_linear_4678_1221" x1="29.0002" y1="7" x2="29.0002" y2="55" gradientUnits="userSpaceOnUse">
<stop stop-color="#ABBAD6"/>
<stop offset="1" stop-color="#6A7385"/>
</linearGradient>
</defs>
</svg>
