<svg width="58" height="63" viewBox="0 0 58 63" fill="none" xmlns="http://www.w3.org/2000/svg">
<g filter="url(#filter0_d_4678_1200)">
<path d="M25.1599 12.097C27.5361 10.7251 30.4637 10.7251 32.8399 12.097L43.4504 18.223C45.8266 19.5949 47.2904 22.1303 47.2904 24.8741V37.126C47.2904 39.8698 45.8266 42.4051 43.4504 43.777L32.8399 49.903C30.4637 51.2749 27.5361 51.2749 25.1599 49.903L14.5495 43.777C12.1733 42.4051 10.7095 39.8698 10.7095 37.126V24.8741C10.7095 22.1303 12.1733 19.5949 14.5495 18.223L25.1599 12.097Z" fill="url(#paint0_linear_4678_1200)"/>
</g>
<path fill-rule="evenodd" clip-rule="evenodd" d="M42.4904 19.8858L31.8799 13.7598C30.0978 12.7309 27.9021 12.7309 26.1199 13.7598L15.5095 19.8858C13.7273 20.9147 12.6295 22.8162 12.6295 24.8741V37.126C12.6295 39.1838 13.7273 41.0853 15.5095 42.1143L26.1199 48.2402C27.9021 49.2691 30.0978 49.2691 31.8799 48.2402L42.4904 42.1143C44.2725 41.0853 45.3704 39.1838 45.3704 37.126V24.8741C45.3704 22.8162 44.2725 20.9147 42.4904 19.8858ZM32.8399 12.097C30.4637 10.7251 27.5361 10.7251 25.1599 12.097L14.5495 18.223C12.1733 19.5949 10.7095 22.1303 10.7095 24.8741V37.126C10.7095 39.8698 12.1733 42.4051 14.5495 43.777L25.1599 49.903C27.5361 51.2749 30.4637 51.2749 32.8399 49.903L43.4504 43.777C45.8266 42.4051 47.2904 39.8698 47.2904 37.126V24.8741C47.2904 22.1303 45.8266 19.5949 43.4504 18.223L32.8399 12.097Z" fill="url(#paint1_linear_4678_1200)" fill-opacity="0.04"/>
<g filter="url(#filter1_d_4678_1200)">
<path fill-rule="evenodd" clip-rule="evenodd" d="M44.505 19.2771L31.4004 11.7112C29.9153 10.8538 28.0856 10.8538 26.6004 11.7112L13.4958 19.2771C12.0107 20.1346 11.0958 21.7192 11.0958 23.4341V38.566C11.0958 40.2808 12.0107 41.8654 13.4958 42.7229L26.6004 50.2888C28.0856 51.1463 29.9153 51.1463 31.4004 50.2888L44.505 42.7229C45.9902 41.8654 46.905 40.2808 46.905 38.566V23.4341C46.905 21.7192 45.9902 20.1346 44.505 19.2771ZM32.8404 9.21704C30.4642 7.84514 27.5366 7.84514 25.1604 9.21704L12.0558 16.783C9.67962 18.1549 8.21582 20.6903 8.21582 23.4341V38.566C8.21582 41.3098 9.67962 43.8451 12.0558 45.217L25.1604 52.783C27.5366 54.1549 30.4642 54.1549 32.8404 52.783L45.945 45.217C48.3212 43.8451 49.785 41.3098 49.785 38.566V23.4341C49.785 20.6903 48.3212 18.1549 45.945 16.783L32.8404 9.21704Z" fill="url(#paint2_linear_4678_1200)"/>
</g>
<mask id="mask0_4678_1200" style="mask-type:alpha" maskUnits="userSpaceOnUse" x="10" y="11" width="38" height="40">
<path d="M24.9999 12.1894C27.4751 10.7603 30.5247 10.7603 32.9999 12.1894L43.2903 18.1306C45.7655 19.5597 47.2903 22.2007 47.2903 25.0588V36.9412C47.2903 39.7993 45.7655 42.4403 43.2903 43.8694L32.9999 49.8106C30.5247 51.2397 27.4751 51.2397 24.9999 49.8106L14.7094 43.8694C12.2342 42.4403 10.7094 39.7993 10.7094 36.9412V25.0588C10.7094 22.2007 12.2342 19.5597 14.7094 18.1306L24.9999 12.1894Z" fill="white"/>
</mask>
<g mask="url(#mask0_4678_1200)">
<path d="M17.4982 25.492L18.9408 25.8473L18.1887 24.5661L18.9725 23.3028L17.5223 23.6225L16.5648 22.4914L16.4178 23.966L15.0422 24.5254L16.4043 25.1211L16.5117 26.6029L17.4982 25.492Z" fill="#1A2233" fill-opacity="0.3"/>
<path d="M16.5382 32.3684L17.9808 32.7236L17.2287 31.4424L18.0126 30.1791L16.5624 30.4988L15.6048 29.3677L15.4579 30.8424L14.0822 31.4017L15.4444 31.9975L15.5517 33.4792L16.5382 32.3684Z" fill="#1A2233" fill-opacity="0.3"/>
<path d="M17.4982 39.2446L18.9408 39.5999L18.1887 38.3186L18.9725 37.0554L17.5223 37.375L16.5648 36.2439L16.4178 37.7186L15.0422 38.278L16.4043 38.8737L16.5117 40.3555L17.4982 39.2446Z" fill="#1A2233" fill-opacity="0.3"/>
<path d="M40.8504 25.492L39.4079 25.8473L40.1599 24.5661L39.3761 23.3028L40.8263 23.6225L41.7838 22.4914L41.9308 23.966L43.3065 24.5254L41.9443 25.1211L41.8369 26.6029L40.8504 25.492Z" fill="#1A2233" fill-opacity="0.3"/>
<path d="M41.8104 32.3684L40.3678 32.7236L41.1199 31.4424L40.336 30.1791L41.7863 30.4988L42.7438 29.3677L42.8907 30.8424L44.2664 31.4017L42.9043 31.9975L42.7969 33.4792L41.8104 32.3684Z" fill="#1A2233" fill-opacity="0.3"/>
<path d="M40.8504 39.2446L39.4079 39.5999L40.1599 38.3186L39.3761 37.0554L40.8263 37.375L41.7838 36.2439L41.9308 37.7186L43.3065 38.278L41.9443 38.8737L41.8369 40.3555L40.8504 39.2446Z" fill="#1A2233" fill-opacity="0.3"/>
<path d="M35.1918 21.88H23.2878C22.4672 21.88 21.7998 22.6215 21.7998 23.5333V35.1067C21.7998 36.0185 22.4672 36.76 23.2878 36.76H35.1918C36.0124 36.76 36.6798 36.0185 36.6798 35.1067V23.5333C36.6798 22.6215 36.0124 21.88 35.1918 21.88ZM27.0078 32.6267V26.0133L32.2158 29.32L27.0078 32.6267Z" fill="#1A2233" fill-opacity="0.5"/>
<path d="M34.7597 39.64C34.7597 42.6886 32.2883 45.16 29.2397 45.16C26.1911 45.16 23.7197 42.6886 23.7197 39.64C23.7197 36.5914 26.1911 34.12 29.2397 34.12C32.2883 34.12 34.7597 36.5914 34.7597 39.64Z" fill="url(#paint3_linear_4678_1200)"/>
<path fill-rule="evenodd" clip-rule="evenodd" d="M29.2397 44.2C31.7581 44.2 33.7997 42.1584 33.7997 39.64C33.7997 37.1216 31.7581 35.08 29.2397 35.08C26.7213 35.08 24.6797 37.1216 24.6797 39.64C24.6797 42.1584 26.7213 44.2 29.2397 44.2ZM29.2397 45.16C32.2883 45.16 34.7597 42.6886 34.7597 39.64C34.7597 36.5914 32.2883 34.12 29.2397 34.12C26.1911 34.12 23.7197 36.5914 23.7197 39.64C23.7197 42.6886 26.1911 45.16 29.2397 45.16Z" fill="url(#paint4_linear_4678_1200)"/>
<path d="M27.6359 39.8484V37.24H30.6141V38.087H28.4759V39.3644H28.5905C28.6499 39.1896 28.7602 39.0394 28.9214 38.9139C29.0868 38.784 29.3074 38.719 29.5832 38.719C29.7911 38.719 29.9778 38.7571 30.1432 38.8333C30.3087 38.9095 30.4487 39.0148 30.5632 39.1492C30.6778 39.2837 30.7647 39.445 30.8241 39.6333C30.8878 39.8215 30.9196 40.0277 30.9196 40.2518V40.2921C30.9196 40.5296 30.8814 40.7537 30.805 40.9644C30.7329 41.175 30.6247 41.361 30.4805 41.5223C30.3405 41.6792 30.1665 41.8047 29.9587 41.8988C29.7508 41.9929 29.5111 42.04 29.2396 42.04C28.9681 42.04 28.7284 42.0019 28.5205 41.9257C28.3126 41.845 28.1365 41.7352 27.9923 41.5963C27.8523 41.4529 27.7441 41.2848 27.6678 41.0921C27.5956 40.8949 27.5596 40.682 27.5596 40.4534V40.2921H28.3996V40.3728C28.3996 40.6103 28.4674 40.8075 28.6032 40.9644C28.7432 41.1167 28.9468 41.1929 29.2141 41.1929C29.4814 41.1929 29.6914 41.1167 29.8441 40.9644C30.0011 40.812 30.0796 40.6013 30.0796 40.3324C30.0796 40.077 30.0223 39.8865 29.9078 39.761C29.7932 39.631 29.6426 39.566 29.4559 39.566C29.3329 39.566 29.2332 39.5952 29.1568 39.6534C29.0805 39.7072 29.0317 39.7722 29.0105 39.8484H27.6359Z" fill="white"/>
</g>
<defs>
<filter id="filter0_d_4678_1200" x="2.70947" y="7.06812" width="52.5811" height="55.8638" filterUnits="userSpaceOnUse" color-interpolation-filters="sRGB">
<feFlood flood-opacity="0" result="BackgroundImageFix"/>
<feColorMatrix in="SourceAlpha" type="matrix" values="0 0 0 0 0 0 0 0 0 0 0 0 0 0 0 0 0 0 127 0" result="hardAlpha"/>
<feOffset dy="4"/>
<feGaussianBlur stdDeviation="4"/>
<feComposite in2="hardAlpha" operator="out"/>
<feColorMatrix type="matrix" values="0 0 0 0 0 0 0 0 0 0 0 0 0 0 0 0 0 0 0.1 0"/>
<feBlend mode="normal" in2="BackgroundImageFix" result="effect1_dropShadow_4678_1200"/>
<feBlend mode="normal" in="SourceGraphic" in2="effect1_dropShadow_4678_1200" result="shape"/>
</filter>
<filter id="filter1_d_4678_1200" x="0.21582" y="0.18811" width="57.5693" height="61.6238" filterUnits="userSpaceOnUse" color-interpolation-filters="sRGB">
<feFlood flood-opacity="0" result="BackgroundImageFix"/>
<feColorMatrix in="SourceAlpha" type="matrix" values="0 0 0 0 0 0 0 0 0 0 0 0 0 0 0 0 0 0 127 0" result="hardAlpha"/>
<feOffset/>
<feGaussianBlur stdDeviation="4"/>
<feComposite in2="hardAlpha" operator="out"/>
<feColorMatrix type="matrix" values="0 0 0 0 0.368368 0 0 0 0 0.53169 0 0 0 0 0.858333 0 0 0 0.5 0"/>
<feBlend mode="normal" in2="BackgroundImageFix" result="effect1_dropShadow_4678_1200"/>
<feBlend mode="normal" in="SourceGraphic" in2="effect1_dropShadow_4678_1200" result="shape"/>
</filter>
<linearGradient id="paint0_linear_4678_1200" x1="28.9997" y1="10.03" x2="28.9997" y2="51.97" gradientUnits="userSpaceOnUse">
<stop stop-color="#6A7385"/>
<stop offset="1" stop-color="#ABBAD6"/>
</linearGradient>
<linearGradient id="paint1_linear_4678_1200" x1="29.0001" y1="9.88001" x2="29.0001" y2="52.12" gradientUnits="userSpaceOnUse">
<stop/>
<stop offset="1" stop-opacity="0"/>
</linearGradient>
<linearGradient id="paint2_linear_4678_1200" x1="29.0002" y1="7" x2="29.0002" y2="55" gradientUnits="userSpaceOnUse">
<stop stop-color="#ABBAD6"/>
<stop offset="1" stop-color="#6A7385"/>
</linearGradient>
<linearGradient id="paint3_linear_4678_1200" x1="29.2397" y1="33.8325" x2="29.2397" y2="45.4475" gradientUnits="userSpaceOnUse">
<stop stop-color="#6A7385"/>
<stop offset="1" stop-color="#6E778A"/>
</linearGradient>
<linearGradient id="paint4_linear_4678_1200" x1="29.2397" y1="33.8325" x2="29.2397" y2="45.4475" gradientUnits="userSpaceOnUse">
<stop stop-color="#9BA8C2"/>
<stop offset="1" stop-color="#4E5461"/>
</linearGradient>
</defs>
</svg>
