<svg width="58" height="63" viewBox="0 0 58 63" fill="none" xmlns="http://www.w3.org/2000/svg">
<g filter="url(#filter0_d_4678_1179)">
<path d="M25.1597 12.097C27.5359 10.7251 30.4635 10.7251 32.8397 12.097L43.4501 18.223C45.8263 19.5949 47.2901 22.1303 47.2901 24.8741V37.126C47.2901 39.8698 45.8263 42.4051 43.4501 43.777L32.8397 49.903C30.4635 51.2749 27.5359 51.2749 25.1597 49.903L14.5492 43.777C12.173 42.4051 10.7092 39.8698 10.7092 37.126V24.8741C10.7092 22.1303 12.173 19.5949 14.5492 18.223L25.1597 12.097Z" fill="url(#paint0_linear_4678_1179)"/>
</g>
<path fill-rule="evenodd" clip-rule="evenodd" d="M42.4901 19.8858L31.8797 13.7598C30.0975 12.7309 27.9018 12.7309 26.1197 13.7598L15.5092 19.8858C13.7271 20.9147 12.6292 22.8162 12.6292 24.8741V37.126C12.6292 39.1838 13.7271 41.0853 15.5092 42.1143L26.1197 48.2402C27.9018 49.2691 30.0975 49.2691 31.8797 48.2402L42.4901 42.1143C44.2723 41.0853 45.3701 39.1838 45.3701 37.126V24.8741C45.3701 22.8162 44.2723 20.9147 42.4901 19.8858ZM32.8397 12.097C30.4635 10.7251 27.5359 10.7251 25.1597 12.097L14.5492 18.223C12.173 19.5949 10.7092 22.1303 10.7092 24.8741V37.126C10.7092 39.8698 12.173 42.4051 14.5492 43.777L25.1597 49.903C27.5359 51.2749 30.4635 51.2749 32.8397 49.903L43.4501 43.777C45.8263 42.4051 47.2901 39.8698 47.2901 37.126V24.8741C47.2901 22.1303 45.8263 19.5949 43.4501 18.223L32.8397 12.097Z" fill="url(#paint1_linear_4678_1179)" fill-opacity="0.04"/>
<g filter="url(#filter1_d_4678_1179)">
<path fill-rule="evenodd" clip-rule="evenodd" d="M44.5048 19.2771L31.4002 11.7112C29.9151 10.8538 28.0853 10.8538 26.6002 11.7112L13.4956 19.2771C12.0105 20.1346 11.0956 21.7192 11.0956 23.4341V38.566C11.0956 40.2808 12.0105 41.8654 13.4956 42.7229L26.6002 50.2888C28.0853 51.1463 29.9151 51.1463 31.4002 50.2888L44.5048 42.7229C45.9899 41.8654 46.9048 40.2808 46.9048 38.566V23.4341C46.9048 21.7192 45.9899 20.1346 44.5048 19.2771ZM32.8402 9.21704C30.464 7.84514 27.5364 7.84514 25.1602 9.21704L12.0556 16.783C9.67938 18.1549 8.21558 20.6903 8.21558 23.4341V38.566C8.21558 41.3098 9.67938 43.8451 12.0556 45.217L25.1602 52.783C27.5364 54.1549 30.464 54.1549 32.8402 52.783L45.9448 45.217C48.321 43.8451 49.7848 41.3098 49.7848 38.566V23.4341C49.7848 20.6903 48.321 18.1549 45.9448 16.783L32.8402 9.21704Z" fill="url(#paint2_linear_4678_1179)"/>
</g>
<mask id="mask0_4678_1179" style="mask-type:alpha" maskUnits="userSpaceOnUse" x="10" y="11" width="38" height="40">
<path d="M24.9999 12.1894C27.4751 10.7603 30.5247 10.7603 32.9999 12.1894L43.2903 18.1306C45.7655 19.5597 47.2903 22.2007 47.2903 25.0588V36.9412C47.2903 39.7993 45.7655 42.4403 43.2903 43.8694L32.9999 49.8106C30.5247 51.2397 27.4751 51.2397 24.9999 49.8106L14.7094 43.8694C12.2342 42.4403 10.7094 39.7993 10.7094 36.9412V25.0588C10.7094 22.2007 12.2342 19.5597 14.7094 18.1306L24.9999 12.1894Z" fill="white"/>
</mask>
<g mask="url(#mask0_4678_1179)">
<path d="M17.4984 25.492L18.941 25.8473L18.1889 24.5661L18.9728 23.3028L17.5226 23.6225L16.565 22.4914L16.4181 23.966L15.0424 24.5254L16.4046 25.1211L16.5119 26.6029L17.4984 25.492Z" fill="#1A2233" fill-opacity="0.3"/>
<path d="M16.5385 32.3684L17.981 32.7236L17.229 31.4424L18.0128 30.1791L16.5626 30.4988L15.6051 29.3677L15.4581 30.8424L14.0825 31.4017L15.4446 31.9975L15.552 33.4792L16.5385 32.3684Z" fill="#1A2233" fill-opacity="0.3"/>
<path d="M17.4984 39.2446L18.941 39.5999L18.1889 38.3186L18.9728 37.0554L17.5226 37.375L16.565 36.2439L16.4181 37.7186L15.0424 38.278L16.4046 38.8737L16.5119 40.3555L17.4984 39.2446Z" fill="#1A2233" fill-opacity="0.3"/>
<path d="M40.8509 25.492L39.4084 25.8473L40.1604 24.5661L39.3766 23.3028L40.8268 23.6225L41.7843 22.4914L41.9313 23.966L43.307 24.5254L41.9448 25.1211L41.8374 26.6029L40.8509 25.492Z" fill="#1A2233" fill-opacity="0.3"/>
<path d="M41.8109 32.3684L40.3683 32.7236L41.1204 31.4424L40.3365 30.1791L41.7868 30.4988L42.7443 29.3677L42.8912 30.8424L44.2669 31.4017L42.9048 31.9975L42.7974 33.4792L41.8109 32.3684Z" fill="#1A2233" fill-opacity="0.3"/>
<path d="M40.8509 39.2446L39.4084 39.5999L40.1604 38.3186L39.3766 37.0554L40.8268 37.375L41.7843 36.2439L41.9313 37.7186L43.307 38.278L41.9448 38.8737L41.8374 40.3555L40.8509 39.2446Z" fill="#1A2233" fill-opacity="0.3"/>
<path d="M35.0265 22.648H31.5677C31.2263 21.6432 30.3178 20.92 29.2398 20.92C28.1618 20.92 27.2533 21.6432 26.9119 22.648H23.4531C22.5397 22.648 21.7998 23.4213 21.7998 24.376V36.472C21.7998 37.4268 22.5397 38.2 23.4531 38.2H35.0265C35.9399 38.2 36.6798 37.4268 36.6798 36.472V24.376C36.6798 23.4213 35.9399 22.648 35.0265 22.648ZM26.5176 28.9492L28.4131 30.9303L31.962 27.2212L33.1309 28.4429L28.4131 33.3737L25.3487 30.1709L26.5176 28.9492ZM29.2398 22.648C29.6961 22.648 30.0665 23.0351 30.0665 23.512C30.0665 23.989 29.6961 24.376 29.2398 24.376C28.7835 24.376 28.4131 23.989 28.4131 23.512C28.4131 23.0351 28.7835 22.648 29.2398 22.648Z" fill="#1A2233" fill-opacity="0.5"/>
<path d="M34.7597 39.64C34.7597 42.6886 32.2883 45.16 29.2397 45.16C26.1911 45.16 23.7197 42.6886 23.7197 39.64C23.7197 36.5914 26.1911 34.12 29.2397 34.12C32.2883 34.12 34.7597 36.5914 34.7597 39.64Z" fill="url(#paint3_linear_4678_1179)"/>
<path fill-rule="evenodd" clip-rule="evenodd" d="M29.2397 44.2C31.7581 44.2 33.7997 42.1584 33.7997 39.64C33.7997 37.1216 31.7581 35.08 29.2397 35.08C26.7213 35.08 24.6797 37.1216 24.6797 39.64C24.6797 42.1584 26.7213 44.2 29.2397 44.2ZM29.2397 45.16C32.2883 45.16 34.7597 42.6886 34.7597 39.64C34.7597 36.5914 32.2883 34.12 29.2397 34.12C26.1911 34.12 23.7197 36.5914 23.7197 39.64C23.7197 42.6886 26.1911 45.16 29.2397 45.16Z" fill="url(#paint4_linear_4678_1179)"/>
<path d="M28.927 40.8688V38.082H28.8098L28.38 39.3986H27.5596V39.3328L28.1065 37.72H29.7865V40.8688H30.9196V41.56H27.6377V40.8688H28.927Z" fill="white"/>
</g>
<defs>
<filter id="filter0_d_4678_1179" x="2.70923" y="7.06812" width="52.5808" height="55.8638" filterUnits="userSpaceOnUse" color-interpolation-filters="sRGB">
<feFlood flood-opacity="0" result="BackgroundImageFix"/>
<feColorMatrix in="SourceAlpha" type="matrix" values="0 0 0 0 0 0 0 0 0 0 0 0 0 0 0 0 0 0 127 0" result="hardAlpha"/>
<feOffset dy="4"/>
<feGaussianBlur stdDeviation="4"/>
<feComposite in2="hardAlpha" operator="out"/>
<feColorMatrix type="matrix" values="0 0 0 0 0 0 0 0 0 0 0 0 0 0 0 0 0 0 0.1 0"/>
<feBlend mode="normal" in2="BackgroundImageFix" result="effect1_dropShadow_4678_1179"/>
<feBlend mode="normal" in="SourceGraphic" in2="effect1_dropShadow_4678_1179" result="shape"/>
</filter>
<filter id="filter1_d_4678_1179" x="0.215576" y="0.18811" width="57.5691" height="61.6238" filterUnits="userSpaceOnUse" color-interpolation-filters="sRGB">
<feFlood flood-opacity="0" result="BackgroundImageFix"/>
<feColorMatrix in="SourceAlpha" type="matrix" values="0 0 0 0 0 0 0 0 0 0 0 0 0 0 0 0 0 0 127 0" result="hardAlpha"/>
<feOffset/>
<feGaussianBlur stdDeviation="4"/>
<feComposite in2="hardAlpha" operator="out"/>
<feColorMatrix type="matrix" values="0 0 0 0 0.368368 0 0 0 0 0.53169 0 0 0 0 0.858333 0 0 0 0.5 0"/>
<feBlend mode="normal" in2="BackgroundImageFix" result="effect1_dropShadow_4678_1179"/>
<feBlend mode="normal" in="SourceGraphic" in2="effect1_dropShadow_4678_1179" result="shape"/>
</filter>
<linearGradient id="paint0_linear_4678_1179" x1="28.9995" y1="10.03" x2="28.9995" y2="51.97" gradientUnits="userSpaceOnUse">
<stop stop-color="#6A7385"/>
<stop offset="1" stop-color="#ABBAD6"/>
</linearGradient>
<linearGradient id="paint1_linear_4678_1179" x1="28.9999" y1="9.88001" x2="28.9999" y2="52.12" gradientUnits="userSpaceOnUse">
<stop/>
<stop offset="1" stop-opacity="0"/>
</linearGradient>
<linearGradient id="paint2_linear_4678_1179" x1="29" y1="7" x2="29" y2="55" gradientUnits="userSpaceOnUse">
<stop stop-color="#ABBAD6"/>
<stop offset="1" stop-color="#6A7385"/>
</linearGradient>
<linearGradient id="paint3_linear_4678_1179" x1="29.2397" y1="33.8325" x2="29.2397" y2="45.4475" gradientUnits="userSpaceOnUse">
<stop stop-color="#6A7385"/>
<stop offset="1" stop-color="#6E778A"/>
</linearGradient>
<linearGradient id="paint4_linear_4678_1179" x1="29.2397" y1="33.8325" x2="29.2397" y2="45.4475" gradientUnits="userSpaceOnUse">
<stop stop-color="#9BA8C2"/>
<stop offset="1" stop-color="#4E5461"/>
</linearGradient>
</defs>
</svg>
