<svg width="191" height="152" viewBox="0 0 191 152" fill="none" xmlns="http://www.w3.org/2000/svg">
<path d="M141.345 154.747C141.189 159.374 141.111 161.687 140.771 164.141C139.909 170.371 139.831 172.91 139.038 178.031C138.735 179.984 139.066 181.989 140.02 183.719C143.564 190.152 140.332 194.32 140.332 194.32C134.106 201.876 116.791 199.858 116.791 199.858C116.791 199.858 107.944 198.821 105.284 194.405C102.624 189.99 106.409 185.583 106.409 185.583C106.912 179.35 104.262 172.391 104.262 172.391C95.7737 169.832 87.4135 172.181 87.4135 172.181C84.6436 178.536 84.3178 184.972 84.3178 184.972C88.0653 189.126 85.6612 193.728 85.6612 193.728C81.7092 201.182 68.4455 200.192 68.4455 200.192C68.4455 200.192 56.4559 200.369 51.5679 195.128C48.2139 191.532 49.4628 186.363 50.5773 183.472C51.1964 181.864 51.4009 180.127 51.1874 178.417C49.6493 166.101 49.3992 155.38 49.6127 146.844C49.9891 131.831 51.8889 118.695 53.686 110.917C55.2119 104.311 56.8633 98.8597 56.8633 98.8597C57.1916 97.777 57.4458 96.977 59.5517 90.3057C61.4882 91.5823 63.19 92.5802 64.5212 93.32C65.7448 94.0002 67.1102 94.7546 69.0019 95.601C70.4642 96.2552 71.7286 96.7351 72.6679 97.0675C72.8985 97.166 73.2366 97.3086 73.6455 97.4748C73.6455 97.4748 76.646 98.6903 79.6741 99.5115C84.4497 100.807 89.7858 101.102 92.1386 101.222C94.2739 101.331 97.1969 101.399 100.693 101.222C107.465 100.719 112.553 99.2231 115.927 97.9636C115.927 97.9636 119.424 96.6585 130.265 91.1203C130.265 91.1203 134.152 102.594 136.294 110.428C136.294 110.429 142.12 131.736 141.345 154.747Z" fill="white"/>
<path d="M70.0463 201.665C69.1974 201.665 68.6108 201.632 68.4031 201.618C67.3261 201.629 55.6486 201.593 50.5251 196.1C46.6195 191.913 48.0477 186.069 49.2461 182.959C49.7756 181.586 49.9573 180.076 49.7723 178.594C48.4558 168.053 47.923 157.359 48.187 146.808C48.6668 127.635 51.4538 114.243 52.2962 110.595C53.8156 104.019 55.4816 98.5007 55.4979 98.4462C55.7879 97.4897 56.0144 96.7704 57.4914 92.0925L58.759 88.0762L60.3346 89.1149C61.9264 90.1642 63.5672 91.1589 65.212 92.0738C66.3249 92.6921 67.709 93.4612 69.5827 94.2995C70.7485 94.8209 71.9461 95.2999 73.142 95.7235L73.2276 95.7569C73.5412 95.8913 73.8614 96.0249 74.1791 96.1537C74.2085 96.1659 77.1397 97.348 80.0456 98.1358C84.7715 99.4172 90.1752 99.6942 92.2103 99.7985C94.9761 99.9403 97.7998 99.9411 100.602 99.7993C105.851 99.4075 110.839 98.3402 115.427 96.6278C115.46 96.6156 119.032 95.2567 129.615 89.8505L131.689 88.7906V90.886C132.256 92.5699 135.691 102.823 137.667 110.052C137.728 110.273 139.158 115.544 140.515 123.725C141.766 131.273 143.172 142.79 142.768 154.794C142.611 159.464 142.532 161.807 142.182 164.335C141.782 167.228 141.557 169.275 141.339 171.255C141.1 173.434 140.873 175.491 140.446 178.248C140.19 179.905 140.481 181.602 141.268 183.03C145.219 190.201 141.613 194.992 141.458 195.193L141.432 195.226C134.788 203.289 117.363 201.359 116.625 201.273C116.528 201.262 114.246 200.988 111.601 200.145C107.885 198.961 105.349 197.277 104.062 195.141C102.743 192.951 102.553 190.427 103.512 187.842C103.986 186.566 104.636 185.573 105.016 185.052C105.281 180.395 103.758 175.337 103.161 173.559C96.7399 171.829 90.4433 172.953 88.4473 173.397C86.4954 178.17 85.9267 182.916 85.7842 184.495C87.6889 186.873 87.9504 189.331 87.8159 191.02C87.6644 192.925 86.9996 194.244 86.9247 194.388L86.9206 194.395C83.4403 200.959 73.9616 201.664 70.0463 201.665ZM68.4878 198.765L68.5514 198.77C68.6736 198.779 80.9222 199.595 84.3959 193.07C84.5043 192.853 86.242 189.233 83.2595 185.926L82.8644 185.487L82.8945 184.898C82.9084 184.625 83.266 178.129 86.1076 171.61L86.3781 170.99L87.029 170.807C87.3866 170.707 95.8893 168.375 104.675 171.025L105.346 171.227L105.595 171.882C105.709 172.179 108.354 179.217 107.832 185.695L107.794 186.157L107.492 186.509C107.487 186.515 106.667 187.494 106.159 188.908C105.534 190.647 105.652 192.248 106.506 193.668C108.386 196.788 114.688 198.17 116.958 198.439C117.121 198.458 133.531 200.271 139.21 193.439C139.423 193.142 141.711 189.737 138.773 184.405C137.684 182.428 137.278 180.086 137.631 177.811C138.049 175.115 138.261 173.181 138.507 170.942C138.717 169.036 138.955 166.876 139.36 163.943C139.69 161.562 139.768 159.268 139.921 154.697C140.317 142.943 138.938 131.642 137.711 124.231C136.379 116.183 134.933 110.855 134.92 110.802C133.266 104.754 130.572 96.5414 129.439 93.1386C119.798 98.0233 116.565 99.2453 116.426 99.2975C111.581 101.106 106.323 102.232 100.799 102.643L100.766 102.645C97.8609 102.792 94.9346 102.792 92.0669 102.645C89.9488 102.537 84.3226 102.247 79.3026 100.886C76.2264 100.052 73.2374 98.8453 73.1119 98.7948C72.7917 98.6653 72.4683 98.5309 72.1506 98.3948C70.8968 97.95 69.6422 97.4474 68.421 96.9007C66.4348 96.0119 64.9904 95.2095 63.8303 94.5642C62.6637 93.9158 61.4987 93.2282 60.3517 92.5104L60.2132 92.9495C58.7411 97.6135 58.5146 98.3305 58.2295 99.2714C58.2132 99.3252 56.5732 104.757 55.0767 111.236C54.249 114.818 51.5133 127.973 51.0392 146.878C50.7785 157.288 51.3047 167.839 52.6033 178.239C52.8461 180.186 52.6066 182.173 51.9084 183.983C50.9495 186.472 49.765 191.102 52.6115 194.153C57.0075 198.865 68.3127 198.766 68.4259 198.763L68.4878 198.765Z" fill="black"/>
<path d="M160.423 19.9131C160.196 28.2863 154.132 35.1295 146.233 36.6522C142.124 27.7804 134.994 20.234 125.941 14.9631C127.965 7.26526 135.073 1.68475 143.373 1.91041C153.052 2.17437 160.686 10.2339 160.423 19.9131Z" fill="white"/>
<path d="M145.408 38.2635L144.939 37.2517C140.966 28.6732 134.148 21.3916 125.223 16.1948L124.287 15.649L124.562 14.6005C125.631 10.5337 128.074 6.88638 131.441 4.32994C134.86 1.73357 139.112 0.36818 143.412 0.485493C148.474 0.623172 153.18 2.72422 156.662 6.40084C160.144 10.0775 161.986 14.8905 161.848 19.9521C161.731 24.2919 160.11 28.4931 157.287 31.7812C154.504 35.0211 150.674 37.2484 146.504 38.0525L145.408 38.2635ZM127.624 14.3056C131.878 16.8955 135.694 19.9782 138.981 23.4821C142.275 26.995 144.978 30.8679 147.027 35.0089C153.836 33.2011 158.804 27.0015 158.997 19.8747C159.239 10.9972 152.213 3.578 143.334 3.33604C143.185 3.33197 143.033 3.32952 142.884 3.32952C135.909 3.32952 129.811 7.74505 127.624 14.3056Z" fill="black"/>
<path d="M133.315 19.9988C133.856 16.7328 136 14.0175 138.959 12.9519C142.412 11.7079 145.414 13.2713 145.735 13.4448C145.946 13.5597 149.443 15.532 149.99 19.6298C150.359 22.3932 149.165 24.4763 148.705 25.2527C146.637 28.7419 143.022 29.7122 142.201 29.9102C140.988 28.1122 139.467 26.117 137.576 24.0755C136.112 22.4934 134.666 21.1426 133.315 19.9988Z" fill="#F761A6"/>
<path d="M141.573 31.5286L141.019 30.7074C139.673 28.7122 138.163 26.8067 136.53 25.0438C135.238 23.6482 133.847 22.3171 132.394 21.0869L131.777 20.5639L131.909 19.7655C132.538 15.9683 135.054 12.8432 138.476 11.6098C142.402 10.1955 145.778 11.8453 146.414 12.1907C146.613 12.2982 147.663 12.8962 148.77 14.0604C150.228 15.5944 151.138 17.4543 151.403 19.4405C151.845 22.7513 150.405 25.1806 149.932 25.9782C147.73 29.6947 144.026 30.9347 142.536 31.2948L141.573 31.5286ZM134.885 19.469C136.192 20.6144 137.446 21.8356 138.623 23.1065C140.117 24.7204 141.515 26.4466 142.787 28.2495C144.147 27.7689 146.179 26.7204 147.479 24.5257C147.828 23.9375 148.887 22.1484 148.577 19.8185C148.122 16.4017 145.086 14.7154 145.056 14.6982C144.781 14.5492 142.283 13.2693 139.443 14.2934C137.219 15.0942 135.524 17.0404 134.885 19.469Z" fill="black"/>
<g opacity="0.25">
<path d="M139.454 26.9877C139.817 26.4158 149.36 22.1819 147.12 14.1338C147.12 14.1338 152.692 18.5452 148.328 24.7237C143.965 30.9022 141.579 30.0272 141.579 30.0272L139.454 26.9877Z" fill="black"/>
</g>
<g opacity="0.25">
<path d="M143.771 33.8039C143.771 33.8039 160.864 29.5611 157.817 10.061C157.817 10.061 164.001 21.3418 156.942 30.6389C149.883 39.9359 145.741 38.0654 145.741 38.0654L143.771 33.8039Z" fill="black"/>
</g>
<path d="M65.3081 14.6662C56.1935 19.8475 48.978 27.3189 44.758 36.132C36.7709 34.4896 30.7668 27.4166 30.7725 18.9457C30.779 9.26327 38.6349 1.41878 48.3173 1.4253C56.5145 1.431 63.3952 7.06283 65.3081 14.6662Z" fill="white"/>
<path d="M45.5624 37.7536L44.4708 37.5287C40.2556 36.6619 36.4194 34.3458 33.6682 31.0065C30.8788 27.6215 29.3439 23.3379 29.3472 18.9452C29.3504 13.8812 31.326 9.1219 34.9089 5.54385C38.4886 1.96906 43.2463 0 48.3046 0C48.3095 0 48.3136 0 48.3177 0C52.624 0.00325869 56.6819 1.41346 60.053 4.07825C63.3223 6.6624 65.6792 10.2991 66.6902 14.3187L66.9549 15.3704L66.0124 15.9065C57.033 21.0112 50.1279 28.2187 46.0439 36.7491L45.5624 37.7536ZM48.3046 2.85136C44.0064 2.85136 39.9656 4.52388 36.9236 7.56098C33.8792 10.6013 32.201 14.6446 32.1977 18.9469C32.1928 26.1975 37.0882 32.5625 43.9844 34.4794C46.0846 30.3653 48.8342 26.5249 52.1686 23.0495C55.4974 19.5807 59.3491 16.5371 63.6319 13.9912C61.5023 7.38583 55.3491 2.85543 48.316 2.85136C48.312 2.85136 48.3079 2.85136 48.3046 2.85136Z" fill="black"/>
<path d="M150.134 54.2482C150.116 80.3724 125.586 101.533 95.345 101.512C65.1035 101.492 40.6022 80.2974 40.6201 54.1733C40.6242 47.7846 42.0947 41.6917 44.7579 36.1332C48.9779 27.3192 56.1934 19.8486 65.308 14.6673C73.9468 9.75566 84.2923 6.90105 95.4093 6.9092C106.716 6.91653 117.221 9.88438 125.942 14.9639C134.994 20.2348 142.124 27.7811 146.234 36.6529C148.754 42.0925 150.138 48.0306 150.134 54.2482Z" fill="white"/>
<path d="M95.3894 102.938C95.3739 102.938 95.3592 102.938 95.3437 102.938C87.7844 102.933 80.4491 101.648 73.5431 99.1192C66.862 96.6727 60.8594 93.1704 55.7026 88.7093C50.5302 84.2351 46.4691 79.022 43.6299 73.2134C40.6824 67.1832 39.1899 60.7766 39.1948 54.1712C39.1989 47.7084 40.6384 41.4322 43.4727 35.516C45.6308 31.0092 48.5562 26.8153 52.1693 23.0499C55.7474 19.3211 59.9307 16.0828 64.6037 13.4261C73.7459 8.22853 84.3839 5.48145 95.3657 5.48145C95.3812 5.48145 95.3951 5.48145 95.4106 5.48145C106.603 5.48878 117.408 8.34176 126.659 13.73C131.303 16.4339 135.448 19.7146 138.981 23.4808C142.551 27.287 145.427 31.5168 147.527 36.0521C150.207 41.8354 151.564 47.9569 151.559 54.247C151.555 60.8515 150.054 67.2565 147.098 73.2826C144.251 79.0872 140.183 84.2946 135.004 88.7614C129.842 93.2152 123.835 96.7094 117.149 99.1469C110.254 101.663 102.932 102.938 95.3894 102.938ZM95.3649 8.33362C84.8752 8.33362 74.726 10.9512 66.0114 15.906C57.0321 21.0107 50.1269 28.2182 46.043 36.7486C43.3945 42.2778 42.0486 48.1402 42.0446 54.1736C42.0364 66.388 47.5485 77.8872 57.5665 86.5528C67.644 95.2698 81.0601 100.076 95.3446 100.086C95.3592 100.086 95.3731 100.086 95.3877 100.086C124.775 100.086 148.69 79.5304 148.707 54.2462C148.711 48.374 147.444 42.6566 144.939 37.2521C140.965 28.6728 134.147 21.392 125.223 16.1952C116.406 11.0595 106.096 8.34095 95.4073 8.33362C95.3943 8.33362 95.3796 8.33362 95.3649 8.33362Z" fill="black"/>
<path d="M126.094 75.3239C126.187 65.3386 112.191 57.1128 94.8324 56.9511C77.474 56.7894 63.3269 64.753 63.2339 74.7383C63.1408 84.7236 77.1372 92.9495 94.4955 93.1112C111.854 93.2729 126.001 85.3092 126.094 75.3239Z" fill="#CECECE"/>
<path d="M57.8672 19.7882C57.4175 16.5083 55.3499 13.7343 52.4219 12.5865C49.0052 11.2463 45.9608 12.7258 45.6349 12.8903C45.4206 12.9987 41.8695 14.8732 41.2088 18.9539C40.7632 21.7067 41.898 23.8216 42.3363 24.6102C44.3062 28.1557 47.8932 29.2262 48.7087 29.4477C49.9714 27.684 51.547 25.7328 53.4941 23.7442C55.002 22.2037 56.4855 20.8937 57.8672 19.7882Z" fill="#F761A6"/>
<path d="M49.2909 31.0835L48.3353 30.8236C46.8558 30.422 43.1882 29.0794 41.0904 25.3026C40.6399 24.4912 39.2679 22.0227 39.8024 18.7257C40.1225 16.7485 41.0847 14.9139 42.5845 13.4214C43.7234 12.2882 44.7898 11.7204 44.9918 11.6177C45.6379 11.2902 49.0595 9.73501 52.9431 11.2585C56.3288 12.5864 58.7574 15.7807 59.2804 19.5942L59.3904 20.3958L58.7582 20.9009C57.2722 22.0895 55.8441 23.3816 54.5137 24.7405C52.8323 26.4578 51.2697 28.321 49.8685 30.277L49.2909 31.0835ZM49.4448 13.454C47.7462 13.454 46.4729 14.0642 46.279 14.1619C46.2481 14.1774 43.1678 15.7791 42.6163 19.182C42.2407 21.503 43.2509 23.3205 43.5825 23.9185C44.8216 26.1482 46.8232 27.2537 48.1691 27.7719C49.4913 26.0057 50.9365 24.3193 52.4754 22.747C53.6868 21.5095 54.9757 20.3241 56.3134 19.2154C55.7415 16.7697 54.1015 14.7762 51.9019 13.9135C51.0367 13.5746 50.1992 13.454 49.4448 13.454Z" fill="black"/>
<g opacity="0.25">
<path d="M51.536 26.6035C51.189 26.021 41.7689 21.524 44.2317 13.541C44.2317 13.541 38.5396 17.7952 42.7286 24.0935C46.9185 30.3917 49.3275 29.5836 49.3275 29.5836L51.536 26.6035Z" fill="black"/>
</g>
<g opacity="0.25">
<path d="M47.031 33.2963C47.031 33.2963 30.0622 28.5785 33.6525 9.17139C33.6525 9.17139 27.1563 20.2754 33.9539 29.7655C40.7507 39.2556 44.9438 37.5016 44.9438 37.5016L47.031 33.2963Z" fill="black"/>
</g>
<path d="M92.8694 63.8538C92.8287 64.2326 94.4792 64.9226 96.1387 64.9161C97.7786 64.9104 99.4063 64.2245 99.3656 63.8497C99.3143 63.3723 96.5574 63.3691 96.1525 63.3682C95.8087 63.3674 92.9223 63.3634 92.8694 63.8538Z" fill="white"/>
<path d="M89.2 66.6383C89.6929 69.2999 92.8783 71.8351 96.3007 71.7545C99.6719 71.6747 102.628 69.071 103.114 66.4355C103.188 66.0322 103.297 65.4 103.057 64.6766C102.252 62.2578 98.4311 61.5132 96.1321 61.5491C93.8363 61.5849 90.0277 62.4452 89.2546 64.9397C89.0281 65.6705 89.1365 66.297 89.2 66.6383Z" fill="black"/>
<path d="M92.6729 63.4294C92.6786 63.7569 94.2778 63.9965 96.2452 63.9639C98.2126 63.9313 99.8037 63.6396 99.798 63.3113C99.7923 62.9838 98.1931 62.7443 96.2257 62.7769C94.2582 62.8103 92.668 63.1019 92.6729 63.4294Z" fill="white"/>
<g opacity="0.25">
<path d="M150.134 54.2488C143.401 78.799 120.991 95.9658 95.6057 96.0635C70.0331 96.1621 47.3705 78.9146 40.6201 54.1738C41.0315 59.7397 42.6601 70.8217 50.4736 81.2251C65.8391 101.683 91.7335 101.687 97.3499 101.514C102.044 101.37 125.702 100.643 140.244 81.3888C148.168 70.8974 149.749 59.7177 150.134 54.2488Z" fill="black"/>
</g>
<g opacity="0.25">
<path d="M131.773 95.7228C126.525 99.0523 113.856 106.097 96.2529 106.395C76.9533 106.722 63.0941 98.7476 57.938 95.4189L59.5519 90.3052C64.1556 93.4824 77.9464 102.114 97.312 101.507C113.527 100.999 125.133 94.2808 129.98 91.0791C130.578 92.627 131.175 94.1749 131.773 95.7228Z" fill="black"/>
</g>
<path d="M120.245 96.7012L163.952 119.471C159.997 125.141 151.431 135.666 136.905 141.63C122.847 147.402 110.188 146.037 101.059 145.052C84.0944 143.222 79.4499 138.104 55.7633 133.647C47.6182 132.114 40.7513 131.265 35.992 130.78C35.1048 130.689 34.2535 131.148 33.8388 131.938C32.0751 135.3 29.3712 139.53 25.2815 143.701C20.3226 148.757 15.1119 151.904 11.0304 153.847C9.44913 154.599 7.67478 153.275 7.93791 151.543C8.50737 147.789 9.65606 143.103 11.9942 138.078C14.6248 132.423 17.859 128.273 20.3682 125.532L21.5169 124.231C22.4733 123.15 22.1328 121.453 20.8342 120.824C20.7666 120.791 20.7006 120.754 20.6362 120.715C17.4834 118.761 13.2814 115.669 9.24546 110.998C5.59084 106.767 3.19326 102.539 1.61931 99.0671C0.905655 97.4939 2.22461 95.7538 3.93298 96.0129C8.30859 96.6784 14.2891 98.2328 20.488 101.955C25.6685 105.065 29.3377 108.692 31.7671 111.571C32.462 112.394 33.6555 112.585 34.5737 112.02C44.0711 106.182 60.4469 97.9396 82.2809 95.3163C98.6306 93.3521 112.352 95.221 121.63 97.2715" fill="#6E85B2"/>
<path d="M10.094 155.485C9.33475 155.485 8.58118 155.243 7.94737 154.773C6.872 153.975 6.32861 152.655 6.52902 151.33C7.25734 146.524 8.66184 141.863 10.7018 137.477C12.8932 132.767 15.7886 128.427 19.3088 124.579L20.4493 123.289C20.6652 123.044 20.6514 122.777 20.6245 122.639C20.5968 122.502 20.5072 122.25 20.2131 122.107C20.1015 122.053 19.9915 121.993 19.8864 121.928C15.4831 119.199 11.5409 115.836 8.16733 111.931C4.98277 108.245 2.34323 104.115 0.322029 99.6567C-0.223802 98.4526 -0.0665732 97.0489 0.731807 95.9939C1.531 94.9381 2.84018 94.4061 4.14773 94.6049C10.2496 95.5328 15.9947 97.5947 21.2225 100.734C25.6152 103.371 29.5297 106.708 32.8576 110.651C33.0996 110.938 33.5077 111.003 33.8279 110.806C40.0007 107.012 46.5466 103.757 53.2847 101.134C62.5793 97.5165 72.278 95.0831 82.112 93.901C95.0001 92.3523 108.01 92.9364 120.802 95.6338L120.904 95.4366L121.62 95.809C121.725 95.8318 121.832 95.8554 121.938 95.879L121.919 95.9654L166.05 118.956L165.122 120.287C157.899 130.645 148.329 138.482 137.447 142.949C131.066 145.569 124.442 146.992 117.195 147.3C111.025 147.561 105.415 146.956 100.907 146.47C92.0363 145.513 86.4395 143.66 79.9588 141.515C73.8463 139.491 66.9191 137.197 55.5007 135.049C48.9906 133.823 42.3787 132.864 35.8483 132.199C35.5404 132.168 35.2471 132.325 35.1021 132.601C32.7631 137.058 29.8018 141.128 26.3003 144.699C22.0779 149.005 17.1467 152.516 11.6444 155.134C11.1498 155.368 10.6203 155.485 10.094 155.485ZM3.59538 97.4139C3.27115 97.4139 3.07807 97.6183 3.00475 97.7145C2.92328 97.822 2.7522 98.112 2.91839 98.4786C4.82636 102.688 7.31844 106.586 10.3246 110.067C13.5091 113.752 17.2314 116.928 21.3879 119.504C21.409 119.517 21.4318 119.53 21.4563 119.541C22.4803 120.038 23.1964 120.963 23.4196 122.078C23.6437 123.194 23.339 124.323 22.5854 125.175L21.4204 126.494C18.0933 130.129 15.3568 134.228 13.2876 138.678C11.3617 142.818 10.0362 147.218 9.34861 151.756C9.28669 152.166 9.53679 152.4 9.64678 152.483C9.75594 152.563 10.05 152.733 10.4191 152.557C15.6191 150.083 20.2774 146.767 24.2645 142.701C27.5712 139.329 30.368 135.484 32.5766 131.274C33.2658 129.961 34.6629 129.208 36.1367 129.36C42.7461 130.033 49.4379 131.004 56.0269 132.244C67.6328 134.427 74.6569 136.753 80.8541 138.805C87.18 140.899 92.6432 142.709 101.212 143.633C110.255 144.608 122.64 145.944 136.363 140.31C146.271 136.242 155.049 129.229 161.838 119.975L120.641 98.5137C108.018 95.8016 95.1728 95.202 82.4509 96.7303C65.9554 98.7124 49.6578 104.419 35.3204 113.234C33.7888 114.175 31.8368 113.862 30.6776 112.489C27.5517 108.786 23.8767 105.653 19.7536 103.177C14.846 100.23 9.45126 98.2937 3.7184 97.422C3.67604 97.4163 3.63449 97.4139 3.59538 97.4139Z" fill="black"/>
<g opacity="0.5">
<path d="M3.99138 100.53C3.99138 100.53 3.17671 98.7375 5.78366 99.3892C8.25538 99.9269 11.0676 100.768 14.0428 102.098C20.9374 105.182 25.7603 109.584 28.8552 113.097C29.863 114.241 31.4858 114.617 32.8976 114.042C33.5542 113.775 34.2117 113.507 34.8683 113.239C31.0939 110.307 27.3187 107.374 23.5444 104.441C23.5444 104.441 15.2893 97.7607 8.90712 97.1904C2.52497 96.6201 -0.244921 95.6417 3.99138 100.53Z" fill="white"/>
</g>
<g opacity="0.5">
<path d="M112.79 99.0204C112.79 99.0204 79.3889 89.8993 34.9077 113.28C34.9077 113.28 67.3415 87.5767 113.325 95.7446L112.79 99.0204Z" fill="white"/>
</g>
<path d="M10.0944 155.485C9.33508 155.485 8.58151 155.243 7.9477 154.773C6.87233 153.975 6.32894 152.655 6.52935 151.33C7.25767 146.524 8.66216 141.863 10.7021 137.477C12.8928 132.767 15.7889 128.428 19.3083 124.58L20.4497 123.289C20.6656 123.044 20.6517 122.777 20.624 122.639C20.5963 122.502 20.5067 122.25 20.2126 122.107C20.101 122.054 19.991 121.993 19.8859 121.928C15.4826 119.199 11.5396 115.836 8.16684 111.931C4.98228 108.245 2.34274 104.115 0.32154 99.6567C-0.224291 98.4526 -0.0670614 97.0489 0.731318 95.9939C1.53051 94.9381 2.83969 94.4061 4.14724 94.6049C10.2491 95.5328 15.9942 97.5947 21.222 100.734C25.6139 103.371 29.5284 106.708 32.8571 110.651C33.0991 110.938 33.5073 111.003 33.8274 110.806C40.0002 107.012 46.5461 103.757 53.2843 101.134C62.5789 97.5165 72.2775 95.0831 82.1115 93.901C94.9996 92.3523 108.01 92.9364 120.801 95.6338L120.904 95.4366L121.619 95.809C121.725 95.8318 121.832 95.8554 121.938 95.879L121.919 95.9654L166.05 118.956L165.122 120.287C163.557 122.531 161.859 124.686 160.077 126.692C153.609 133.97 145.995 139.44 137.447 142.949C131.065 145.569 124.441 146.992 117.195 147.3C111.024 147.561 105.414 146.956 100.907 146.47C92.0358 145.513 86.439 143.66 79.9583 141.515C73.8458 139.491 66.9186 137.197 55.5002 135.049C48.9885 133.823 42.3766 132.864 35.8478 132.199C35.5399 132.168 35.2466 132.325 35.1016 132.601C32.7626 137.058 29.8013 141.128 26.2998 144.699C22.0774 149.005 17.1462 152.516 11.6439 155.134C11.1502 155.368 10.6206 155.485 10.0944 155.485ZM3.59571 97.4139C3.27147 97.4139 3.07839 97.6183 3.00507 97.7145C2.92361 97.822 2.75253 98.112 2.91872 98.4786C4.82668 102.688 7.31877 106.586 10.3249 110.067C13.5095 113.752 17.2309 116.928 21.3882 119.504C21.4094 119.517 21.4322 119.53 21.4566 119.541C22.4815 120.038 23.1967 120.963 23.4208 122.079C23.6448 123.195 23.3401 124.323 22.5874 125.176L21.4216 126.494C18.0944 130.13 15.3588 134.229 13.2887 138.679C11.3628 142.819 10.0373 147.219 9.34975 151.757C9.28783 152.166 9.53794 152.401 9.64792 152.483C9.75708 152.564 10.0512 152.734 10.4202 152.558C15.6203 150.084 20.2786 146.768 24.2656 142.702C27.5724 139.33 30.3691 135.485 32.5777 131.275C33.2669 129.962 34.6641 129.21 36.1378 129.36C42.7456 130.034 49.4374 131.004 56.0281 132.244C67.6339 134.428 74.658 136.754 80.8552 138.806C87.1812 140.9 92.6444 142.71 101.213 143.634C110.256 144.609 122.641 145.945 136.365 140.31C144.508 136.967 151.769 131.747 157.946 124.797C159.302 123.271 160.607 121.654 161.839 119.976L120.642 98.5145C108.019 95.8024 95.1739 95.2028 82.452 96.7312C65.9565 98.7133 49.659 104.42 35.3215 113.235C33.7899 114.176 31.838 113.863 30.6787 112.49C27.5528 108.787 23.8778 105.653 19.7548 103.178C14.8472 100.231 9.45239 98.2945 3.71954 97.4228C3.67636 97.4163 3.63482 97.4139 3.59571 97.4139Z" fill="black"/>
<path d="M121.355 105.915C119.128 108.812 113.514 115.274 103.89 118.547C95.1126 121.533 87.0555 120.486 81.4555 118.879C79.2558 118.248 79.2526 115.145 81.4489 114.506C84.992 113.474 89.146 111.708 93.2283 108.653C98.0447 105.05 101.003 100.973 102.693 98.1758" fill="#6E85B2"/>
<path d="M121.355 105.916C121.055 106.71 120.659 107.448 120.224 108.162C119.784 108.873 119.296 109.551 118.766 110.196C118.237 110.842 117.668 111.454 117.066 112.032C116.462 112.609 115.833 113.16 115.19 113.696C114.544 114.228 113.886 114.748 113.204 115.237C112.52 115.723 111.823 116.192 111.107 116.633C110.39 117.072 109.664 117.499 108.913 117.881C108.728 117.981 108.539 118.074 108.351 118.167C108.162 118.259 107.974 118.356 107.784 118.445C107.401 118.622 107.021 118.804 106.632 118.969C105.86 119.309 105.07 119.604 104.275 119.887C103.471 120.144 102.675 120.427 101.853 120.627L101.242 120.79C101.14 120.817 101.038 120.845 100.935 120.87L100.626 120.938L99.3875 121.208C98.972 121.285 98.5549 121.349 98.1386 121.42L97.8258 121.473L97.6693 121.499L97.5121 121.518L96.8832 121.595C96.4636 121.644 96.0449 121.703 95.6237 121.728L94.9923 121.777L94.6762 121.802C94.5711 121.81 94.466 121.819 94.3601 121.82L93.0949 121.865C92.9899 121.87 92.8839 121.871 92.7789 121.869L92.4628 121.868L91.8298 121.866C90.1434 121.841 88.4603 121.709 86.7943 121.473C85.1274 121.241 83.4761 120.907 81.8516 120.478L81.2431 120.313L81.0907 120.272L81.05 120.26L80.993 120.242L80.8797 120.206C80.729 120.159 80.5791 120.091 80.4317 120.025C80.1368 119.881 79.8541 119.696 79.5999 119.473C79.3441 119.252 79.1233 118.989 78.9433 118.705C78.7624 118.422 78.6223 118.115 78.5253 117.8C78.4292 117.484 78.3762 117.159 78.364 116.833C78.3518 116.507 78.3811 116.18 78.4512 115.859C78.5237 115.539 78.6386 115.225 78.7958 114.929C78.953 114.634 79.1494 114.354 79.3864 114.111C79.6219 113.868 79.8915 113.658 80.1775 113.49C80.25 113.45 80.3225 113.411 80.3958 113.372C80.4691 113.334 80.5441 113.305 80.6182 113.271L80.7306 113.224L80.8431 113.185L80.9563 113.147L81.0598 113.113L81.6211 112.944C82.3673 112.713 83.107 112.461 83.8378 112.184L84.3845 111.973L84.9262 111.752C85.1079 111.68 85.2863 111.601 85.4663 111.525C85.6456 111.448 85.8256 111.372 86.0032 111.29C86.7177 110.975 87.4159 110.625 88.1083 110.263C88.8016 109.904 89.4778 109.511 90.1499 109.112C90.3169 109.011 90.4815 108.905 90.6477 108.803C90.8139 108.699 90.9801 108.597 91.1422 108.487L91.6334 108.165C91.7964 108.056 91.956 107.943 92.1173 107.832C92.7601 107.386 93.3899 106.918 94.0066 106.434C94.1638 106.316 94.3113 106.187 94.4644 106.064L94.9206 105.691L95.3663 105.306C95.5137 105.177 95.6661 105.051 95.8086 104.917C96.0978 104.65 96.3944 104.391 96.6746 104.115L97.1007 103.705L97.5162 103.285L97.7255 103.076C97.7932 103.005 97.8616 102.934 97.9308 102.864C98.0677 102.722 98.2078 102.582 98.348 102.442C98.6201 102.155 98.9052 101.878 99.1797 101.59C99.741 101.025 100.302 100.453 100.88 99.8812C101.172 99.5977 101.46 99.3085 101.763 99.025C101.911 98.8808 102.064 98.7399 102.219 98.5981C102.372 98.4555 102.529 98.3146 102.695 98.1777C102.648 98.3863 102.592 98.5916 102.532 98.7944C102.502 98.8963 102.469 98.9957 102.435 99.0959C102.403 99.1961 102.368 99.2955 102.333 99.3949C102.189 99.7908 102.029 100.179 101.853 100.559C101.502 101.319 101.097 102.055 100.64 102.755C100.416 103.109 100.168 103.445 99.9244 103.786C99.7973 103.952 99.6694 104.118 99.539 104.281C99.4747 104.364 99.4095 104.446 99.3435 104.526L99.1406 104.766L98.7309 105.242L98.3097 105.708C98.0319 106.021 97.7378 106.32 97.4477 106.623C96.2771 107.826 95.0111 108.939 93.675 109.964C93.0102 110.481 92.3169 110.96 91.6155 111.428C91.2603 111.655 90.9084 111.889 90.545 112.101C90.3642 112.209 90.1849 112.321 90.0016 112.426L89.4517 112.739C88.7112 113.143 87.9633 113.534 87.1975 113.889C86.4334 114.246 85.6586 114.582 84.8692 114.88C84.0814 115.182 83.2847 115.459 82.4798 115.71L81.8736 115.892L81.8019 115.916L81.7702 115.926L81.7425 115.939C81.7246 115.948 81.7034 115.953 81.6871 115.963C81.6708 115.973 81.6537 115.982 81.6366 115.99C81.5111 116.066 81.4182 116.156 81.3522 116.283C81.2072 116.528 81.2227 116.931 81.3783 117.157C81.4508 117.277 81.551 117.361 81.6887 117.434C81.7278 117.448 81.7604 117.469 81.8052 117.481L81.837 117.491L81.8525 117.497C81.8582 117.499 81.8745 117.503 81.885 117.506L82.0268 117.545L82.5938 117.701C84.1083 118.108 85.6464 118.427 87.1967 118.648C88.747 118.866 90.3096 118.988 91.8713 119.011L92.4571 119.013L92.7495 119.014C92.8473 119.015 92.945 119.015 93.042 119.01L94.2119 118.967C94.3096 118.966 94.4066 118.958 94.5035 118.949L94.7952 118.927L95.3785 118.882C95.7679 118.86 96.1549 118.805 96.5418 118.76L97.1227 118.691L97.2677 118.674L97.4119 118.65L97.7003 118.602C98.0848 118.537 98.4702 118.479 98.8539 118.409L99.9993 118.171L100.286 118.112C100.381 118.09 100.475 118.064 100.57 118.04L101.136 117.894C101.513 117.797 101.893 117.707 102.264 117.586L103.385 117.248C104.126 117.002 104.863 116.74 105.587 116.447C107.045 115.881 108.453 115.192 109.832 114.446C110.52 114.069 111.194 113.665 111.858 113.243C112.522 112.824 113.174 112.381 113.814 111.92C114.453 111.458 115.077 110.975 115.687 110.471L117.529 108.962C118.145 108.453 118.768 107.946 119.397 107.434C119.715 107.18 120.031 106.922 120.357 106.669C120.68 106.417 121.007 106.161 121.355 105.916Z" fill="black"/>
<g opacity="0.5">
<path d="M83.2584 117.965C83.2584 117.965 81.792 116.906 83.2584 116.662C84.7249 116.417 100.448 110.144 102.403 99.3091C102.403 99.3091 95.8199 108.868 81.9623 114.354C81.9623 114.354 76.6596 117.313 83.2584 117.965Z" fill="white"/>
</g>
<path d="M121.355 105.916C121.055 106.71 120.659 107.448 120.224 108.162C119.784 108.873 119.296 109.551 118.766 110.196C118.237 110.842 117.668 111.454 117.066 112.032C116.462 112.609 115.833 113.16 115.19 113.696C114.544 114.228 113.886 114.748 113.204 115.237C112.52 115.723 111.823 116.192 111.107 116.633C110.39 117.072 109.664 117.499 108.913 117.881C108.728 117.981 108.539 118.074 108.351 118.167C108.162 118.259 107.974 118.356 107.784 118.445C107.401 118.622 107.021 118.804 106.632 118.969C105.86 119.309 105.07 119.604 104.275 119.887C103.471 120.144 102.675 120.427 101.853 120.627L101.242 120.79C101.14 120.817 101.038 120.845 100.935 120.87L100.626 120.938L99.3875 121.208C98.972 121.285 98.5549 121.349 98.1386 121.42L97.8258 121.473L97.6693 121.499L97.5121 121.518L96.8832 121.595C96.4636 121.644 96.0449 121.703 95.6237 121.728L94.9923 121.777L94.6762 121.802C94.5711 121.81 94.466 121.819 94.3601 121.82L93.0949 121.865C92.9899 121.87 92.8839 121.871 92.7789 121.869L92.4628 121.868L91.8298 121.866C90.1434 121.841 88.4603 121.709 86.7943 121.473C85.1274 121.241 83.4761 120.907 81.8516 120.478L81.2431 120.313L81.0907 120.272L81.05 120.26L80.993 120.242L80.8797 120.206C80.729 120.159 80.5791 120.091 80.4317 120.025C80.1368 119.881 79.8541 119.696 79.5999 119.473C79.3441 119.252 79.1233 118.989 78.9433 118.705C78.7624 118.422 78.6223 118.115 78.5253 117.8C78.4292 117.484 78.3762 117.159 78.364 116.833C78.3518 116.507 78.3811 116.18 78.4512 115.859C78.5237 115.539 78.6386 115.225 78.7958 114.929C78.953 114.634 79.1494 114.354 79.3864 114.111C79.6219 113.868 79.8915 113.658 80.1775 113.49C80.25 113.45 80.3225 113.411 80.3958 113.372C80.4691 113.334 80.5441 113.305 80.6182 113.271L80.7306 113.224L80.8431 113.185L80.9563 113.147L81.0598 113.113L81.6211 112.944C82.3673 112.713 83.107 112.461 83.8378 112.184L84.3845 111.973L84.9262 111.752C85.1079 111.68 85.2863 111.601 85.4663 111.525C85.6456 111.448 85.8256 111.372 86.0032 111.29C86.7177 110.975 87.4159 110.625 88.1083 110.263C88.8016 109.904 89.4778 109.511 90.1499 109.112C90.3169 109.011 90.4815 108.905 90.6477 108.803C90.8139 108.699 90.9801 108.597 91.1422 108.487L91.6334 108.165C91.7964 108.056 91.956 107.943 92.1173 107.832C92.7601 107.386 93.3899 106.918 94.0066 106.434C94.1638 106.316 94.3113 106.187 94.4644 106.064L94.9206 105.691L95.3663 105.306C95.5137 105.177 95.6661 105.051 95.8086 104.917C96.0978 104.65 96.3944 104.391 96.6746 104.115L97.1007 103.705L97.5162 103.285L97.7255 103.076C97.7932 103.005 97.8616 102.934 97.9308 102.864C98.0677 102.722 98.2078 102.582 98.348 102.442C98.6201 102.155 98.9052 101.878 99.1797 101.59C99.741 101.025 100.302 100.453 100.88 99.8812C101.172 99.5977 101.46 99.3085 101.763 99.025C101.911 98.8808 102.064 98.7399 102.219 98.5981C102.372 98.4555 102.529 98.3146 102.695 98.1777C102.648 98.3863 102.592 98.5916 102.532 98.7944C102.502 98.8963 102.469 98.9957 102.435 99.0959C102.403 99.1961 102.368 99.2955 102.333 99.3949C102.189 99.7908 102.029 100.179 101.853 100.559C101.502 101.319 101.097 102.055 100.64 102.755C100.416 103.109 100.168 103.445 99.9244 103.786C99.7973 103.952 99.6694 104.118 99.539 104.281C99.4747 104.364 99.4095 104.446 99.3435 104.526L99.1406 104.766L98.7309 105.242L98.3097 105.708C98.0319 106.021 97.7378 106.32 97.4477 106.623C96.2771 107.826 95.0111 108.939 93.675 109.964C93.0102 110.481 92.3169 110.96 91.6155 111.428C91.2603 111.655 90.9084 111.889 90.545 112.101C90.3642 112.209 90.1849 112.321 90.0016 112.426L89.4517 112.739C88.7112 113.143 87.9633 113.534 87.1975 113.889C86.4334 114.246 85.6586 114.582 84.8692 114.88C84.0814 115.182 83.2847 115.459 82.4798 115.71L81.8736 115.892L81.8019 115.916L81.7702 115.926L81.7425 115.939C81.7246 115.948 81.7034 115.953 81.6871 115.963C81.6708 115.973 81.6537 115.982 81.6366 115.99C81.5111 116.066 81.4182 116.156 81.3522 116.283C81.2072 116.528 81.2227 116.931 81.3783 117.157C81.4508 117.277 81.551 117.361 81.6887 117.434C81.7278 117.448 81.7604 117.469 81.8052 117.481L81.837 117.491L81.8525 117.497C81.8582 117.499 81.8745 117.503 81.885 117.506L82.0268 117.545L82.5938 117.701C84.1083 118.108 85.6464 118.427 87.1967 118.648C88.747 118.866 90.3096 118.988 91.8713 119.011L92.4571 119.013L92.7495 119.014C92.8473 119.015 92.945 119.015 93.042 119.01L94.2119 118.967C94.3096 118.966 94.4066 118.958 94.5035 118.949L94.7952 118.927L95.3785 118.882C95.7679 118.86 96.1549 118.805 96.5418 118.76L97.1227 118.691L97.2677 118.674L97.4119 118.65L97.7003 118.602C98.0848 118.537 98.4702 118.479 98.8539 118.409L99.9993 118.171L100.286 118.112C100.381 118.09 100.475 118.064 100.57 118.04L101.136 117.894C101.513 117.797 101.893 117.707 102.264 117.586L103.385 117.248C104.126 117.002 104.863 116.74 105.587 116.447C107.045 115.881 108.453 115.192 109.832 114.446C110.52 114.069 111.194 113.665 111.858 113.243C112.522 112.824 113.174 112.381 113.814 111.92C114.453 111.458 115.077 110.975 115.687 110.471L117.529 108.962C118.145 108.453 118.768 107.946 119.397 107.434C119.715 107.18 120.031 106.922 120.357 106.669C120.68 106.417 121.007 106.161 121.355 105.916Z" fill="black"/>
<path d="M187.005 89.9586C186.475 88.9688 186.094 87.9032 185.902 86.7961C182.917 69.5779 167.639 57.001 150.455 57.5183C134.112 58.0104 120.1 70.2232 117.167 86.55C116.945 87.7867 116.497 88.9737 115.839 90.045C112.808 94.9835 112.664 98.7913 112.842 100.88C113.501 108.602 120.554 116.084 131.8 120.74C144.415 125.963 158.607 126.073 171.147 120.674C181.796 116.09 188.612 108.756 189.481 100.981C189.723 98.8043 189.683 94.9566 187.005 89.9586Z" fill="#6E85B2"/>
<path d="M151.545 126.115C151.53 126.115 151.515 126.115 151.501 126.115C144.557 126.11 137.746 124.744 131.255 122.057C119.548 117.209 112.133 109.338 111.422 101.001C111.099 97.223 112.177 93.2865 114.624 89.2987C115.188 88.3806 115.572 87.3712 115.764 86.2975C118.817 69.3083 133.388 56.6059 150.412 56.0934C150.769 56.0829 151.126 56.0771 151.481 56.0771C168.969 56.0771 184.265 69.0044 187.307 86.5525C187.468 87.4844 187.79 88.4034 188.262 89.2849C190.436 93.3428 191.322 97.3306 190.897 101.138C190.436 105.261 188.405 109.361 185.024 112.994C181.717 116.549 177.113 119.657 171.71 121.983C165.342 124.726 158.557 126.115 151.545 126.115ZM151.482 58.9293C151.154 58.9293 150.828 58.9342 150.498 58.944C134.813 59.4165 121.385 71.1323 118.57 86.8026C118.314 88.2266 117.804 89.5684 117.054 90.7912C114.932 94.2487 113.992 97.6019 114.262 100.76C114.558 104.234 116.33 107.767 119.383 110.978C122.545 114.302 127.027 117.222 132.344 119.424C144.688 124.534 158.626 124.514 170.583 119.366C180.719 115.002 187.253 108.07 188.063 100.824C188.423 97.601 187.644 94.1721 185.749 90.6331C185.132 89.4828 184.712 88.2739 184.497 87.0413C181.692 70.8545 167.594 58.9293 151.482 58.9293Z" fill="black"/>
<g opacity="0.5">
<path d="M184.763 86.9301C180.968 71.6762 167.291 60.8826 151.785 60.7661C135.771 60.6463 121.602 71.9442 118.089 87.8043C119.657 70.943 133.414 57.8047 149.82 57.0039C167.087 56.1615 182.622 69.211 184.763 86.9301Z" fill="white"/>
</g>
<path d="M151.545 126.115C151.53 126.115 151.515 126.115 151.501 126.115C144.557 126.11 137.746 124.744 131.255 122.057C119.548 117.209 112.133 109.338 111.422 101.001C111.099 97.223 112.177 93.2865 114.624 89.2987C115.188 88.3806 115.572 87.3712 115.764 86.2975C118.817 69.3083 133.388 56.6059 150.412 56.0934C150.769 56.0829 151.126 56.0771 151.481 56.0771C168.969 56.0771 184.265 69.0044 187.307 86.5525C187.468 87.4844 187.79 88.4034 188.262 89.2849C190.436 93.3428 191.322 97.3306 190.897 101.138C190.436 105.261 188.405 109.361 185.024 112.994C181.717 116.549 177.113 119.657 171.71 121.983C165.342 124.726 158.557 126.115 151.545 126.115ZM151.482 58.9293C151.154 58.9293 150.828 58.9342 150.498 58.944C134.813 59.4165 121.385 71.1323 118.57 86.8026C118.314 88.2266 117.804 89.5684 117.054 90.7912C114.932 94.2487 113.992 97.6019 114.262 100.76C114.558 104.234 116.33 107.767 119.383 110.978C122.545 114.302 127.027 117.222 132.344 119.424C144.688 124.534 158.626 124.514 170.583 119.366C180.719 115.002 187.253 108.07 188.063 100.824C188.423 97.601 187.644 94.1721 185.749 90.6331C185.132 89.4828 184.712 88.2739 184.497 87.0413C181.692 70.8545 167.594 58.9293 151.482 58.9293Z" fill="black"/>
<path d="M125.051 134.29C122.753 131.449 116.982 125.127 107.28 122.092C98.4318 119.324 90.4032 120.568 84.8438 122.314C82.6605 122.999 82.733 126.1 84.9457 126.686C88.5131 127.63 92.7087 129.294 96.866 132.247C101.77 135.73 104.827 139.733 106.586 142.487" fill="#6E85B2"/>
<path d="M125.052 134.29C124.698 134.053 124.364 133.806 124.032 133.56C123.7 133.315 123.377 133.064 123.054 132.818C122.412 132.322 121.776 131.83 121.149 131.337L119.271 129.874C118.648 129.387 118.012 128.919 117.361 128.473C116.711 128.027 116.049 127.6 115.373 127.197C114.7 126.792 114.016 126.405 113.319 126.045C111.922 125.332 110.497 124.679 109.026 124.15C108.295 123.874 107.552 123.631 106.805 123.403L105.676 123.094C105.302 122.981 104.92 122.901 104.541 122.813L103.97 122.681C103.875 122.659 103.78 122.635 103.685 122.616L103.398 122.564L102.247 122.355C101.862 122.294 101.475 122.246 101.09 122.19L100.8 122.149L100.655 122.129L100.51 122.115L99.9271 122.061C99.5385 122.025 99.1515 121.98 98.7613 121.968L98.1772 121.937L97.8847 121.921C97.7869 121.916 97.69 121.91 97.5922 121.911L96.4215 121.898C96.3238 121.895 96.226 121.897 96.1291 121.901L95.8366 121.909L95.2508 121.925C93.6899 121.987 92.1315 122.147 90.5868 122.403C89.0422 122.662 87.5131 123.019 86.0092 123.464L85.4463 123.633L85.3053 123.675C85.2947 123.679 85.2784 123.683 85.2735 123.685L85.2581 123.692L85.2271 123.703C85.1831 123.715 85.1497 123.737 85.1114 123.752C84.9754 123.829 84.8776 123.914 84.8084 124.036C84.6577 124.267 84.6528 124.669 84.8035 124.911C84.8727 125.038 84.968 125.125 85.0951 125.198C85.1131 125.205 85.1293 125.214 85.1465 125.223C85.1627 125.233 85.1839 125.237 85.2027 125.246L85.2304 125.258L85.2621 125.267L85.3346 125.29L85.9448 125.457C86.7554 125.688 87.5587 125.947 88.3538 126.229C89.1498 126.507 89.9327 126.824 90.7058 127.162C91.4805 127.497 92.2382 127.869 92.9877 128.255L93.5449 128.555C93.7307 128.655 93.9123 128.762 94.0956 128.866C94.4647 129.07 94.8223 129.294 95.1824 129.513C95.8953 129.963 96.5999 130.425 97.2777 130.926C98.6383 131.918 99.9319 132.999 101.132 134.172C101.429 134.469 101.731 134.76 102.016 135.067L102.448 135.522L102.87 135.988L103.078 136.223C103.146 136.303 103.213 136.383 103.279 136.463C103.414 136.624 103.546 136.786 103.677 136.949C103.93 137.283 104.185 137.613 104.418 137.961C104.893 138.65 105.315 139.376 105.685 140.127C105.871 140.502 106.04 140.887 106.193 141.279C106.231 141.377 106.268 141.475 106.303 141.575C106.339 141.675 106.374 141.773 106.407 141.874C106.472 142.076 106.533 142.279 106.585 142.487C106.416 142.354 106.255 142.217 106.099 142.078C105.94 141.941 105.784 141.803 105.632 141.663C105.323 141.387 105.028 141.105 104.729 140.828C104.137 140.271 103.561 139.713 102.987 139.161C102.705 138.881 102.413 138.612 102.134 138.331C101.991 138.195 101.847 138.058 101.707 137.92C101.636 137.851 101.566 137.782 101.496 137.712L101.281 137.509L100.855 137.099L100.419 136.7C100.132 136.43 99.8293 136.178 99.5336 135.919C99.3869 135.788 99.2322 135.667 99.0814 135.54L98.6269 135.166L98.1617 134.805C98.0053 134.686 97.8545 134.56 97.6949 134.446C97.0667 133.977 96.4256 133.525 95.7722 133.095C95.6085 132.988 95.4464 132.878 95.2802 132.774L94.7816 132.464C94.617 132.358 94.4484 132.26 94.2798 132.16C94.1111 132.062 93.9441 131.96 93.7747 131.863C93.0928 131.48 92.4076 131.104 91.7054 130.762C91.0048 130.418 90.2984 130.084 89.5758 129.788C89.3966 129.71 89.2149 129.639 89.0333 129.566C88.8516 129.495 88.6715 129.42 88.4882 129.353L87.9408 129.144L87.3892 128.947C86.652 128.69 85.9065 128.455 85.1546 128.243L84.59 128.088L84.4858 128.057L84.3717 128.022L84.2585 127.985L84.1452 127.94C84.0703 127.909 83.9945 127.882 83.9204 127.845C83.8462 127.808 83.7729 127.771 83.6996 127.733C83.4096 127.571 83.135 127.369 82.8931 127.131C82.6503 126.894 82.4466 126.619 82.2821 126.328C82.1183 126.035 81.9953 125.725 81.9146 125.407C81.8364 125.087 81.799 124.761 81.803 124.435C81.8079 124.11 81.8519 123.783 81.9407 123.465C82.0303 123.147 82.1623 122.839 82.3366 122.55C82.5102 122.263 82.7244 121.994 82.9745 121.767C83.223 121.538 83.5008 121.345 83.7925 121.195C83.9383 121.125 84.0866 121.053 84.2356 121.003L84.3481 120.963L84.4043 120.944L84.445 120.932L84.5957 120.887L85.2002 120.708C86.8133 120.237 88.4557 119.863 90.1168 119.59C91.7771 119.314 93.4561 119.14 95.1417 119.073L95.7739 119.055L96.09 119.046C96.1951 119.042 96.301 119.041 96.4061 119.043L97.6721 119.057C97.778 119.056 97.8831 119.062 97.9882 119.068L98.3042 119.085L98.9364 119.118C99.3584 119.134 99.7788 119.182 100.199 119.221L100.83 119.282L100.987 119.297L101.144 119.319L101.458 119.363C101.876 119.424 102.295 119.477 102.712 119.545L103.956 119.784L104.268 119.844C104.371 119.866 104.473 119.893 104.576 119.916L105.191 120.065C106.018 120.244 106.821 120.508 107.631 120.745C108.432 121.009 109.23 121.285 110.01 121.605C110.403 121.76 110.787 121.933 111.174 122.101C111.367 122.185 111.557 122.277 111.748 122.365C111.939 122.454 112.13 122.542 112.318 122.637C113.078 123.001 113.815 123.409 114.542 123.83C115.268 124.254 115.977 124.706 116.673 125.174C117.367 125.646 118.037 126.15 118.696 126.666C119.352 127.185 119.994 127.721 120.612 128.282C121.228 128.845 121.812 129.443 122.357 130.076C122.902 130.707 123.408 131.374 123.864 132.074C124.318 132.775 124.731 133.504 125.052 134.29Z" fill="black"/>
<g opacity="0.5">
<path d="M87.0264 125.833C86.5058 125.801 86.118 125.413 86.1001 124.991C86.0805 124.538 86.4968 124.249 86.5213 124.233C86.5213 124.233 100.833 119.148 115.617 128.428L124.651 133.804C124.651 133.804 121.257 129.435 114.955 125.713C114.955 125.713 102.104 118.307 87.8084 121.501C87.7522 121.514 86.5213 121.791 86.5213 121.791C86.5213 121.791 87.2333 121.631 87.8084 121.501C85.0768 122.141 83.4377 123.444 83.5738 124.317C83.6927 125.082 85.1982 125.669 87.0264 125.833Z" fill="white"/>
</g>
<path d="M125.052 134.29C124.698 134.053 124.364 133.806 124.032 133.56C123.7 133.315 123.377 133.064 123.054 132.818C122.412 132.322 121.776 131.83 121.149 131.337L119.271 129.874C118.648 129.387 118.012 128.919 117.361 128.473C116.711 128.027 116.049 127.6 115.373 127.197C114.7 126.792 114.016 126.405 113.319 126.045C111.922 125.332 110.497 124.679 109.026 124.15C108.295 123.874 107.552 123.631 106.805 123.403L105.676 123.094C105.302 122.981 104.92 122.901 104.541 122.813L103.97 122.681C103.875 122.659 103.78 122.635 103.685 122.616L103.398 122.564L102.247 122.355C101.862 122.294 101.475 122.246 101.09 122.19L100.8 122.149L100.655 122.129L100.51 122.115L99.9271 122.061C99.5385 122.025 99.1515 121.98 98.7613 121.968L98.1772 121.937L97.8847 121.921C97.7869 121.916 97.69 121.91 97.5922 121.911L96.4215 121.898C96.3238 121.895 96.226 121.897 96.1291 121.901L95.8366 121.909L95.2508 121.925C93.6899 121.987 92.1315 122.147 90.5868 122.403C89.0422 122.662 87.5131 123.019 86.0092 123.464L85.4463 123.633L85.3053 123.675C85.2947 123.679 85.2784 123.683 85.2735 123.685L85.2581 123.692L85.2271 123.703C85.1831 123.715 85.1497 123.737 85.1114 123.752C84.9754 123.829 84.8776 123.914 84.8084 124.036C84.6577 124.267 84.6528 124.669 84.8035 124.911C84.8727 125.038 84.968 125.125 85.0951 125.198C85.1131 125.205 85.1293 125.214 85.1465 125.223C85.1627 125.233 85.1839 125.237 85.2027 125.246L85.2304 125.258L85.2621 125.267L85.3346 125.29L85.9448 125.457C86.7554 125.688 87.5587 125.947 88.3538 126.229C89.1498 126.507 89.9327 126.824 90.7058 127.162C91.4805 127.497 92.2382 127.869 92.9877 128.255L93.5449 128.555C93.7307 128.655 93.9123 128.762 94.0956 128.866C94.4647 129.07 94.8223 129.294 95.1824 129.513C95.8953 129.963 96.5999 130.425 97.2777 130.926C98.6383 131.918 99.9319 132.999 101.132 134.172C101.429 134.469 101.731 134.76 102.016 135.067L102.448 135.522L102.87 135.988L103.078 136.223C103.146 136.303 103.213 136.383 103.279 136.463C103.414 136.624 103.546 136.786 103.677 136.949C103.93 137.283 104.185 137.613 104.418 137.961C104.893 138.65 105.315 139.376 105.685 140.127C105.871 140.502 106.04 140.887 106.193 141.279C106.231 141.377 106.268 141.475 106.303 141.575C106.339 141.675 106.374 141.773 106.407 141.874C106.472 142.076 106.533 142.279 106.585 142.487C106.416 142.354 106.255 142.217 106.099 142.078C105.94 141.941 105.784 141.803 105.632 141.663C105.323 141.387 105.028 141.105 104.729 140.828C104.137 140.271 103.561 139.713 102.987 139.161C102.705 138.881 102.413 138.612 102.134 138.331C101.991 138.195 101.847 138.058 101.707 137.92C101.636 137.851 101.566 137.782 101.496 137.712L101.281 137.509L100.855 137.099L100.419 136.7C100.132 136.43 99.8293 136.178 99.5336 135.919C99.3869 135.788 99.2322 135.667 99.0814 135.54L98.6269 135.166L98.1617 134.805C98.0053 134.686 97.8545 134.56 97.6949 134.446C97.0667 133.977 96.4256 133.525 95.7722 133.095C95.6085 132.988 95.4464 132.878 95.2802 132.774L94.7816 132.464C94.617 132.358 94.4484 132.26 94.2798 132.16C94.1111 132.062 93.9441 131.96 93.7747 131.863C93.0928 131.48 92.4076 131.104 91.7054 130.762C91.0048 130.418 90.2984 130.084 89.5758 129.788C89.3966 129.71 89.2149 129.639 89.0333 129.566C88.8516 129.495 88.6715 129.42 88.4882 129.353L87.9408 129.144L87.3892 128.947C86.652 128.69 85.9065 128.455 85.1546 128.243L84.59 128.088L84.4858 128.057L84.3717 128.022L84.2585 127.985L84.1452 127.94C84.0703 127.909 83.9945 127.882 83.9204 127.845C83.8462 127.808 83.7729 127.771 83.6996 127.733C83.4096 127.571 83.135 127.369 82.8931 127.131C82.6503 126.894 82.4466 126.619 82.2821 126.328C82.1183 126.035 81.9953 125.725 81.9146 125.407C81.8364 125.087 81.799 124.761 81.803 124.435C81.8079 124.11 81.8519 123.783 81.9407 123.465C82.0303 123.147 82.1623 122.839 82.3366 122.55C82.5102 122.263 82.7244 121.994 82.9745 121.767C83.223 121.538 83.5008 121.345 83.7925 121.195C83.9383 121.125 84.0866 121.053 84.2356 121.003L84.3481 120.963L84.4043 120.944L84.445 120.932L84.5957 120.887L85.2002 120.708C86.8133 120.237 88.4557 119.863 90.1168 119.59C91.7771 119.314 93.4561 119.14 95.1417 119.073L95.7739 119.055L96.09 119.046C96.1951 119.042 96.301 119.041 96.4061 119.043L97.6721 119.057C97.778 119.056 97.8831 119.062 97.9882 119.068L98.3042 119.085L98.9364 119.118C99.3584 119.134 99.7788 119.182 100.199 119.221L100.83 119.282L100.987 119.297L101.144 119.319L101.458 119.363C101.876 119.424 102.295 119.477 102.712 119.545L103.956 119.784L104.268 119.844C104.371 119.866 104.473 119.893 104.576 119.916L105.191 120.065C106.018 120.244 106.821 120.508 107.631 120.745C108.432 121.009 109.23 121.285 110.01 121.605C110.403 121.76 110.787 121.933 111.174 122.101C111.367 122.185 111.557 122.277 111.748 122.365C111.939 122.454 112.13 122.542 112.318 122.637C113.078 123.001 113.815 123.409 114.542 123.83C115.268 124.254 115.977 124.706 116.673 125.174C117.367 125.646 118.037 126.15 118.696 126.666C119.352 127.185 119.994 127.721 120.612 128.282C121.228 128.845 121.812 129.443 122.357 130.076C122.902 130.707 123.408 131.374 123.864 132.074C124.318 132.775 124.731 133.504 125.052 134.29Z" fill="black"/>
<g opacity="0.25">
<path d="M162.526 123.667C158.35 125.846 151.625 128.476 143.3 128.148C133.414 127.758 119.304 123.117 113.811 111.124C111.777 106.682 111.483 102.452 111.556 99.6108C113.41 103.771 117.307 110.866 124.97 116.579C140.828 128.405 159.48 124.377 162.526 123.667Z" fill="black"/>
</g>
<path d="M124.312 149.647C129.732 153.496 137.267 151.953 140.761 146.296C147.064 136.089 149.095 126.28 145.309 119.546C143.71 116.701 139.404 111.481 134.463 112.23C130.458 112.837 127.032 116.863 126.218 123.69C126.153 124.237 126.067 124.78 125.95 125.318C125.28 128.383 124.045 132.36 121.677 136.589C121.615 136.699 121.553 136.809 121.491 136.918C119.018 141.237 120.195 146.722 124.253 149.604L124.312 149.647Z" fill="white"/>
<path d="M130.92 153.2C128.275 153.2 125.704 152.384 123.487 150.811L123.428 150.769C121.176 149.169 119.613 146.803 119.029 144.104C118.445 141.412 118.879 138.609 120.252 136.211C120.312 136.105 120.373 135.999 120.432 135.893C122.331 132.502 123.719 128.842 124.556 125.014C124.656 124.557 124.736 124.069 124.801 123.523C125.218 120.024 126.326 116.998 128.005 114.771C129.676 112.553 131.835 111.188 134.249 110.822C139.915 109.962 144.648 115.463 146.551 118.848C148.569 122.437 149.131 126.818 148.222 131.872C147.369 136.608 145.268 141.713 141.974 147.046C140.072 150.126 137.073 152.218 133.529 152.936C132.658 153.113 131.785 153.2 130.92 153.2ZM135.403 113.586C135.161 113.586 134.919 113.604 134.676 113.641C133.015 113.892 131.495 114.876 130.282 116.487C128.906 118.312 127.99 120.862 127.632 123.861C127.556 124.5 127.461 125.077 127.341 125.624C126.443 129.726 124.955 133.651 122.919 137.287C122.854 137.402 122.79 137.516 122.725 137.629C120.602 141.335 121.614 145.986 125.076 148.443L125.135 148.486C127.427 150.113 130.206 150.702 132.96 150.143C135.724 149.582 138.063 147.951 139.546 145.549C142.651 140.522 144.625 135.75 145.413 131.368C146.202 126.983 145.748 123.242 144.064 120.246C142.5 117.459 138.995 113.586 135.403 113.586Z" fill="black"/>
<path d="M142.265 113.552L142.281 113.586L142.292 113.609L142.312 113.655L142.346 113.74C142.366 113.794 142.388 113.85 142.406 113.903C142.445 114.01 142.48 114.115 142.514 114.22C142.581 114.43 142.639 114.639 142.693 114.848C142.799 115.267 142.882 115.687 142.941 116.11C143.058 116.955 143.086 117.81 142.986 118.649C142.938 119.068 142.862 119.481 142.747 119.882C142.635 120.283 142.496 120.673 142.316 121.041L142.25 121.178C142.228 121.224 142.202 121.268 142.178 121.313L142.031 121.578C141.921 121.748 141.822 121.921 141.699 122.079C141.472 122.404 141.2 122.694 140.93 122.968C141.106 122.622 141.27 122.277 141.382 121.915C141.448 121.739 141.486 121.553 141.537 121.376L141.591 121.103C141.6 121.057 141.61 121.013 141.617 120.967L141.635 120.831C141.688 120.468 141.7 120.104 141.687 119.746C141.676 119.389 141.63 119.034 141.56 118.687C141.425 117.994 141.187 117.327 140.884 116.7C140.733 116.386 140.564 116.083 140.382 115.792C140.29 115.647 140.196 115.504 140.098 115.369C140.049 115.301 140 115.235 139.951 115.172C139.926 115.139 139.902 115.111 139.877 115.081L139.842 115.04C139.836 115.033 139.832 115.029 139.827 115.024L139.82 115.016C139.818 115.015 139.819 115.018 139.818 115.019L142.265 113.552Z" fill="black"/>
<path d="M135.946 111.602L135.962 111.635L135.973 111.659L135.992 111.704L136.026 111.789C136.047 111.844 136.069 111.899 136.087 111.952C136.126 112.059 136.161 112.165 136.194 112.27C136.262 112.48 136.32 112.688 136.373 112.898C136.479 113.316 136.562 113.737 136.621 114.16C136.738 115.004 136.766 115.859 136.667 116.698C136.619 117.117 136.543 117.53 136.428 117.932C136.316 118.332 136.176 118.723 135.996 119.09L135.931 119.228C135.909 119.273 135.883 119.317 135.858 119.362L135.712 119.628C135.601 119.797 135.502 119.971 135.379 120.129C135.152 120.455 134.881 120.744 134.61 121.018C134.786 120.672 134.951 120.327 135.063 119.965C135.129 119.789 135.167 119.603 135.217 119.426L135.271 119.153C135.279 119.107 135.29 119.063 135.296 119.018L135.314 118.881C135.368 118.518 135.379 118.154 135.366 117.796C135.356 117.439 135.309 117.084 135.24 116.737C135.105 116.044 134.866 115.378 134.564 114.75C134.412 114.437 134.244 114.133 134.061 113.842C133.969 113.697 133.876 113.554 133.778 113.419C133.729 113.351 133.68 113.285 133.63 113.222C133.606 113.189 133.581 113.161 133.557 113.131L133.522 113.09C133.515 113.083 133.511 113.079 133.507 113.074L133.499 113.066C133.498 113.066 133.498 113.068 133.498 113.069L135.946 111.602Z" fill="black"/>
<path d="M72.1437 148.506C67.2394 152.994 59.5708 152.392 55.407 147.211C47.8925 137.86 44.6672 128.375 47.5935 121.226C48.8294 118.205 52.4587 112.494 57.4543 112.628C61.5032 112.736 65.4006 116.308 67.0503 122.983C67.1823 123.518 67.3347 124.046 67.5172 124.565C68.5607 127.524 70.2765 131.319 73.1482 135.223C73.2231 135.325 73.2989 135.426 73.3738 135.527C76.3604 139.508 75.8692 145.097 72.1974 148.457L72.1437 148.506Z" fill="white"/>
<path d="M64.419 152.946C64.0817 152.946 63.7428 152.933 63.4022 152.907C59.7965 152.631 56.5622 150.925 54.295 148.104C50.3691 143.218 47.653 138.411 46.2232 133.816C44.6973 128.914 44.7145 124.496 46.2729 120.686C47.7255 117.137 51.662 111.2 57.2775 111.2C57.3484 111.2 57.4193 111.201 57.491 111.203C59.9309 111.269 62.2421 112.358 64.1746 114.352C66.1151 116.355 67.5872 119.221 68.4329 122.642C68.5648 123.177 68.705 123.651 68.8606 124.092C70.1632 127.787 71.9922 131.248 74.2961 134.379C74.3686 134.478 74.4411 134.576 74.5136 134.673C76.1714 136.883 76.9486 139.611 76.7018 142.354C76.4541 145.105 75.1963 147.646 73.1596 149.51L73.105 149.56C70.6968 151.763 67.6442 152.946 64.419 152.946ZM57.2881 114.052C53.4624 114.052 50.1907 118.643 48.9125 121.766C47.6106 124.946 47.622 128.716 48.9459 132.969C50.2689 137.221 52.8164 141.712 56.5183 146.318C58.2869 148.518 60.8091 149.849 63.6206 150.064C66.423 150.278 69.1082 149.352 71.1816 147.455L71.2353 147.405C74.3678 144.538 74.7971 139.799 72.2333 136.383C72.1551 136.278 72.0777 136.174 71.9995 136.068C69.5294 132.71 67.5685 129 66.1721 125.04C65.9856 124.511 65.8202 123.95 65.6654 123.326C64.9403 120.394 63.7167 117.977 62.1273 116.336C60.7244 114.888 59.0951 114.099 57.4152 114.054C57.3728 114.052 57.3297 114.052 57.2881 114.052Z" fill="black"/>
<g opacity="0.25">
<path d="M54.9746 144.447C55.5986 145.227 57.6475 147.589 60.6472 147.738C65.0228 147.955 67.7487 143.701 68.2562 142.9C72.1528 136.75 67.8921 129.008 67.6583 128.597C72.9479 132.698 75.1557 139.064 73.2868 144.227C72.1805 147.283 68.8974 151.955 63.7682 151.775C60.1315 151.647 56.7042 148.726 54.9746 144.447Z" fill="black"/>
<path d="M64.0489 151.821C63.9552 151.821 63.8607 151.819 63.767 151.816C60.1572 151.689 56.6916 148.802 54.9368 144.462L54.8325 144.203L55.0069 144.421C55.938 145.586 57.9095 147.561 60.6501 147.697C60.7576 147.702 60.8644 147.705 60.9695 147.705C64.7479 147.705 67.2897 144.352 68.2233 142.878C72.1411 136.694 67.8103 128.944 67.6245 128.617L67.5235 128.439L67.6848 128.565C70.273 130.571 72.1785 133.143 73.1969 136C74.2071 138.835 74.2519 141.685 73.3272 144.241C73.0128 145.109 72.0661 147.336 70.0661 149.245C68.295 150.933 66.22 151.821 64.0489 151.821ZM55.1168 144.685C56.8904 148.854 60.2623 151.61 63.7695 151.734C69.0486 151.922 72.2779 146.896 73.2482 144.213C75.1277 139.02 72.9346 132.83 67.7891 128.751C68.4482 129.986 71.9586 137.131 68.2901 142.922C67.3231 144.449 64.6428 147.979 60.6444 147.778C58.0342 147.649 56.1165 145.873 55.1168 144.685Z" fill="black"/>
</g>
<g opacity="0.25">
<path d="M141.329 142.874C140.959 143.755 139.693 146.459 136.964 147.364C132.982 148.685 129.34 145.456 128.66 144.846C123.435 140.164 125.319 131.926 125.426 131.487C124.872 131.869 120.576 134.937 120.286 140.327C120.247 141.074 120.124 144.817 122.731 147.904C123.632 148.973 124.533 149.573 125.093 149.94C126.291 150.727 130.656 153.59 135.152 151.891C138.6 150.587 141.003 147.022 141.329 142.874Z" fill="black"/>
<path d="M132.2 152.467C129.986 152.467 127.599 151.634 125.07 149.974C124.564 149.643 123.623 149.025 122.698 147.93C120.201 144.972 120.189 141.361 120.244 140.325C120.527 135.071 124.59 132.013 125.402 131.454L125.49 131.393L125.465 131.497C125.379 131.846 123.433 140.109 128.686 144.815C129.972 145.968 133.352 148.519 136.95 147.326C139.442 146.499 140.739 144.172 141.291 142.858L141.388 142.624L141.369 142.877C141.04 147.076 138.604 150.629 135.165 151.929C134.216 152.287 133.227 152.467 132.2 152.467ZM125.362 131.582C124.389 132.272 120.598 135.28 120.327 140.329C120.271 141.358 120.283 144.941 122.761 147.877C123.677 148.963 124.613 149.576 125.114 149.905C128.794 152.319 132.166 152.974 135.137 151.851C138.478 150.589 140.864 147.178 141.266 143.121C140.66 144.474 139.359 146.612 136.977 147.403C133.339 148.609 129.93 146.037 128.633 144.875C123.597 140.365 125.129 132.617 125.362 131.582Z" fill="black"/>
</g>
<path d="M49.8431 115.065L49.8309 115.101L49.8235 115.126L49.8097 115.174L49.7861 115.263C49.7722 115.319 49.7575 115.377 49.7461 115.431C49.7209 115.542 49.6989 115.651 49.6785 115.76C49.637 115.976 49.606 116.191 49.5775 116.406C49.5237 116.834 49.4936 117.262 49.4871 117.689C49.4748 118.542 49.5531 119.393 49.7551 120.213C49.8537 120.623 49.9808 121.024 50.1445 121.408C50.305 121.791 50.4924 122.161 50.7156 122.503L50.7971 122.632C50.8248 122.674 50.8557 122.715 50.8851 122.757L51.0635 123.002C51.1946 123.157 51.3136 123.316 51.4553 123.457C51.7209 123.753 52.0256 124.006 52.3278 124.245C52.1103 123.923 51.905 123.601 51.7494 123.256C51.6622 123.09 51.6012 122.91 51.5295 122.74L51.4423 122.477C51.4284 122.433 51.4121 122.389 51.4007 122.345L51.3657 122.212C51.2671 121.859 51.2109 121.499 51.18 121.142C51.1466 120.785 51.1482 120.428 51.1743 120.076C51.2231 119.371 51.3779 118.68 51.6003 118.02C51.7119 117.69 51.8423 117.368 51.9865 117.057C52.0598 116.902 52.1348 116.749 52.2154 116.602C52.2553 116.529 52.2961 116.456 52.3368 116.388C52.3572 116.353 52.3775 116.321 52.3979 116.287L52.428 116.243C52.4329 116.235 52.437 116.23 52.4419 116.224L52.4484 116.216C52.45 116.214 52.45 116.217 52.45 116.218L49.8431 115.065Z" fill="black"/>
<path d="M55.9036 112.186L55.8914 112.222L55.8841 112.246L55.8702 112.294L55.8466 112.383C55.8328 112.439 55.8181 112.497 55.8067 112.552C55.7814 112.663 55.7594 112.772 55.7391 112.88C55.6975 113.097 55.6666 113.312 55.638 113.526C55.5843 113.955 55.5541 114.382 55.5476 114.809C55.5354 115.662 55.6136 116.514 55.8156 117.334C55.9142 117.744 56.0413 118.145 56.2042 118.528C56.3647 118.912 56.5521 119.282 56.7753 119.624L56.8568 119.753C56.8845 119.795 56.9155 119.836 56.9448 119.877L57.1232 120.123C57.2544 120.277 57.3733 120.437 57.5151 120.578C57.7806 120.874 58.0853 121.126 58.3876 121.366C58.17 121.043 57.9648 120.721 57.8091 120.377C57.722 120.211 57.6609 120.031 57.5892 119.861L57.502 119.597C57.4882 119.553 57.4719 119.51 57.4605 119.466L57.4254 119.332C57.3269 118.98 57.2707 118.619 57.2397 118.263C57.2063 117.906 57.2079 117.549 57.234 117.196C57.2829 116.492 57.4377 115.801 57.6601 115.141C57.7717 114.811 57.902 114.488 58.0462 114.177C58.1195 114.022 58.1945 113.869 58.2751 113.722C58.3151 113.649 58.3558 113.577 58.3965 113.508C58.4169 113.473 58.4373 113.441 58.4576 113.408L58.4878 113.363C58.4927 113.355 58.4967 113.351 58.5016 113.344L58.5081 113.336C58.5098 113.335 58.5098 113.338 58.5098 113.339L55.9036 112.186Z" fill="black"/>
<g opacity="0.25">
<path d="M21.7917 125.746C21.7917 125.746 14.3374 138.007 12.5712 147.004C12.4156 147.797 13.3215 148.363 13.9643 147.872C17.3012 145.325 24.7546 139.18 29.1816 132.019C30.5005 129.885 32.9812 128.765 35.4521 129.195L36.7002 129.412L30.6325 137.151C30.6325 137.151 8.59397 160.859 7.94223 151.49C7.29049 142.121 21.7917 125.746 21.7917 125.746Z" fill="black"/>
</g>
<g opacity="0.25">
<path d="M64.9287 116.661C65.4167 116.695 66.198 116.811 67.0469 117.231C67.0469 117.231 67.7491 117.579 68.3503 118.127C69.9748 119.609 70.8995 123.581 70.9573 123.83C71.8347 127.576 74.0449 131.155 76.5785 133.28C78.3969 134.805 80.137 135.375 82.4442 136.131C82.8556 136.266 91.0944 138.912 92.3775 136.658C93.1368 135.324 91.1286 132.856 90.3465 131.895C88.1477 129.193 85.3452 128.1 83.9106 127.659C85.7949 127.885 88.6007 128.33 91.8944 129.288C97.5613 130.937 100.544 132.904 103.265 134.037C107.13 135.645 113.181 136.695 122.526 133.769C122.526 133.769 117.087 140.645 121.355 145.558C121.355 145.558 90.942 147.155 75.451 138.548C73.4852 136.052 71.2546 132.783 69.2465 128.718C67.0029 124.175 65.7051 119.991 64.9287 116.661Z" fill="black"/>
</g>
<g opacity="0.25">
<path d="M114.298 113.892C114.298 113.892 109.98 120.49 121.874 130.104C121.874 130.104 110 120.67 99.0732 120.702L114.298 113.892Z" fill="black"/>
</g>
<g opacity="0.25">
<path d="M60.9219 150.986C60.9219 150.986 71.9648 159.386 78.4284 146.529C78.795 145.799 79.617 145.422 80.4064 145.629C85.7173 147.022 105.139 151.769 118.035 150.328C118.542 150.271 119.048 150.448 119.415 150.803C121.53 152.858 129.4 159.19 137.867 149.469C137.867 149.469 123.656 155.676 120.606 144.519C120.606 144.519 92.7903 146.315 75.4377 138.576C75.5632 139.144 76.5832 144.174 73.1566 148.107C70.2588 151.434 65.3741 152.604 60.9219 150.986Z" fill="black"/>
</g>
<path d="M164.776 94.944C167.286 94.8926 169.27 92.3419 169.206 89.247C169.143 86.1521 167.056 83.6849 164.546 83.7364C162.035 83.7879 160.051 86.3385 160.115 89.4334C160.178 92.5283 162.265 94.9955 164.776 94.944Z" fill="black"/>
<path d="M161.386 89.3895C161.408 90.473 162.014 91.3398 162.738 91.3252C163.462 91.3105 164.031 90.4201 164.009 89.3358C163.987 88.2522 163.382 87.3854 162.657 87.4001C161.933 87.4147 161.364 88.3052 161.386 89.3895Z" fill="white"/>
<path d="M143.22 89.1381C143.244 86.0426 141.228 83.5171 138.717 83.4973C136.206 83.4775 134.151 85.9709 134.126 89.0665C134.102 92.162 136.118 94.6874 138.629 94.7072C141.14 94.727 143.195 92.2337 143.22 89.1381Z" fill="black"/>
<path d="M142.031 88.8613C142.039 87.7774 141.459 86.8941 140.735 86.8884C140.01 86.8827 139.416 87.7568 139.408 88.8407C139.399 89.9246 139.979 90.8078 140.704 90.8136C141.428 90.8193 142.022 89.9452 142.031 88.8613Z" fill="white"/>
<path d="M155.878 96.755C156.177 98.1538 153.552 100.595 150.87 100.505C148.382 100.421 145.981 98.1611 146.278 96.7973C146.623 95.2169 150.541 95.0702 150.822 95.0613C152.489 95.0124 155.585 95.3855 155.878 96.755Z" fill="black"/>
<path d="M155.406 98.4883C155.911 97.8529 156.13 97.2256 156.022 96.7221C155.68 95.1189 152.149 94.8696 150.818 94.9079C150.377 94.9209 146.501 95.083 146.134 96.7637C146.03 97.2411 146.216 97.8317 146.656 98.4264C147.421 99.4594 149.065 100.598 150.865 100.659C150.929 100.662 150.992 100.663 151.056 100.662C152.868 100.646 154.569 99.5417 155.406 98.4883ZM155.734 96.7889C155.82 97.1914 155.617 97.7397 155.178 98.292C154.356 99.3266 152.658 100.413 150.874 100.352C149.17 100.294 147.614 99.2158 146.889 98.2382C146.504 97.7177 146.338 97.2183 146.422 96.8321C146.68 95.6484 149.415 95.2573 150.825 95.2158C150.896 95.2134 150.967 95.2125 151.04 95.2117C152.916 95.1954 155.492 95.6565 155.734 96.7889Z" fill="black"/>
<path d="M153.164 96.2604C153.191 96.5065 152.119 96.9537 151.041 96.9488C149.977 96.9439 148.92 96.4983 148.947 96.2555C148.98 95.946 150.77 95.9443 151.032 95.9443C151.256 95.9443 153.129 95.9427 153.164 96.2604Z" fill="white"/>
<path d="M150.203 97.8371L150.197 97.974C150.195 98.0155 150.195 98.0571 150.195 98.097C150.194 98.1785 150.195 98.2575 150.197 98.3373C150.202 98.4954 150.211 98.6534 150.226 98.8106C150.239 98.9679 150.259 99.1243 150.282 99.2807L150.319 99.5153L150.366 99.7492C150.497 100.371 150.698 100.989 151 101.581C151.148 101.876 151.327 102.163 151.525 102.438L151.683 102.64L151.763 102.74L151.849 102.836C151.907 102.899 151.965 102.964 152.024 103.027C152.084 103.088 152.15 103.146 152.213 103.206C152.465 103.445 152.749 103.651 153.047 103.835C153.122 103.88 153.2 103.919 153.277 103.96C153.354 104 153.43 104.044 153.509 104.079L153.748 104.181C153.828 104.214 153.907 104.251 153.99 104.274L154.236 104.35L154.359 104.388C154.4 104.4 154.442 104.407 154.483 104.417L154.732 104.472L154.856 104.498C154.898 104.506 154.939 104.51 154.981 104.516C155.064 104.527 155.147 104.537 155.229 104.547C155.312 104.556 155.396 104.569 155.477 104.57C155.642 104.575 155.806 104.584 155.969 104.586C156.131 104.579 156.292 104.574 156.454 104.566C156.535 104.565 156.612 104.551 156.691 104.542L156.925 104.513L157.043 104.499L157.101 104.491L157.141 104.486L157.184 104.478C157.286 104.46 157.37 104.439 157.457 104.416C157.629 104.37 157.794 104.315 157.954 104.248C158.273 104.115 158.573 103.937 158.842 103.718C159.109 103.499 159.344 103.24 159.525 102.951C159.887 102.372 160.038 101.698 159.921 101.075C159.719 101.321 159.534 101.546 159.337 101.739C159.141 101.932 158.94 102.096 158.735 102.236C158.326 102.513 157.894 102.697 157.446 102.818C157.334 102.847 157.222 102.874 157.113 102.891C157.06 102.9 157.003 102.907 156.962 102.909C156.956 102.91 156.953 102.909 156.951 102.909C156.947 102.909 156.952 102.908 156.949 102.908H156.937L156.888 102.909L156.789 102.912L156.593 102.917C156.528 102.917 156.462 102.923 156.399 102.917C156.272 102.911 156.146 102.907 156.02 102.903C155.895 102.891 155.773 102.873 155.65 102.86C155.588 102.856 155.529 102.84 155.47 102.829C155.41 102.816 155.351 102.804 155.291 102.794C155.262 102.788 155.231 102.784 155.202 102.776L155.117 102.751L154.946 102.704C154.917 102.696 154.888 102.69 154.861 102.68L154.78 102.648L154.616 102.587C154.184 102.418 153.804 102.166 153.472 101.852C153.431 101.812 153.388 101.774 153.348 101.732C153.31 101.688 153.271 101.647 153.232 101.603L153.172 101.54L153.118 101.471L153.008 101.333C152.872 101.139 152.733 100.943 152.62 100.724C152.559 100.618 152.506 100.506 152.45 100.395C152.422 100.34 152.4 100.281 152.374 100.224C152.349 100.166 152.323 100.11 152.301 100.05C152.202 99.8168 152.123 99.5724 152.045 99.3255C151.969 99.0779 151.906 98.8237 151.85 98.5679C151.822 98.44 151.797 98.3112 151.773 98.1833L151.713 97.8208L151.7 97.741C151.633 97.3304 151.244 97.0518 150.833 97.1202C150.473 97.1821 150.216 97.4868 150.203 97.8371Z" fill="black"/>
<path d="M150.204 97.8913L150.145 98.2522C150.122 98.3793 150.098 98.5072 150.072 98.6343C150.045 98.7614 150.016 98.8877 149.986 99.0131C149.954 99.1386 149.92 99.2632 149.885 99.3863C149.869 99.4482 149.849 99.5085 149.83 99.5696C149.81 99.6298 149.792 99.6918 149.771 99.7512L149.71 99.9305L149.643 100.106C149.621 100.164 149.598 100.222 149.573 100.278L149.5 100.449C149.445 100.559 149.397 100.673 149.339 100.777C149.233 100.995 149.1 101.19 148.971 101.384C148.938 101.431 148.901 101.475 148.867 101.522C148.832 101.567 148.799 101.614 148.76 101.655C148.685 101.739 148.613 101.827 148.531 101.903C148.491 101.942 148.454 101.983 148.413 102.02L148.287 102.127L148.224 102.181C148.203 102.199 148.179 102.212 148.157 102.229C148.113 102.26 148.068 102.292 148.025 102.326C147.982 102.361 147.932 102.384 147.886 102.414L147.746 102.501L147.597 102.573C147.546 102.596 147.499 102.625 147.447 102.645C147.038 102.825 146.58 102.928 146.096 102.979L145.727 102.999C145.666 103.006 145.602 103 145.538 103L145.347 102.998L145.251 102.997H145.203C145.196 102.997 145.182 102.997 145.188 102.998C145.186 102.998 145.185 102.999 145.18 102.998C145.144 102.997 145.09 102.99 145.04 102.984C144.936 102.97 144.828 102.947 144.721 102.918C144.293 102.798 143.884 102.628 143.48 102.373C143.277 102.245 143.075 102.093 142.869 101.913L142.715 101.772L142.56 101.62C142.51 101.567 142.456 101.513 142.402 101.458C142.349 101.402 142.296 101.345 142.235 101.287C142.08 101.917 142.217 102.605 142.58 103.193C142.76 103.488 143.001 103.75 143.273 103.97C143.547 104.189 143.854 104.363 144.18 104.49C144.343 104.555 144.51 104.609 144.685 104.654C144.774 104.677 144.86 104.696 144.966 104.713L145.011 104.719L145.05 104.723L145.109 104.73L145.226 104.742L145.462 104.766C145.541 104.774 145.618 104.783 145.7 104.783L146.186 104.793C146.84 104.782 147.518 104.669 148.167 104.42C148.249 104.392 148.327 104.351 148.407 104.316L148.645 104.206L148.874 104.076C148.948 104.032 149.028 103.992 149.098 103.94C149.171 103.891 149.243 103.84 149.314 103.79C149.349 103.763 149.387 103.74 149.42 103.712L149.521 103.628L149.722 103.459C149.786 103.4 149.846 103.338 149.909 103.277C150.159 103.034 150.368 102.761 150.564 102.484C150.61 102.413 150.655 102.342 150.7 102.27L150.767 102.163L150.827 102.053L150.946 101.833L151.053 101.61C151.089 101.535 151.122 101.46 151.151 101.385L151.243 101.157C151.27 101.082 151.296 101.005 151.323 100.928L151.363 100.814L151.397 100.699C151.492 100.392 151.561 100.082 151.616 99.7716L151.654 99.5386L151.683 99.3056C151.7 99.15 151.715 98.9944 151.723 98.8388C151.733 98.6832 151.736 98.5268 151.736 98.3695C151.735 98.2905 151.734 98.2123 151.731 98.1317C151.73 98.0917 151.727 98.0518 151.724 98.0103L151.714 97.875C151.685 97.4596 151.324 97.1459 150.909 97.1752C150.553 97.2005 150.272 97.4685 150.217 97.8058L150.204 97.8913Z" fill="black"/>
<g opacity="0.25">
<path d="M186.967 90.2651C186.58 92.1975 186.012 93.9295 185.338 95.479C182.596 101.779 177.597 106.213 172.209 109.325C159.329 116.765 143.519 116.935 130.33 110.058C124.481 107.007 119.228 102.575 117.475 96.2123C117.009 94.5218 116.749 92.5487 116.904 90.2651C116.904 90.2651 96.737 114.792 151.913 124.688C173.62 121.917 188.63 111.452 189.573 100.204C189.765 97.9304 189.472 94.5405 186.967 90.2651Z" fill="black"/>
</g>
<path d="M77.9052 57.8071C81.5211 57.7344 84.3812 54.1382 84.2934 49.7747C84.2057 45.4113 81.2034 41.9329 77.5876 42.0056C73.9717 42.0783 71.1116 45.6745 71.1994 50.038C71.2871 54.4014 74.2894 57.8798 77.9052 57.8071Z" fill="black"/>
<path d="M112.248 53.8491C113.267 53.8286 114.071 52.6721 114.043 51.2659C114.015 49.8597 113.165 48.7363 112.145 48.7568C111.126 48.7773 110.322 49.9339 110.35 51.3401C110.378 52.7463 111.228 53.8696 112.248 53.8491Z" fill="white"/>
<path d="M114.788 57.1419C118.404 57.1175 121.312 53.5598 121.283 49.1954C121.253 44.8311 118.298 41.3129 114.681 41.3372C111.065 41.3616 108.157 44.9193 108.186 49.2837C108.215 53.648 111.171 57.1663 114.788 57.1419Z" fill="black"/>
<path d="M112.229 51.6907C113.249 51.6838 114.068 50.4516 114.057 48.9385C114.047 47.4254 113.212 46.2043 112.192 46.2112C111.172 46.2181 110.353 47.4503 110.364 48.9634C110.374 50.4765 111.209 51.6976 112.229 51.6907Z" fill="white"/>
<path d="M80.4761 52.1814C81.4961 52.1745 82.3147 50.9423 82.3045 49.4292C82.2943 47.9161 81.4591 46.695 80.4391 46.7019C79.4191 46.7088 78.6006 47.941 78.6107 49.4541C78.6209 50.9672 79.4561 52.1883 80.4761 52.1814Z" fill="white"/>
<path d="M79.8174 82.9202C79.8174 82.9202 80.8553 75.6704 85.7384 73.883C86.3527 73.6582 88.7544 72.9551 91.1332 74.0525C91.7931 74.3572 93.3247 75.0635 93.5234 76.301C93.7393 77.646 92.2143 78.5796 90.6151 80.5348C89.5984 81.778 88.3674 83.6599 87.481 86.4306C86.4097 86.1952 85.1152 85.818 83.7099 85.1972C82.0838 84.4787 80.7868 83.6453 79.8174 82.9202Z" fill="#FC3D98"/>
<path d="M79.0269 83.2481C78.9845 83.1413 78.9609 83.0126 78.9642 82.8912C78.9634 82.8375 78.978 82.7454 78.9756 82.7674L78.9772 82.7585L78.9829 82.7226L78.9943 82.6534L79.0179 82.5189C79.0334 82.4301 79.0513 82.343 79.0684 82.2558C79.1043 82.0823 79.1418 81.9096 79.1817 81.7377C79.2623 81.3947 79.3511 81.055 79.4513 80.7177C79.6493 80.0432 79.8864 79.3792 80.1634 78.7275C80.4436 78.0765 80.7662 77.4386 81.145 76.826C81.5247 76.2142 81.9565 75.6235 82.4664 75.0875C82.9748 74.5514 83.5565 74.0667 84.2066 73.6765L84.451 73.5315L84.706 73.4027C84.7915 73.3612 84.8754 73.3164 84.9626 73.2773L85.2266 73.1681C85.3162 73.1331 85.4001 73.0948 85.4946 73.0622C85.5891 73.028 85.6803 73.0003 85.7708 72.9718C85.862 72.9441 85.9516 72.9196 86.0429 72.8944L86.3141 72.8276C87.0384 72.663 87.7789 72.5864 88.5276 72.6027C89.2755 72.6223 90.0299 72.7486 90.7517 72.9889C90.8413 73.0199 90.9333 73.0459 91.0213 73.0818L91.2853 73.1909L91.4173 73.2463L91.4832 73.274L91.5419 73.3009L91.7822 73.4142C92.1081 73.5714 92.4405 73.7498 92.7647 73.9681C93.0882 74.1865 93.4091 74.4439 93.6975 74.7795C93.8409 74.9474 93.9753 75.1356 94.0878 75.3474C94.201 75.5584 94.2898 75.7946 94.3419 76.0423C94.3941 76.2883 94.4112 76.5523 94.3827 76.8113C94.355 77.0704 94.2849 77.3164 94.1937 77.534C94.1024 77.7523 93.9933 77.9437 93.8792 78.1173C93.7651 78.29 93.6462 78.4472 93.5265 78.593C93.2869 78.8847 93.0466 79.1405 92.812 79.389C92.5765 79.6366 92.3468 79.8753 92.1236 80.114C91.6771 80.5914 91.2633 81.0721 90.882 81.5813C90.6906 81.8354 90.5097 82.0969 90.3329 82.3617C90.1602 82.6289 89.9899 82.8986 89.8327 83.1764C89.194 84.2811 88.6881 85.4672 88.2946 86.6933V86.6941L88.0494 87.4274L87.2966 87.2685C86.9357 87.1927 86.5765 87.1072 86.2196 87.0127C85.8628 86.9165 85.5093 86.8106 85.1581 86.695C84.4567 86.4628 83.7683 86.1923 83.0962 85.8852C82.4257 85.5748 81.7691 85.2334 81.1361 84.8522C80.82 84.6615 80.508 84.4636 80.2025 84.2558C80.0501 84.1524 79.8986 84.0456 79.7495 83.9381C79.6746 83.8843 79.6004 83.8289 79.5263 83.7743L79.4986 83.754C79.4766 83.7377 79.4481 83.7157 79.4228 83.6953C79.3715 83.6538 79.321 83.6082 79.2737 83.5601C79.1784 83.4599 79.0945 83.3532 79.0269 83.2481ZM80.6074 82.5931C80.6106 82.5401 80.5984 82.4864 80.5748 82.4424C80.5626 82.4204 80.5479 82.4016 80.5324 82.3853C80.5251 82.378 80.5145 82.369 80.5104 82.3658L80.5365 82.3837C80.6057 82.4326 80.6742 82.4823 80.7442 82.5295C80.8835 82.6257 81.0237 82.721 81.1654 82.813C81.4481 82.9996 81.7357 83.178 82.0273 83.3499C82.6106 83.6929 83.2111 84.0065 83.8269 84.2876C84.4412 84.5711 85.0718 84.8196 85.7121 85.0379C86.0323 85.1471 86.3557 85.2481 86.6816 85.3402C87.0066 85.4338 87.3349 85.5186 87.6649 85.5952L86.6669 86.1703V86.1695C87.0938 84.8399 87.647 83.5414 88.3525 82.3202C88.526 82.0138 88.715 81.7149 88.9064 81.4191C89.102 81.125 89.304 80.835 89.5158 80.5523C89.9394 79.9869 90.4038 79.4484 90.8747 78.9458C91.1093 78.6941 91.3456 78.4488 91.5729 78.2101C91.7993 77.9714 92.0177 77.7368 92.2042 77.5087C92.3908 77.2822 92.5407 77.059 92.6165 76.8749C92.6914 76.6883 92.7028 76.5629 92.6702 76.3959C92.6385 76.2354 92.5488 76.0651 92.3981 75.8891C92.249 75.714 92.0454 75.5429 91.8124 75.3865C91.5794 75.2301 91.3195 75.0883 91.0409 74.9539L90.825 74.8529L90.7696 74.8276L90.7191 74.8072L90.6189 74.7657L90.4185 74.6818C90.3517 74.6541 90.2808 74.6353 90.2124 74.6117C89.6608 74.4284 89.0775 74.329 88.4828 74.3127C88.3337 74.3144 88.1855 74.3062 88.0356 74.3168C87.9606 74.3209 87.8865 74.3225 87.8115 74.3274L87.5875 74.3478C87.2893 74.3795 86.9911 74.4268 86.6987 74.4936L86.4812 74.5474C86.4103 74.5677 86.3386 74.5865 86.2685 74.6077C86.1993 74.6296 86.13 74.6508 86.0665 74.6736C86.0021 74.6956 85.9329 74.7274 85.8669 74.7543L85.6657 74.8366C85.5997 74.8659 85.5353 74.9017 85.4701 74.9335L85.2746 75.0313L85.0864 75.1437C84.5854 75.4443 84.1243 75.8248 83.7088 76.2622C83.2925 76.6989 82.9267 77.1975 82.5992 77.7262C82.2726 78.2558 81.9866 78.8187 81.7357 79.4012C81.488 79.9853 81.2721 80.5874 81.0921 81.2016C81.0008 81.5079 80.9202 81.8183 80.8469 82.1287C80.8102 82.2843 80.7768 82.4391 80.745 82.5947C80.7304 82.6721 80.7141 82.7495 80.701 82.8261L80.6807 82.9393L80.6717 82.9947L80.6676 83.0216L80.6668 83.0281C80.6628 83.055 80.6766 82.9686 80.6758 82.9198C80.6766 82.8073 80.6505 82.6892 80.6074 82.5931Z" fill="black"/>
<g opacity="0.5">
<path d="M91.599 79.4227C91.5941 79.4211 91.6926 79.2027 91.779 78.7742C91.9264 78.0427 91.9216 77.285 91.8393 76.9363C91.5362 75.6418 88.9627 74.762 86.8274 74.964C85.0539 75.1326 83.7651 76.0304 83.0791 76.6162C83.3431 76.0524 84.2726 74.2487 86.3166 73.4129C88.6653 72.4516 91.7847 73.0536 92.6108 74.6707C93.5224 76.4549 91.6161 79.4284 91.599 79.4227Z" fill="white"/>
</g>
<path d="M79.0269 83.2481C78.9845 83.1413 78.9609 83.0126 78.9642 82.8912C78.9634 82.8375 78.978 82.7454 78.9756 82.7674L78.9772 82.7585L78.9829 82.7226L78.9943 82.6534L79.0179 82.5189C79.0334 82.4301 79.0513 82.343 79.0684 82.2558C79.1043 82.0823 79.1418 81.9096 79.1817 81.7377C79.2623 81.3947 79.3511 81.055 79.4513 80.7177C79.6493 80.0432 79.8864 79.3792 80.1634 78.7275C80.4436 78.0765 80.7662 77.4386 81.145 76.826C81.5247 76.2142 81.9565 75.6235 82.4664 75.0875C82.9748 74.5514 83.5565 74.0667 84.2066 73.6765L84.451 73.5315L84.706 73.4027C84.7915 73.3612 84.8754 73.3164 84.9626 73.2773L85.2266 73.1681C85.3162 73.1331 85.4001 73.0948 85.4946 73.0622C85.5891 73.028 85.6803 73.0003 85.7708 72.9718C85.862 72.9441 85.9516 72.9196 86.0429 72.8944L86.3141 72.8276C87.0384 72.663 87.7789 72.5864 88.5276 72.6027C89.2755 72.6223 90.0299 72.7486 90.7517 72.9889C90.8413 73.0199 90.9333 73.0459 91.0213 73.0818L91.2853 73.1909L91.4173 73.2463L91.4832 73.274L91.5419 73.3009L91.7822 73.4142C92.1081 73.5714 92.4405 73.7498 92.7647 73.9681C93.0882 74.1865 93.4091 74.4439 93.6975 74.7795C93.8409 74.9474 93.9753 75.1356 94.0878 75.3474C94.201 75.5584 94.2898 75.7946 94.3419 76.0423C94.3941 76.2883 94.4112 76.5523 94.3827 76.8113C94.355 77.0704 94.2849 77.3164 94.1937 77.534C94.1024 77.7523 93.9933 77.9437 93.8792 78.1173C93.7651 78.29 93.6462 78.4472 93.5265 78.593C93.2869 78.8847 93.0466 79.1405 92.812 79.389C92.5765 79.6366 92.3468 79.8753 92.1236 80.114C91.6771 80.5914 91.2633 81.0721 90.882 81.5813C90.6906 81.8354 90.5097 82.0969 90.3329 82.3617C90.1602 82.6289 89.9899 82.8986 89.8327 83.1764C89.194 84.2811 88.6881 85.4672 88.2946 86.6933V86.6941L88.0494 87.4274L87.2966 87.2685C86.9357 87.1927 86.5765 87.1072 86.2196 87.0127C85.8628 86.9165 85.5093 86.8106 85.1581 86.695C84.4567 86.4628 83.7683 86.1923 83.0962 85.8852C82.4257 85.5748 81.7691 85.2334 81.1361 84.8522C80.82 84.6615 80.508 84.4636 80.2025 84.2558C80.0501 84.1524 79.8986 84.0456 79.7495 83.9381C79.6746 83.8843 79.6004 83.8289 79.5263 83.7743L79.4986 83.754C79.4766 83.7377 79.4481 83.7157 79.4228 83.6953C79.3715 83.6538 79.321 83.6082 79.2737 83.5601C79.1784 83.4599 79.0945 83.3532 79.0269 83.2481ZM80.6074 82.5931C80.6106 82.5401 80.5984 82.4864 80.5748 82.4424C80.5626 82.4204 80.5479 82.4016 80.5324 82.3853C80.5251 82.378 80.5145 82.369 80.5104 82.3658L80.5365 82.3837C80.6057 82.4326 80.6742 82.4823 80.7442 82.5295C80.8835 82.6257 81.0237 82.721 81.1654 82.813C81.4481 82.9996 81.7357 83.178 82.0273 83.3499C82.6106 83.6929 83.2111 84.0065 83.8269 84.2876C84.4412 84.5711 85.0718 84.8196 85.7121 85.0379C86.0323 85.1471 86.3557 85.2481 86.6816 85.3402C87.0066 85.4338 87.3349 85.5186 87.6649 85.5952L86.6669 86.1703V86.1695C87.0938 84.8399 87.647 83.5414 88.3525 82.3202C88.526 82.0138 88.715 81.7149 88.9064 81.4191C89.102 81.125 89.304 80.835 89.5158 80.5523C89.9394 79.9869 90.4038 79.4484 90.8747 78.9458C91.1093 78.6941 91.3456 78.4488 91.5729 78.2101C91.7993 77.9714 92.0177 77.7368 92.2042 77.5087C92.3908 77.2822 92.5407 77.059 92.6165 76.8749C92.6914 76.6883 92.7028 76.5629 92.6702 76.3959C92.6385 76.2354 92.5488 76.0651 92.3981 75.8891C92.249 75.714 92.0454 75.5429 91.8124 75.3865C91.5794 75.2301 91.3195 75.0883 91.0409 74.9539L90.825 74.8529L90.7696 74.8276L90.7191 74.8072L90.6189 74.7657L90.4185 74.6818C90.3517 74.6541 90.2808 74.6353 90.2124 74.6117C89.6608 74.4284 89.0775 74.329 88.4828 74.3127C88.3337 74.3144 88.1855 74.3062 88.0356 74.3168C87.9606 74.3209 87.8865 74.3225 87.8115 74.3274L87.5875 74.3478C87.2893 74.3795 86.9911 74.4268 86.6987 74.4936L86.4812 74.5474C86.4103 74.5677 86.3386 74.5865 86.2685 74.6077C86.1993 74.6296 86.13 74.6508 86.0665 74.6736C86.0021 74.6956 85.9329 74.7274 85.8669 74.7543L85.6657 74.8366C85.5997 74.8659 85.5353 74.9017 85.4701 74.9335L85.2746 75.0313L85.0864 75.1437C84.5854 75.4443 84.1243 75.8248 83.7088 76.2622C83.2925 76.6989 82.9267 77.1975 82.5992 77.7262C82.2726 78.2558 81.9866 78.8187 81.7357 79.4012C81.488 79.9853 81.2721 80.5874 81.0921 81.2016C81.0008 81.5079 80.9202 81.8183 80.8469 82.1287C80.8102 82.2843 80.7768 82.4391 80.745 82.5947C80.7304 82.6721 80.7141 82.7495 80.701 82.8261L80.6807 82.9393L80.6717 82.9947L80.6676 83.0216L80.6668 83.0281C80.6628 83.055 80.6766 82.9686 80.6758 82.9198C80.6766 82.8073 80.6505 82.6892 80.6074 82.5931Z" fill="black"/>
<path d="M76.0132 79.7485C76.4539 79.8748 76.8148 80.0622 77.1627 80.2585C77.3354 80.3571 77.5 80.463 77.6596 80.573C77.7403 80.6268 77.8185 80.683 77.8959 80.74L78.1248 80.9143C78.7269 81.3885 79.3558 81.8268 79.9961 82.2398C80.6389 82.6504 81.298 83.0309 81.9693 83.3844C82.6422 83.7355 83.3265 84.0598 84.0214 84.3612C85.4137 84.9551 86.8459 85.4594 88.3237 85.8227L88.4622 85.8586L88.6015 85.8904L88.8793 85.9539C89.0642 86.0003 89.2508 86.0362 89.4365 86.0834C89.808 86.1714 90.1812 86.2643 90.5559 86.3637C90.7433 86.415 90.9315 86.4631 91.1197 86.5193C91.3087 86.5714 91.4985 86.6284 91.6883 86.6879C92.0696 86.8077 92.4549 86.9299 92.8484 87.0993C92.6512 87.1824 92.4525 87.2484 92.2521 87.3038C92.0517 87.36 91.8504 87.4048 91.6476 87.4431C91.4455 87.4822 91.2419 87.5099 91.0382 87.5344C90.8353 87.5539 90.6309 87.5727 90.4264 87.58C90.0182 87.5955 89.6101 87.5873 89.2044 87.5523C88.7978 87.5205 88.3962 87.4562 87.9946 87.3869C87.7942 87.3494 87.5929 87.3168 87.3942 87.2737L86.7962 87.1441L86.2031 86.9942C86.0051 86.9437 85.8104 86.8826 85.6141 86.8264C84.8328 86.5902 84.0613 86.3132 83.3151 85.98C82.5688 85.6468 81.8422 85.2704 81.1415 84.8508C80.4426 84.4288 79.7721 83.962 79.1301 83.4634C78.4865 82.9665 77.8763 82.4288 77.293 81.8675C77.1456 81.729 77.0103 81.5767 76.8792 81.4219C76.7505 81.2638 76.6283 81.0993 76.5183 80.9249C76.4083 80.7498 76.3073 80.5673 76.2209 80.3734C76.1786 80.2756 76.1362 80.1779 76.1028 80.0736C76.067 79.9685 76.0352 79.8626 76.0132 79.7485Z" fill="black"/>
<path d="M82.7485 85.0115C82.7616 84.9545 82.7705 84.9162 82.7828 84.8714L82.817 84.7435C82.8398 84.6588 82.865 84.5765 82.8903 84.4942C82.9416 84.3297 82.997 84.1684 83.0549 84.0079C83.1722 83.6869 83.3033 83.3732 83.4451 83.0637C83.7294 82.4453 84.065 81.8482 84.4463 81.2795C84.6386 80.996 84.8439 80.7207 85.0598 80.4543C85.2789 80.1895 85.516 79.9378 85.7677 79.7031C86.0235 79.4709 86.2964 79.2575 86.5865 79.0718C86.8797 78.8893 87.1885 78.7337 87.5144 78.6294C87.3278 78.9186 87.1535 79.1931 86.9922 79.4693C86.8325 79.7479 86.6842 80.0249 86.5425 80.3011C86.4023 80.5797 86.2704 80.8591 86.1417 81.1386C86.0146 81.4196 85.8964 81.704 85.7832 81.9899C85.5616 82.5643 85.3636 83.1468 85.1852 83.7341C85.0948 84.0274 85.0101 84.3223 84.9262 84.6156L84.6907 85.4718L82.7485 85.0115Z" fill="black"/>
<g opacity="0.25">
<path d="M90.3495 81.3411C89.9357 81.3769 85.6969 83.6898 87.1544 78.9199C87.1544 78.9199 82.0252 82.7244 81.2651 78.374L80.0806 82.77L87.6228 86.0002L90.3495 81.3411Z" fill="black"/>
</g>
</svg>
