<svg width="279" height="244" viewBox="0 0 279 244" fill="none" xmlns="http://www.w3.org/2000/svg">
<path d="M206.317 225.535C206.09 232.278 205.976 235.65 205.481 239.226C204.224 248.306 204.111 252.007 202.954 259.47C202.514 262.316 202.996 265.238 204.386 267.76C209.551 277.136 204.841 283.21 204.841 283.21C195.766 294.223 170.53 291.282 170.53 291.282C170.53 291.282 157.637 289.77 153.76 283.335C149.884 276.899 155.4 270.476 155.4 270.476C156.133 261.393 152.27 251.25 152.27 251.25C139.899 247.52 127.715 250.944 127.715 250.944C123.678 260.205 123.203 269.585 123.203 269.585C128.665 275.641 125.161 282.348 125.161 282.348C119.401 293.211 100.07 291.768 100.07 291.768C100.07 291.768 82.5961 292.026 75.472 284.388C70.5838 279.147 72.404 271.613 74.0282 267.399C74.9306 265.057 75.2286 262.524 74.9175 260.033C72.6759 242.083 72.3113 226.458 72.6224 214.017C73.171 192.136 75.9399 172.992 78.5591 161.655C80.783 152.027 83.1898 144.082 83.1898 144.082C83.6682 142.504 84.0387 141.338 87.108 131.615C89.9303 133.476 92.4106 134.93 94.3507 136.008C96.1341 137 98.1241 138.099 100.881 139.333C103.012 140.286 104.855 140.986 106.224 141.47C106.56 141.614 107.053 141.822 107.649 142.064C107.649 142.064 112.022 143.835 116.435 145.032C123.395 146.92 131.173 147.35 134.602 147.526C137.714 147.685 141.974 147.783 147.069 147.526C156.939 146.792 164.354 144.612 169.272 142.776C169.272 142.776 174.368 140.874 190.169 132.803C190.169 132.803 195.834 149.525 198.955 160.943C198.955 160.944 207.446 191.997 206.317 225.535Z" fill="white"/>
<path d="M102.403 293.915C101.166 293.915 100.311 293.867 100.008 293.846C98.4384 293.862 81.419 293.81 73.9518 285.805C68.2597 279.702 70.3411 271.185 72.0877 266.652C72.8595 264.651 73.1243 262.451 72.8547 260.29C70.936 244.928 70.1595 229.342 70.5442 213.963C71.2435 186.021 75.3054 166.503 76.5331 161.186C78.7475 151.601 81.1756 143.559 81.1994 143.479C81.6221 142.085 81.9521 141.037 84.1048 134.219L85.9523 128.366L88.2486 129.88C90.5687 131.409 92.96 132.859 95.3572 134.192C96.9791 135.093 98.9964 136.214 101.727 137.436C103.426 138.196 105.172 138.894 106.915 139.511L107.039 139.56C107.497 139.756 107.963 139.951 108.426 140.138C108.469 140.156 112.741 141.879 116.976 143.027C123.864 144.895 131.74 145.298 134.706 145.45C138.737 145.657 142.852 145.658 146.936 145.452C154.586 144.88 161.855 143.325 168.542 140.829C168.591 140.811 173.796 138.831 189.221 130.952L192.244 129.407V132.461C193.071 134.915 198.076 149.858 200.957 160.394C201.045 160.716 203.13 168.398 205.107 180.321C206.93 191.322 208.98 208.109 208.391 225.603C208.162 232.409 208.046 235.825 207.537 239.509C206.953 243.725 206.625 246.709 206.308 249.594C205.959 252.769 205.629 255.767 205.007 259.786C204.633 262.2 205.058 264.675 206.205 266.756C211.962 277.207 206.707 284.19 206.482 284.482L206.444 284.531C196.76 296.282 171.365 293.469 170.289 293.344C170.148 293.328 166.821 292.929 162.967 291.7C157.551 289.973 153.855 287.519 151.979 284.406C150.057 281.214 149.779 277.536 151.178 273.769C151.867 271.909 152.815 270.462 153.369 269.703C153.755 262.915 151.536 255.543 150.666 252.952C141.307 250.431 132.13 252.069 129.221 252.716C126.376 259.672 125.548 266.59 125.34 268.891C128.116 272.357 128.497 275.939 128.301 278.4C128.08 281.176 127.111 283.099 127.002 283.309L126.996 283.32C121.924 292.886 108.109 293.914 102.403 293.915ZM100.131 289.688L100.224 289.696C100.402 289.709 118.254 290.898 123.317 281.389C123.475 281.072 126.007 275.795 121.66 270.976L121.084 270.337L121.128 269.479C121.149 269.08 121.67 259.612 125.811 250.112L126.205 249.208L127.154 248.941C127.675 248.795 140.068 245.397 152.872 249.258L153.85 249.554L154.214 250.509C154.379 250.941 158.234 261.198 157.473 270.64L157.418 271.313L156.978 271.826C156.971 271.834 155.776 273.262 155.035 275.323C154.125 277.857 154.296 280.191 155.541 282.259C158.28 286.807 167.466 288.822 170.775 289.213C171.012 289.241 194.928 291.884 203.206 281.926C203.516 281.493 206.85 276.53 202.568 268.759C200.981 265.879 200.389 262.465 200.903 259.149C201.513 255.22 201.822 252.401 202.181 249.138C202.486 246.36 202.833 243.212 203.424 238.938C203.905 235.467 204.018 232.124 204.241 225.462C204.818 208.331 202.808 191.86 201.02 181.059C199.078 169.33 196.972 161.565 196.952 161.488C194.542 152.673 190.616 140.703 188.965 135.744C174.913 142.863 170.201 144.644 169.999 144.72C162.937 147.356 155.274 148.997 147.224 149.595L147.175 149.599C142.941 149.814 138.676 149.814 134.497 149.599C131.41 149.441 123.21 149.019 115.893 147.035C111.41 145.82 107.054 144.061 106.871 143.988C106.404 143.799 105.933 143.603 105.47 143.405C103.642 142.756 101.814 142.024 100.034 141.227C97.1394 139.932 95.0343 138.762 93.3435 137.822C91.6432 136.877 89.9453 135.874 88.2735 134.828L88.0717 135.468C85.9262 142.266 85.5961 143.311 85.1805 144.682C85.1568 144.761 82.7666 152.676 80.5855 162.119C79.3792 167.34 75.3921 186.513 74.7011 214.066C74.3211 229.237 75.0881 244.616 76.9807 259.773C77.3346 262.611 76.9855 265.506 75.9679 268.144C74.5704 271.771 72.8441 278.52 76.9926 282.967C83.3995 289.834 99.8762 289.69 100.041 289.686L100.131 289.688Z" fill="black"/>
<g opacity="0.25">
<path d="M118.61 267.061C118.61 267.061 118.434 244.021 130.07 242.358C141.706 240.696 154.41 241.765 157.497 248.176C160.584 254.588 161.178 267.055 161.178 267.055L156.073 269.074L152.036 250.789L127.314 251.502L123.124 268.836L118.61 267.061Z" fill="black"/>
<path d="M156.03 269.155L156.015 269.087L151.988 250.85L127.362 251.561L123.166 268.916L123.103 268.891L118.551 267.102V267.062C118.551 267.003 118.523 261.226 119.918 255.32C120.739 251.848 121.883 249.011 123.321 246.886C125.123 244.224 127.39 242.681 130.062 242.3C136.266 241.414 142.281 241.371 147 242.181C152.475 243.12 156.124 245.185 157.552 248.151C160.61 254.5 161.233 266.927 161.239 267.052L161.241 267.095L161.202 267.11L156.03 269.155ZM152.083 250.729L152.094 250.776L156.116 268.993L161.117 267.017C161.074 266.21 160.401 254.344 157.444 248.203C154.221 241.508 140.687 240.902 130.078 242.418C124.101 243.272 121.317 249.92 120.035 255.346C118.703 260.98 118.669 266.498 118.669 267.021L123.083 268.757L127.268 251.446L127.313 251.445L152.083 250.729Z" fill="black"/>
</g>
<path d="M234.122 29.0219C233.792 41.2254 224.953 51.199 213.441 53.4182C207.452 40.488 197.06 29.4897 183.866 21.8076C186.816 10.5884 197.176 2.45515 209.273 2.78404C223.38 3.16874 234.505 14.9151 234.122 29.0219Z" fill="white"/>
<path d="M212.238 55.7667L211.555 54.2921C205.765 41.7894 195.828 31.1769 182.821 23.6029L181.455 22.8074L181.856 21.2793C183.414 15.3521 186.975 10.0364 191.882 6.31049C196.866 2.52644 203.062 0.536457 209.329 0.707434C216.707 0.908095 223.565 3.97025 228.64 9.32871C233.715 14.6872 236.399 21.702 236.199 29.0789C236.028 35.4039 233.666 41.527 229.551 46.3191C225.495 51.0411 219.913 54.2873 213.835 55.4592L212.238 55.7667ZM186.318 20.8495C192.519 24.624 198.081 29.1169 202.871 34.2237C207.673 39.3435 211.612 44.9881 214.597 51.0233C224.521 48.3886 231.763 39.353 232.044 28.9661C232.397 16.0277 222.156 5.21458 209.216 4.86194C208.998 4.85601 208.777 4.85244 208.56 4.85244C198.394 4.85244 189.507 11.2878 186.318 20.8495Z" fill="black"/>
<path d="M194.613 29.1466C195.401 24.3865 198.527 20.4291 202.839 18.8761C207.871 17.063 212.246 19.3415 212.714 19.5944C213.022 19.7618 218.119 22.6364 218.916 28.6087C219.453 32.6362 217.714 35.6722 217.043 36.8037C214.03 41.8891 208.76 43.3032 207.563 43.5917C205.795 40.9713 203.579 38.0635 200.823 35.088C198.689 32.7822 196.582 30.8136 194.613 29.1466Z" fill="#F761A6"/>
<path d="M206.649 45.951L205.842 44.7541C203.88 41.8463 201.679 39.0692 199.299 36.4998C197.416 34.4658 195.388 32.5257 193.271 30.7328L192.371 29.9706L192.563 28.807C193.48 23.2728 197.148 18.7181 202.135 16.9205C207.856 14.8593 212.777 17.2637 213.704 17.7671C213.994 17.9238 215.524 18.7953 217.138 20.492C219.262 22.7278 220.589 25.4385 220.975 28.3332C221.619 33.1586 219.521 36.6992 218.831 37.8616C215.622 43.2783 210.224 45.0854 208.052 45.6102L206.649 45.951ZM196.901 28.3748C198.805 30.0442 200.634 31.824 202.348 33.6763C204.526 36.0284 206.563 38.5443 208.418 41.1719C210.4 40.4714 213.361 38.9433 215.256 35.7446C215.764 34.8873 217.309 32.2799 216.856 28.8842C216.193 23.9044 211.769 21.4467 211.725 21.4217C211.323 21.2044 207.683 19.3391 203.544 20.8316C200.303 21.9988 197.833 24.8353 196.901 28.3748Z" fill="black"/>
<g opacity="0.25">
<path d="M203.561 39.3335C204.09 38.5 217.998 32.3293 214.734 20.5996C214.734 20.5996 222.854 27.0291 216.495 36.0338C210.135 45.0386 206.657 43.7634 206.657 43.7634L203.561 39.3335Z" fill="black"/>
</g>
<g opacity="0.25">
<path d="M209.852 49.2674C209.852 49.2674 234.765 43.0837 230.324 14.6636C230.324 14.6636 239.337 31.1047 229.049 44.6546C218.76 58.2045 212.724 55.4784 212.724 55.4784L209.852 49.2674Z" fill="black"/>
</g>
<path d="M95.497 21.375C82.2131 28.9265 71.6968 39.8156 65.5464 52.6602C53.9057 50.2665 45.155 39.9581 45.1633 27.6121C45.1728 13.5006 56.6223 2.06766 70.7339 2.07715C82.6809 2.08547 92.7091 10.2935 95.497 21.375Z" fill="white"/>
<path d="M66.719 55.0237L65.1279 54.696C58.9846 53.4327 53.3935 50.0571 49.3838 45.1902C45.3184 40.2568 43.0814 34.0137 43.0862 27.6116C43.0909 20.2311 45.9702 13.2946 51.1921 8.07985C56.4093 2.8698 63.3434 0 70.7156 0C70.7227 0 70.7286 0 70.7346 0C77.0108 0.00474936 82.925 2.06003 87.8382 5.94382C92.603 9.71007 96.038 15.0104 97.5114 20.8687L97.8973 22.4015L96.5236 23.1828C83.4367 30.6227 73.3728 41.1271 67.4207 53.5597L66.719 55.0237ZM70.7156 4.15569C64.4511 4.15569 58.5619 6.5933 54.1284 11.0197C49.6913 15.4509 47.2454 21.3436 47.2407 27.614C47.2335 38.1813 54.3683 47.458 64.4191 50.2518C67.4801 44.2557 71.4873 38.6586 76.3471 33.5934C81.1986 28.5377 86.8123 24.1018 93.0542 20.3914C89.9505 10.7644 80.9825 4.16163 70.7322 4.15569C70.7262 4.15569 70.7203 4.15569 70.7156 4.15569Z" fill="black"/>
<path d="M219.126 79.0638C219.1 117.138 183.349 147.979 139.274 147.949C95.1986 147.919 59.4894 117.029 59.5155 78.9546C59.5214 69.6434 61.6646 60.7633 65.546 52.6621C71.6964 39.8163 82.2127 28.9284 95.4966 21.3769C108.087 14.2184 123.165 10.058 139.368 10.0698C155.847 10.0805 171.156 14.406 183.867 21.8091C197.06 29.4912 207.452 40.4895 213.441 53.4196C217.115 61.3475 219.132 70.002 219.126 79.0638Z" fill="white"/>
<path d="M139.338 150.025C139.316 150.025 139.295 150.025 139.272 150.025C128.255 150.018 117.564 148.146 107.499 144.46C97.7614 140.895 89.0131 135.79 81.4972 129.289C73.9588 122.768 68.0399 115.17 63.902 106.704C59.6062 97.9155 57.431 88.5783 57.4382 78.9513C57.4441 69.5322 59.5421 60.3849 63.6729 51.7624C66.8181 45.1941 71.0819 39.0816 76.3477 33.5937C81.5625 28.1593 87.6595 23.4396 94.4701 19.5677C107.794 11.9925 123.299 7.98877 139.304 7.98877C139.327 7.98877 139.347 7.98877 139.369 7.98877C155.681 7.99946 171.429 12.1575 184.912 20.0106C191.68 23.9514 197.722 28.7328 202.871 34.2219C208.074 39.7691 212.265 45.9338 215.326 52.5437C219.232 60.9726 221.209 69.8943 221.203 79.0617C221.196 88.6875 219.009 98.0224 214.701 106.805C210.552 115.265 204.622 122.854 197.075 129.365C189.551 135.856 180.796 140.948 171.052 144.501C161.003 148.167 150.332 150.025 139.338 150.025ZM139.303 12.1456C124.015 12.1456 109.223 15.9606 96.5218 23.182C83.435 30.6218 73.3711 41.1262 67.4189 53.5589C63.5589 61.6173 61.5974 70.1614 61.5915 78.9549C61.5796 96.7567 69.6131 113.516 84.2139 126.146C98.9013 138.85 118.454 145.856 139.273 145.87C139.295 145.87 139.315 145.87 139.336 145.87C182.166 145.87 217.021 115.911 217.046 79.0606C217.052 70.5022 215.205 62.1695 211.554 54.2927C205.763 41.7888 195.826 31.1775 182.819 23.6035C169.968 16.1185 154.943 12.1563 139.365 12.1456C139.346 12.1456 139.324 12.1456 139.303 12.1456Z" fill="black"/>
<path d="M184.089 109.78C184.225 95.2271 163.826 83.2385 138.527 83.0028C113.228 82.7671 92.6097 94.3736 92.4741 108.927C92.3385 123.48 112.737 135.468 138.036 135.704C163.335 135.94 183.954 124.333 184.089 109.78Z" fill="#CECECE"/>
<path d="M84.6524 28.8396C83.997 24.0594 80.9836 20.0165 76.7163 18.3435C71.7366 16.3904 67.2995 18.5466 66.8245 18.7864C66.5123 18.9443 61.3367 21.6764 60.3737 27.6238C59.7242 31.6358 61.3782 34.7181 62.017 35.8675C64.888 41.0348 70.1159 42.595 71.3044 42.9179C73.1448 40.3473 75.4411 37.5036 78.2788 34.6053C80.4766 32.3601 82.6387 30.4508 84.6524 28.8396Z" fill="#F761A6"/>
<path d="M72.1529 45.3024L70.7602 44.9237C68.604 44.3383 63.2586 42.3816 60.2012 36.8771C59.5446 35.6945 57.5451 32.0968 58.324 27.2917C58.7906 24.41 60.1929 21.7361 62.3788 19.5609C64.0387 17.9093 65.5929 17.0817 65.8873 16.9321C66.8289 16.4548 71.8157 14.1882 77.4758 16.4085C82.4104 18.3439 85.9498 22.9994 86.7121 28.5574L86.8724 29.7257L85.951 30.4619C83.7853 32.1942 81.7039 34.0773 79.765 36.0578C77.3143 38.5607 75.037 41.2762 72.9948 44.127L72.1529 45.3024ZM72.3773 19.6084C69.9017 19.6084 68.0459 20.4977 67.7633 20.6402C67.7182 20.6628 63.2289 22.9971 62.4251 27.9566C61.8777 31.3393 63.35 33.9883 63.8332 34.8598C65.6392 38.1095 68.5565 39.7207 70.518 40.4759C72.445 37.9017 74.5514 35.4439 76.7942 33.1524C78.5598 31.3488 80.4382 29.6212 82.3878 28.0053C81.5543 24.4409 79.1642 21.5354 75.9584 20.278C74.6974 19.7841 73.4768 19.6084 72.3773 19.6084Z" fill="black"/>
<g opacity="0.25">
<path d="M75.4248 38.7732C74.919 37.9242 61.1898 31.3701 64.7791 19.7354C64.7791 19.7354 56.4832 25.9356 62.5885 35.115C68.695 44.2943 72.2059 43.1164 72.2059 43.1164L75.4248 38.7732Z" fill="black"/>
</g>
<g opacity="0.25">
<path d="M68.8593 48.5274C68.8593 48.5274 44.1282 41.6515 49.3608 13.3667C49.3608 13.3667 39.8929 29.5501 49.8001 43.3815C59.7061 57.2128 65.8173 54.6564 65.8173 54.6564L68.8593 48.5274Z" fill="black"/>
</g>
<path d="M135.666 93.0633C135.607 93.6154 138.012 94.621 140.431 94.6115C142.821 94.6032 145.193 93.6035 145.134 93.0573C145.059 92.3615 141.041 92.3568 140.451 92.3556C139.95 92.3544 135.743 92.3485 135.666 93.0633Z" fill="white"/>
<path d="M130.319 97.1217C131.037 101.001 135.679 104.696 140.667 104.578C145.581 104.462 149.889 100.667 150.597 96.8261C150.705 96.2383 150.864 95.317 150.514 94.2626C149.341 90.7374 143.772 89.6522 140.422 89.7044C137.076 89.7567 131.525 91.0105 130.398 94.6461C130.068 95.7112 130.226 96.6242 130.319 97.1217Z" fill="black"/>
<path d="M135.38 92.4446C135.388 92.922 137.719 93.271 140.586 93.2235C143.454 93.1761 145.773 92.751 145.764 92.2725C145.756 91.7952 143.425 91.4461 140.558 91.4936C137.69 91.5423 135.373 91.9673 135.38 92.4446Z" fill="white"/>
<g opacity="0.25">
<path d="M219.126 79.0643C209.313 114.845 176.651 139.864 139.654 140.007C102.383 140.151 69.3537 115.013 59.5154 78.9551C60.115 87.067 62.4885 103.218 73.8763 118.381C96.2707 148.197 134.01 148.203 142.196 147.951C149.037 147.741 183.518 146.681 204.712 118.619C216.26 103.329 218.564 87.0349 219.126 79.0643Z" fill="black"/>
</g>
<g opacity="0.25">
<path d="M192.365 139.51C184.716 144.363 166.253 154.63 140.597 155.064C112.469 155.54 92.27 143.919 84.7553 139.067L87.1074 131.614C93.8171 136.245 113.916 148.825 142.141 147.94C165.773 147.199 182.688 137.408 189.753 132.742C190.623 134.998 191.495 137.254 192.365 139.51Z" fill="black"/>
</g>
<path d="M175.564 140.936L239.265 174.122C233.502 182.386 221.017 197.726 199.845 206.418C179.357 214.83 160.907 212.84 147.602 211.405C122.877 208.738 116.108 201.278 81.5863 194.782C69.7153 192.549 59.7072 191.312 52.7708 190.604C51.4778 190.472 50.237 191.141 49.6326 192.292C47.0621 197.191 43.1213 203.357 37.1608 209.435C29.9335 216.805 22.3393 221.392 16.3907 224.222C14.0861 225.319 11.5 223.39 11.8835 220.866C12.7135 215.394 14.3876 208.565 17.7953 201.24C21.6292 192.999 26.343 186.95 30 182.955L31.6741 181.06C33.0681 179.483 32.5718 177.011 30.6791 176.093C30.5806 176.046 30.4844 175.993 30.3906 175.934C25.7956 173.087 19.6713 168.581 13.7892 161.773C8.46282 155.607 4.96848 149.445 2.67454 144.384C1.63443 142.092 3.55673 139.555 6.04658 139.933C12.4238 140.903 21.14 143.169 30.1745 148.593C37.7248 153.127 43.0726 158.412 46.6132 162.608C47.626 163.808 49.3655 164.086 50.7036 163.263C64.5456 154.753 88.4124 142.741 120.234 138.918C144.063 136.055 164.061 138.779 177.583 141.767" fill="#6E85B2"/>
<path d="M15.0259 226.61C13.9193 226.61 12.821 226.258 11.8972 225.573C10.3299 224.41 9.53798 222.486 9.83006 220.554C10.8915 213.55 12.9385 206.757 15.9116 200.365C19.1056 193.5 23.3254 187.175 28.4559 181.567L30.1181 179.686C30.4328 179.33 30.4126 178.94 30.3734 178.74C30.3331 178.539 30.2024 178.172 29.7738 177.964C29.6111 177.885 29.4509 177.797 29.2977 177.703C22.8801 173.726 17.1346 168.824 12.2178 163.133C7.57649 157.761 3.72951 151.742 0.783721 145.244C-0.011797 143.489 0.217356 141.443 1.38095 139.905C2.54573 138.367 4.45378 137.591 6.35946 137.881C15.2526 139.233 23.6258 142.239 31.2449 146.813C37.6471 150.657 43.3522 155.52 48.2025 161.268C48.5551 161.686 49.15 161.78 49.6166 161.494C58.6131 155.963 68.1534 151.22 77.9739 147.397C91.5202 142.125 105.656 138.578 119.988 136.855C138.772 134.598 157.733 135.449 176.376 139.381L176.525 139.093L177.568 139.636C177.722 139.669 177.878 139.704 178.032 139.738L178.005 139.864L242.323 173.372L240.971 175.311C230.443 190.408 216.495 201.829 200.636 208.34C191.335 212.159 181.681 214.232 171.12 214.68C162.127 215.062 153.951 214.179 147.381 213.472C134.452 212.077 126.295 209.377 116.85 206.249C107.941 203.3 97.8452 199.956 81.2034 196.825C71.7154 195.04 62.079 193.642 52.5612 192.672C52.1124 192.627 51.685 192.856 51.4736 193.258C48.0648 199.754 43.7488 205.686 38.6456 210.89C32.4916 217.166 25.3047 222.283 17.2854 226.099C16.5647 226.44 15.7929 226.61 15.0259 226.61ZM5.55445 141.975C5.08189 141.975 4.80049 142.273 4.69363 142.413C4.5749 142.57 4.32555 142.992 4.56777 143.527C7.34852 149.662 10.9806 155.343 15.3619 160.415C20.0032 165.787 25.4282 170.415 31.486 174.17C31.5168 174.189 31.5501 174.208 31.5857 174.224C33.0782 174.949 34.1218 176.296 34.4472 177.922C34.7737 179.548 34.3296 181.194 33.2313 182.436L31.5334 184.357C26.6843 189.655 22.6961 195.63 19.6802 202.115C16.8734 208.149 14.9416 214.562 13.9394 221.175C13.8492 221.772 14.2137 222.114 14.374 222.234C14.5331 222.352 14.9617 222.6 15.4996 222.344C23.0784 218.738 29.8676 213.904 35.6784 207.978C40.4979 203.064 44.574 197.46 47.7929 191.324C48.7974 189.41 50.8337 188.313 52.9815 188.534C62.6144 189.516 72.3672 190.93 81.9705 192.737C98.8853 195.919 109.123 199.309 118.155 202.3C127.374 205.353 135.337 207.99 147.825 209.336C161.005 210.758 179.056 212.705 199.056 204.493C213.496 198.565 226.289 188.344 236.183 174.857L176.142 143.578C157.744 139.625 139.023 138.751 120.482 140.979C96.4406 143.868 72.6878 152.185 51.7918 165.032C49.5596 166.403 46.7148 165.947 45.0252 163.947C40.4694 158.549 35.1133 153.982 29.1041 150.374C21.9516 146.08 14.0891 143.257 5.73374 141.987C5.672 141.978 5.61144 141.975 5.55445 141.975Z" fill="black"/>
<g opacity="0.5">
<path d="M6.13115 146.516C6.13115 146.516 4.94381 143.904 8.7433 144.854C12.3457 145.638 16.4444 146.863 20.7806 148.802C30.829 153.297 37.8581 159.713 42.3688 164.832C43.8375 166.499 46.2027 167.048 48.2603 166.21C49.2173 165.82 50.1755 165.43 51.1325 165.04C45.6316 160.766 40.1294 156.491 34.6285 152.217C34.6285 152.217 22.5972 142.481 13.2956 141.65C3.99395 140.818 -0.0430145 139.392 6.13115 146.516Z" fill="white"/>
</g>
<g opacity="0.5">
<path d="M164.7 144.317C164.7 144.317 116.019 131.024 51.1905 165.1C51.1905 165.1 98.4609 127.639 165.479 139.543L164.7 144.317Z" fill="white"/>
</g>
<path d="M15.0261 226.61C13.9195 226.61 12.8212 226.258 11.8975 225.573C10.3302 224.41 9.53825 222.486 9.83034 220.554C10.8918 213.55 12.9388 206.757 15.9119 200.365C19.1046 193.5 23.3256 187.176 28.4549 181.568L30.1184 179.686C30.4331 179.33 30.4129 178.94 30.3725 178.74C30.3321 178.539 30.2015 178.172 29.7729 177.964C29.6102 177.886 29.4499 177.797 29.2968 177.703C22.8792 173.726 17.1325 168.824 12.2169 163.133C7.57557 157.761 3.7286 151.742 0.782805 145.244C-0.0127125 143.489 0.21644 141.443 1.38003 139.905C2.54481 138.367 4.45287 137.591 6.35855 137.881C15.2517 139.233 23.6248 142.239 31.244 146.813C37.645 150.657 43.3501 155.52 48.2016 161.268C48.5542 161.686 49.1491 161.78 49.6157 161.494C58.6122 155.963 68.1525 151.22 77.973 147.397C91.5193 142.125 105.655 138.578 119.987 136.855C138.771 134.598 157.733 135.449 176.375 139.381L176.525 139.093L177.567 139.636C177.721 139.669 177.877 139.704 178.031 139.738L178.004 139.864L242.322 173.372L240.97 175.311C238.689 178.582 236.214 181.722 233.617 184.646C224.19 195.253 213.093 203.225 200.635 208.34C191.334 212.159 181.68 214.232 171.119 214.68C162.126 215.062 153.95 214.179 147.38 213.472C134.451 212.077 126.294 209.377 116.849 206.249C107.94 203.3 97.8443 199.956 81.2025 196.825C71.7121 195.04 62.0757 193.642 52.5603 192.672C52.1115 192.627 51.6841 192.856 51.4727 193.258C48.0639 199.754 43.7479 205.686 38.6447 210.89C32.4907 217.166 25.3037 222.283 17.2845 226.099C16.5649 226.44 15.7932 226.61 15.0261 226.61ZM5.55472 141.975C5.08216 141.975 4.80076 142.273 4.6939 142.413C4.57517 142.57 4.32583 142.992 4.56805 143.527C7.34879 149.662 10.9809 155.343 15.3621 160.415C20.0035 165.787 25.4272 170.415 31.4862 174.17C31.5171 174.189 31.5503 174.208 31.586 174.224C33.0796 174.949 34.1221 176.296 34.4486 177.923C34.7752 179.549 34.3311 181.194 33.234 182.437L31.5349 184.358C26.6858 189.656 22.6987 195.631 19.6817 202.116C16.8748 208.15 14.943 214.563 13.9409 221.176C13.8507 221.774 14.2152 222.116 14.3755 222.236C14.5346 222.353 14.9632 222.601 15.5011 222.345C23.0799 218.739 29.8691 213.905 35.6799 207.979C40.4993 203.065 44.5755 197.462 47.7943 191.325C48.7988 189.412 50.8351 188.316 52.983 188.535C62.6135 189.517 72.3663 190.931 81.9719 192.738C98.8868 195.921 109.124 199.31 118.156 202.301C127.376 205.354 135.338 207.991 147.827 209.337C161.006 210.759 179.057 212.706 199.058 204.494C210.927 199.621 221.509 192.014 230.512 181.884C232.487 179.66 234.39 177.304 236.185 174.858L176.143 143.579C157.746 139.626 139.025 138.752 120.483 140.98C96.442 143.869 72.6893 152.186 51.7933 165.033C49.5611 166.404 46.7162 165.948 45.0266 163.948C40.4708 158.55 35.1147 153.984 29.1056 150.375C21.9531 146.081 14.0905 143.258 5.7352 141.988C5.67227 141.978 5.61172 141.975 5.55472 141.975Z" fill="black"/>
<path d="M177.182 154.365C173.936 158.587 165.754 168.005 151.728 172.776C138.935 177.128 127.192 175.602 119.031 173.259C115.825 172.339 115.82 167.818 119.021 166.886C124.185 165.381 130.239 162.807 136.189 158.356C143.208 153.104 147.52 147.163 149.983 143.085" fill="#6E85B2"/>
<path d="M177.182 154.367C176.744 155.523 176.167 156.599 175.533 157.639C174.893 158.676 174.182 159.665 173.409 160.604C172.638 161.546 171.808 162.437 170.931 163.28C170.051 164.121 169.134 164.925 168.196 165.705C167.256 166.481 166.297 167.239 165.303 167.951C164.306 168.659 163.29 169.343 162.247 169.986C161.202 170.626 160.143 171.247 159.049 171.804C158.779 171.95 158.503 172.086 158.229 172.221C157.953 172.356 157.68 172.496 157.402 172.627C156.846 172.885 156.291 173.151 155.725 173.39C154.599 173.886 153.447 174.315 152.289 174.729C151.118 175.103 149.957 175.516 148.76 175.807L147.868 176.044C147.72 176.083 147.571 176.125 147.422 176.162L146.97 176.26L145.166 176.653C144.56 176.766 143.952 176.86 143.345 176.963L142.89 177.039L142.662 177.077L142.432 177.106L141.516 177.217C140.904 177.29 140.294 177.375 139.68 177.412L138.76 177.483L138.299 177.519C138.146 177.531 137.993 177.544 137.839 177.546L135.995 177.611C135.841 177.619 135.687 177.62 135.534 177.617L135.073 177.616L134.151 177.613C131.693 177.576 129.24 177.384 126.812 177.04C124.382 176.702 121.976 176.215 119.608 175.589L118.721 175.35L118.499 175.289L118.44 175.272L118.357 175.246L118.192 175.193C117.972 175.125 117.754 175.025 117.539 174.929C117.109 174.72 116.697 174.45 116.326 174.125C115.954 173.802 115.632 173.419 115.369 173.006C115.106 172.593 114.902 172.146 114.76 171.687C114.62 171.226 114.543 170.752 114.525 170.277C114.507 169.802 114.55 169.326 114.652 168.858C114.758 168.392 114.925 167.933 115.154 167.502C115.384 167.073 115.67 166.664 116.015 166.31C116.358 165.955 116.751 165.65 117.168 165.404C117.274 165.346 117.38 165.289 117.486 165.233C117.593 165.178 117.703 165.135 117.811 165.086L117.974 165.017L118.138 164.96L118.303 164.905L118.454 164.856L119.272 164.609C120.36 164.273 121.438 163.905 122.503 163.502L123.3 163.195L124.089 162.872C124.354 162.767 124.614 162.652 124.876 162.541C125.138 162.429 125.4 162.319 125.659 162.199C126.7 161.74 127.718 161.23 128.727 160.703C129.737 160.179 130.723 159.607 131.702 159.025C131.946 158.878 132.186 158.723 132.428 158.574C132.67 158.423 132.912 158.273 133.149 158.113L133.865 157.644C134.102 157.486 134.335 157.321 134.57 157.16C135.507 156.509 136.424 155.827 137.323 155.121C137.552 154.949 137.767 154.761 137.991 154.582L138.655 154.039L139.305 153.478C139.52 153.289 139.742 153.106 139.95 152.91C140.371 152.522 140.803 152.144 141.212 151.742L141.833 151.144L142.438 150.532L142.743 150.228C142.842 150.123 142.942 150.02 143.043 149.918C143.242 149.711 143.446 149.507 143.651 149.303C144.047 148.885 144.463 148.481 144.863 148.062C145.681 147.238 146.499 146.405 147.341 145.571C147.766 145.158 148.186 144.736 148.628 144.323C148.843 144.113 149.066 143.908 149.293 143.701C149.515 143.493 149.744 143.288 149.986 143.088C149.917 143.392 149.837 143.692 149.749 143.987C149.705 144.136 149.656 144.28 149.608 144.427C149.56 144.573 149.51 144.717 149.458 144.862C149.249 145.439 149.016 146.006 148.76 146.559C148.247 147.667 147.658 148.739 146.991 149.759C146.665 150.275 146.303 150.766 145.948 151.262C145.763 151.504 145.577 151.745 145.387 151.984C145.293 152.104 145.198 152.224 145.102 152.341L144.806 152.69L144.209 153.384L143.595 154.063C143.19 154.52 142.761 154.956 142.339 155.398C140.632 157.15 138.787 158.772 136.84 160.266C135.871 161.02 134.861 161.718 133.838 162.4C133.321 162.731 132.808 163.071 132.278 163.381C132.015 163.538 131.753 163.702 131.486 163.854L130.685 164.311C129.606 164.9 128.516 165.47 127.4 165.986C126.286 166.507 125.157 166.997 124.006 167.431C122.858 167.871 121.697 168.275 120.524 168.641L119.64 168.906L119.536 168.942L119.489 168.956L119.449 168.975C119.423 168.988 119.392 168.995 119.368 169.009C119.345 169.023 119.32 169.037 119.295 169.048C119.112 169.16 118.977 169.291 118.88 169.476C118.669 169.833 118.692 170.42 118.918 170.75C119.024 170.924 119.17 171.047 119.371 171.154C119.428 171.174 119.475 171.205 119.541 171.221L119.587 171.237L119.609 171.245C119.618 171.249 119.641 171.254 119.657 171.258L119.863 171.315L120.69 171.542C122.897 172.135 125.139 172.601 127.398 172.923C129.658 173.241 131.935 173.418 134.211 173.451L135.065 173.455L135.491 173.456C135.634 173.458 135.776 173.457 135.917 173.45L137.622 173.388C137.765 173.386 137.906 173.374 138.048 173.362L138.473 173.329L139.323 173.263C139.89 173.231 140.454 173.152 141.018 173.087L141.865 172.986L142.076 172.961L142.286 172.926L142.707 172.856C143.267 172.761 143.829 172.677 144.388 172.575L146.057 172.228L146.475 172.141C146.614 172.109 146.751 172.071 146.889 172.037L147.714 171.824C148.263 171.682 148.818 171.551 149.358 171.374L150.992 170.882C152.072 170.523 153.146 170.142 154.201 169.714C156.325 168.889 158.378 167.886 160.389 166.798C161.391 166.249 162.373 165.66 163.34 165.046C164.309 164.434 165.259 163.788 166.191 163.116C167.123 162.443 168.033 161.739 168.922 161.005L171.607 158.805C172.503 158.064 173.411 157.326 174.329 156.579C174.792 156.208 175.253 155.833 175.728 155.464C176.198 155.096 176.675 154.723 177.182 154.367Z" fill="black"/>
<g opacity="0.5">
<path d="M121.659 171.928C121.659 171.928 119.522 170.384 121.659 170.028C123.796 169.672 146.712 160.529 149.561 144.738C149.561 144.738 139.967 158.669 119.77 166.664C119.77 166.664 112.041 170.978 121.659 171.928Z" fill="white"/>
</g>
<path d="M177.182 154.367C176.744 155.523 176.167 156.599 175.533 157.639C174.893 158.676 174.182 159.665 173.409 160.604C172.638 161.546 171.808 162.437 170.931 163.28C170.051 164.121 169.134 164.925 168.196 165.705C167.256 166.481 166.297 167.239 165.303 167.951C164.305 168.659 163.29 169.343 162.247 169.986C161.202 170.626 160.143 171.247 159.049 171.804C158.778 171.95 158.503 172.086 158.229 172.221C157.953 172.356 157.68 172.496 157.402 172.627C156.845 172.885 156.291 173.151 155.725 173.39C154.599 173.886 153.447 174.315 152.288 174.729C151.118 175.103 149.956 175.516 148.76 175.807L147.868 176.044C147.72 176.083 147.571 176.125 147.422 176.162L146.97 176.26L145.166 176.653C144.56 176.766 143.952 176.86 143.345 176.963L142.889 177.039L142.661 177.077L142.432 177.106L141.516 177.217C140.904 177.29 140.294 177.375 139.68 177.412L138.76 177.483L138.299 177.519C138.146 177.531 137.993 177.544 137.838 177.546L135.995 177.611C135.841 177.619 135.687 177.62 135.534 177.617L135.073 177.616L134.151 177.613C131.693 177.576 129.24 177.384 126.812 177.04C124.382 176.702 121.976 176.215 119.608 175.589L118.721 175.35L118.499 175.289L118.44 175.272L118.357 175.246L118.192 175.193C117.972 175.125 117.753 175.025 117.539 174.929C117.109 174.72 116.697 174.45 116.326 174.125C115.953 173.802 115.632 173.419 115.369 173.006C115.106 172.593 114.901 172.146 114.76 171.687C114.62 171.226 114.543 170.752 114.525 170.277C114.507 169.802 114.55 169.326 114.652 168.858C114.758 168.392 114.925 167.933 115.154 167.502C115.384 167.073 115.67 166.664 116.015 166.31C116.358 165.955 116.751 165.65 117.168 165.404C117.274 165.346 117.379 165.289 117.486 165.233C117.593 165.178 117.702 165.135 117.81 165.086L117.974 165.017L118.138 164.96L118.303 164.905L118.454 164.856L119.272 164.609C120.36 164.273 121.438 163.905 122.503 163.502L123.3 163.195L124.089 162.872C124.354 162.767 124.614 162.652 124.876 162.541C125.138 162.429 125.4 162.319 125.659 162.199C126.7 161.74 127.718 161.23 128.727 160.703C129.737 160.179 130.723 159.607 131.702 159.025C131.946 158.878 132.186 158.723 132.428 158.574C132.67 158.423 132.912 158.273 133.149 158.113L133.864 157.644C134.102 157.486 134.335 157.321 134.57 157.16C135.507 156.509 136.424 155.827 137.323 155.121C137.552 154.949 137.767 154.761 137.99 154.582L138.655 154.039L139.305 153.478C139.52 153.289 139.742 153.106 139.95 152.91C140.371 152.522 140.803 152.144 141.212 151.742L141.833 151.144L142.438 150.532L142.743 150.228C142.842 150.123 142.942 150.02 143.043 149.918C143.242 149.711 143.446 149.507 143.651 149.303C144.047 148.885 144.463 148.481 144.863 148.062C145.681 147.238 146.499 146.405 147.341 145.571C147.766 145.158 148.186 144.736 148.628 144.323C148.843 144.113 149.066 143.908 149.293 143.701C149.515 143.493 149.744 143.288 149.986 143.088C149.917 143.392 149.837 143.692 149.749 143.987C149.705 144.136 149.656 144.28 149.607 144.427C149.56 144.573 149.51 144.717 149.458 144.862C149.249 145.439 149.016 146.006 148.76 146.559C148.247 147.667 147.658 148.739 146.991 149.759C146.665 150.275 146.303 150.766 145.948 151.262C145.763 151.504 145.576 151.745 145.386 151.984C145.293 152.104 145.198 152.224 145.101 152.341L144.806 152.69L144.209 153.384L143.595 154.063C143.19 154.52 142.761 154.956 142.339 155.398C140.632 157.15 138.787 158.772 136.84 160.266C135.871 161.02 134.861 161.718 133.838 162.4C133.321 162.731 132.808 163.071 132.278 163.381C132.015 163.538 131.753 163.702 131.486 163.854L130.685 164.311C129.605 164.9 128.515 165.47 127.399 165.986C126.286 166.507 125.157 166.997 124.006 167.431C122.858 167.871 121.697 168.275 120.524 168.641L119.64 168.906L119.536 168.942L119.489 168.956L119.449 168.975C119.423 168.988 119.392 168.995 119.368 169.009C119.344 169.023 119.32 169.037 119.295 169.048C119.112 169.16 118.976 169.291 118.88 169.476C118.669 169.833 118.691 170.42 118.918 170.75C119.024 170.924 119.17 171.047 119.371 171.154C119.428 171.174 119.475 171.205 119.54 171.221L119.587 171.237L119.609 171.245C119.618 171.249 119.641 171.254 119.657 171.258L119.863 171.315L120.69 171.542C122.897 172.135 125.139 172.601 127.398 172.923C129.658 173.241 131.935 173.418 134.211 173.451L135.065 173.455L135.491 173.456C135.634 173.458 135.776 173.457 135.917 173.45L137.622 173.388C137.765 173.386 137.906 173.374 138.047 173.362L138.473 173.329L139.323 173.263C139.89 173.231 140.454 173.152 141.018 173.087L141.865 172.986L142.076 172.961L142.286 172.926L142.707 172.856C143.267 172.761 143.829 172.677 144.388 172.575L146.057 172.228L146.475 172.141C146.614 172.109 146.751 172.071 146.888 172.037L147.714 171.824C148.263 171.682 148.818 171.551 149.358 171.374L150.992 170.882C152.072 170.523 153.146 170.142 154.201 169.714C156.325 168.889 158.378 167.886 160.388 166.798C161.391 166.249 162.373 165.66 163.34 165.046C164.309 164.434 165.259 163.788 166.191 163.116C167.123 162.443 168.033 161.739 168.922 161.005L171.606 158.805C172.503 158.064 173.411 157.326 174.329 156.579C174.792 156.208 175.253 155.833 175.728 155.464C176.198 155.096 176.675 154.723 177.182 154.367Z" fill="black"/>
<path d="M272.863 131.109C272.09 129.666 271.536 128.113 271.256 126.5C266.905 101.405 244.638 83.0751 219.593 83.8291C195.775 84.5462 175.353 102.346 171.078 126.141C170.754 127.944 170.101 129.673 169.143 131.235C164.725 138.432 164.515 143.982 164.775 147.026C165.735 158.28 176.015 169.186 192.405 175.971C210.79 183.583 231.475 183.744 249.752 175.875C265.271 169.194 275.206 158.506 276.472 147.174C276.825 144.001 276.766 138.393 272.863 131.109Z" fill="#6E85B2"/>
<path d="M221.182 183.806C221.16 183.806 221.139 183.806 221.118 183.806C210.998 183.798 201.071 181.808 191.611 177.89C174.548 170.826 163.742 159.354 162.705 147.202C162.235 141.697 163.806 135.96 167.373 130.148C168.194 128.809 168.754 127.338 169.034 125.773C173.483 101.013 194.719 82.4996 219.531 81.7528C220.051 81.7373 220.571 81.729 221.089 81.729C246.577 81.729 268.87 100.57 273.304 126.145C273.539 127.503 274.008 128.843 274.695 130.127C277.863 136.041 279.155 141.854 278.535 147.403C277.864 153.412 274.904 159.387 269.977 164.683C265.156 169.863 258.446 174.393 250.572 177.782C241.29 181.78 231.401 183.806 221.182 183.806ZM221.09 85.8859C220.612 85.8859 220.137 85.893 219.656 85.9073C196.796 86.5959 177.226 103.671 173.123 126.51C172.75 128.585 172.007 130.541 170.913 132.323C167.82 137.362 166.451 142.249 166.844 146.851C167.276 151.915 169.858 157.065 174.308 161.744C178.916 166.588 185.449 170.844 193.198 174.053C211.189 181.501 231.502 181.471 248.929 173.969C263.702 167.608 273.225 157.506 274.405 146.945C274.93 142.248 273.795 137.25 271.032 132.092C270.133 130.416 269.521 128.654 269.208 126.857C265.119 103.266 244.572 85.8859 221.09 85.8859Z" fill="black"/>
<g opacity="0.5">
<path d="M269.595 126.696C264.064 104.464 244.131 88.7331 221.531 88.5633C198.192 88.3887 177.542 104.855 172.422 127.97C174.707 103.396 194.757 84.2473 218.669 83.0801C243.833 81.8524 266.475 100.871 269.595 126.696Z" fill="white"/>
</g>
<path d="M221.182 183.806C221.16 183.806 221.139 183.806 221.118 183.806C210.998 183.798 201.071 181.808 191.611 177.89C174.548 170.826 163.742 159.354 162.705 147.202C162.235 141.697 163.806 135.96 167.373 130.148C168.194 128.809 168.754 127.338 169.034 125.773C173.483 101.013 194.719 82.4996 219.531 81.7528C220.051 81.7373 220.571 81.729 221.089 81.729C246.577 81.729 268.87 100.57 273.304 126.145C273.539 127.503 274.008 128.843 274.695 130.127C277.863 136.041 279.155 141.854 278.535 147.403C277.864 153.412 274.904 159.387 269.977 164.683C265.156 169.863 258.446 174.393 250.572 177.782C241.29 181.78 231.401 183.806 221.182 183.806ZM221.09 85.8859C220.612 85.8859 220.137 85.893 219.656 85.9073C196.796 86.5959 177.226 103.671 173.123 126.51C172.75 128.585 172.007 130.541 170.913 132.323C167.82 137.362 166.451 142.249 166.844 146.851C167.276 151.915 169.858 157.065 174.308 161.744C178.916 166.588 185.449 170.844 193.198 174.053C211.189 181.501 231.502 181.471 248.929 173.969C263.702 167.608 273.225 157.506 274.405 146.945C274.93 142.248 273.795 137.25 271.032 132.092C270.133 130.416 269.521 128.654 269.208 126.857C265.119 103.266 244.572 85.8859 221.09 85.8859Z" fill="black"/>
<path d="M182.57 195.72C179.22 191.58 170.809 182.366 156.669 177.942C143.773 173.907 132.072 175.722 123.97 178.265C120.787 179.264 120.893 183.784 124.118 184.637C129.317 186.014 135.432 188.439 141.491 192.742C148.639 197.818 153.094 203.653 155.657 207.667" fill="#6E85B2"/>
<path d="M182.57 195.72C182.055 195.375 181.568 195.015 181.084 194.656C180.6 194.299 180.13 193.934 179.658 193.575C178.723 192.851 177.796 192.135 176.882 191.417L174.144 189.284C173.237 188.574 172.31 187.892 171.361 187.242C170.414 186.593 169.449 185.971 168.464 185.383C167.482 184.793 166.486 184.228 165.471 183.704C163.435 182.665 161.358 181.713 159.214 180.941C158.147 180.54 157.066 180.185 155.977 179.853L154.331 179.402C153.786 179.238 153.229 179.121 152.676 178.993L151.845 178.8C151.706 178.769 151.568 178.734 151.429 178.706L151.01 178.63L149.334 178.325C148.772 178.237 148.208 178.166 147.647 178.085L147.225 178.026L147.014 177.996L146.801 177.976L145.952 177.897C145.386 177.844 144.822 177.779 144.253 177.761L143.402 177.716L142.976 177.694C142.833 177.685 142.692 177.677 142.549 177.678L140.843 177.659C140.701 177.656 140.558 177.658 140.417 177.664L139.991 177.676L139.137 177.7C136.862 177.79 134.591 178.023 132.339 178.395C130.088 178.773 127.86 179.293 125.668 179.941L124.847 180.188L124.642 180.25C124.626 180.255 124.603 180.261 124.596 180.264L124.573 180.274L124.528 180.29C124.464 180.308 124.415 180.34 124.359 180.362C124.161 180.473 124.019 180.598 123.918 180.776C123.698 181.112 123.691 181.699 123.91 182.051C124.011 182.235 124.15 182.362 124.336 182.469C124.362 182.48 124.385 182.493 124.41 182.506C124.434 182.52 124.465 182.526 124.492 182.539L124.533 182.557L124.579 182.57L124.685 182.603L125.574 182.847C126.755 183.183 127.926 183.56 129.085 183.971C130.245 184.377 131.386 184.839 132.513 185.332C133.642 185.82 134.746 186.362 135.839 186.925L136.651 187.362C136.921 187.508 137.186 187.664 137.453 187.815C137.991 188.113 138.512 188.439 139.037 188.757C140.076 189.414 141.103 190.087 142.091 190.817C144.074 192.263 145.959 193.839 147.708 195.549C148.142 195.981 148.581 196.405 148.997 196.853L149.627 197.516L150.241 198.195L150.545 198.537C150.643 198.654 150.742 198.77 150.838 198.888C151.034 199.122 151.226 199.358 151.418 199.595C151.786 200.082 152.158 200.563 152.497 201.071C153.189 202.074 153.804 203.132 154.344 204.227C154.615 204.774 154.861 205.335 155.084 205.906C155.14 206.048 155.193 206.192 155.244 206.338C155.297 206.483 155.349 206.627 155.396 206.774C155.491 207.067 155.58 207.364 155.656 207.667C155.409 207.473 155.176 207.274 154.948 207.071C154.716 206.871 154.488 206.671 154.267 206.465C153.816 206.064 153.386 205.653 152.95 205.249C152.088 204.437 151.249 203.624 150.412 202.82C150.001 202.412 149.576 202.019 149.169 201.61C148.96 201.412 148.751 201.212 148.547 201.011C148.443 200.911 148.341 200.81 148.239 200.708L147.926 200.411L147.305 199.814L146.669 199.232C146.251 198.839 145.81 198.472 145.379 198.094C145.165 197.903 144.939 197.726 144.72 197.542L144.057 196.996L143.379 196.47C143.151 196.297 142.932 196.114 142.699 195.948C141.784 195.264 140.849 194.605 139.897 193.978C139.658 193.822 139.422 193.662 139.18 193.51L138.453 193.059C138.213 192.905 137.967 192.761 137.722 192.616C137.476 192.472 137.232 192.324 136.985 192.183C135.992 191.625 134.993 191.077 133.97 190.579C132.949 190.076 131.919 189.591 130.866 189.159C130.605 189.045 130.34 188.941 130.075 188.836C129.81 188.731 129.548 188.622 129.281 188.525L128.483 188.221L127.679 187.933C126.605 187.558 125.518 187.216 124.422 186.907L123.599 186.681L123.447 186.635L123.281 186.584L123.116 186.531L122.951 186.466C122.842 186.421 122.731 186.38 122.623 186.327C122.515 186.273 122.409 186.219 122.302 186.164C121.879 185.928 121.479 185.633 121.126 185.287C120.772 184.941 120.476 184.54 120.236 184.116C119.997 183.69 119.818 183.237 119.7 182.773C119.586 182.308 119.532 181.833 119.538 181.358C119.545 180.883 119.609 180.407 119.738 179.944C119.869 179.481 120.061 179.031 120.315 178.61C120.568 178.191 120.88 177.799 121.245 177.468C121.607 177.136 122.012 176.854 122.437 176.634C122.65 176.532 122.866 176.428 123.083 176.355L123.247 176.297L123.329 176.269L123.388 176.251L123.608 176.186L124.489 175.924C126.84 175.239 129.233 174.693 131.654 174.295C134.074 173.893 136.521 173.64 138.978 173.543L139.899 173.517L140.36 173.503C140.513 173.498 140.667 173.495 140.821 173.499L142.666 173.519C142.82 173.518 142.973 173.526 143.126 173.536L143.587 173.559L144.508 173.608C145.123 173.631 145.736 173.701 146.349 173.758L147.268 173.847L147.497 173.869L147.726 173.901L148.183 173.965C148.792 174.054 149.404 174.132 150.011 174.23L151.825 174.578L152.278 174.666C152.429 174.698 152.578 174.737 152.727 174.772L153.625 174.988C154.829 175.249 156 175.634 157.18 175.979C158.348 176.364 159.511 176.766 160.648 177.233C161.22 177.459 161.781 177.71 162.343 177.955C162.625 178.078 162.902 178.212 163.181 178.341C163.46 178.47 163.737 178.598 164.012 178.737C165.119 179.267 166.193 179.862 167.253 180.476C168.311 181.093 169.344 181.752 170.358 182.435C171.37 183.122 172.347 183.856 173.306 184.609C174.263 185.365 175.199 186.146 176.099 186.964C176.998 187.785 177.849 188.656 178.642 189.579C179.438 190.498 180.174 191.47 180.839 192.49C181.5 193.513 182.103 194.574 182.57 195.72Z" fill="black"/>
<g opacity="0.5">
<path d="M127.15 183.395C126.392 183.347 125.826 182.782 125.8 182.167C125.772 181.507 126.379 181.087 126.414 181.063C126.414 181.063 147.273 173.651 168.819 187.176L181.986 195.012C181.986 195.012 177.04 188.644 167.855 183.219C167.855 183.219 149.126 172.426 128.29 177.082C128.208 177.099 126.414 177.503 126.414 177.503C126.414 177.503 127.452 177.27 128.29 177.082C124.309 178.014 121.92 179.913 122.118 181.185C122.292 182.3 124.486 183.155 127.15 183.395Z" fill="white"/>
</g>
<path d="M182.57 195.72C182.055 195.375 181.568 195.015 181.084 194.656C180.6 194.299 180.13 193.934 179.658 193.575C178.723 192.851 177.796 192.135 176.882 191.417L174.144 189.284C173.237 188.574 172.31 187.892 171.361 187.242C170.414 186.593 169.449 185.971 168.464 185.383C167.482 184.793 166.486 184.228 165.471 183.704C163.435 182.665 161.358 181.713 159.214 180.941C158.147 180.54 157.066 180.185 155.977 179.853L154.331 179.402C153.786 179.238 153.229 179.121 152.676 178.993L151.845 178.8C151.706 178.769 151.568 178.734 151.429 178.706L151.01 178.63L149.334 178.325C148.772 178.237 148.208 178.166 147.647 178.085L147.225 178.026L147.014 177.996L146.801 177.976L145.952 177.897C145.386 177.844 144.822 177.779 144.253 177.761L143.402 177.716L142.976 177.694C142.833 177.685 142.692 177.677 142.549 177.678L140.843 177.659C140.701 177.656 140.558 177.658 140.417 177.664L139.991 177.676L139.137 177.7C136.862 177.79 134.591 178.023 132.339 178.395C130.088 178.773 127.86 179.293 125.668 179.941L124.847 180.188L124.642 180.25C124.626 180.255 124.603 180.261 124.596 180.264L124.573 180.274L124.528 180.29C124.464 180.308 124.415 180.34 124.359 180.362C124.161 180.473 124.019 180.598 123.918 180.776C123.698 181.112 123.691 181.699 123.91 182.051C124.011 182.235 124.15 182.362 124.336 182.469C124.362 182.48 124.385 182.493 124.41 182.506C124.434 182.52 124.465 182.526 124.492 182.539L124.533 182.557L124.579 182.57L124.685 182.603L125.574 182.847C126.755 183.183 127.926 183.56 129.085 183.971C130.245 184.377 131.386 184.839 132.513 185.332C133.642 185.82 134.746 186.362 135.839 186.925L136.651 187.362C136.921 187.508 137.186 187.664 137.453 187.815C137.991 188.113 138.512 188.439 139.037 188.757C140.076 189.414 141.103 190.087 142.091 190.817C144.074 192.263 145.959 193.839 147.708 195.549C148.142 195.981 148.581 196.405 148.997 196.853L149.627 197.516L150.241 198.195L150.545 198.537C150.643 198.654 150.742 198.77 150.838 198.888C151.034 199.122 151.226 199.358 151.418 199.595C151.786 200.082 152.158 200.563 152.497 201.071C153.189 202.074 153.804 203.132 154.344 204.227C154.615 204.774 154.861 205.335 155.084 205.906C155.14 206.048 155.193 206.192 155.244 206.338C155.297 206.483 155.349 206.627 155.396 206.774C155.491 207.067 155.58 207.364 155.656 207.667C155.409 207.473 155.176 207.274 154.948 207.071C154.716 206.871 154.488 206.671 154.267 206.465C153.816 206.064 153.386 205.653 152.95 205.249C152.088 204.437 151.249 203.624 150.412 202.82C150.001 202.412 149.576 202.019 149.169 201.61C148.96 201.412 148.751 201.212 148.547 201.011C148.443 200.911 148.341 200.81 148.239 200.708L147.926 200.411L147.305 199.814L146.669 199.232C146.251 198.839 145.81 198.472 145.379 198.094C145.165 197.903 144.939 197.726 144.72 197.542L144.057 196.996L143.379 196.47C143.151 196.297 142.932 196.114 142.699 195.948C141.784 195.264 140.849 194.605 139.897 193.978C139.658 193.822 139.422 193.662 139.18 193.51L138.453 193.059C138.213 192.905 137.967 192.761 137.722 192.616C137.476 192.472 137.232 192.324 136.985 192.183C135.992 191.625 134.993 191.077 133.97 190.579C132.949 190.076 131.919 189.591 130.866 189.159C130.605 189.045 130.34 188.941 130.075 188.836C129.81 188.731 129.548 188.622 129.281 188.525L128.483 188.221L127.679 187.933C126.605 187.558 125.518 187.216 124.422 186.907L123.599 186.681L123.447 186.635L123.281 186.584L123.116 186.531L122.951 186.466C122.842 186.421 122.731 186.38 122.623 186.327C122.515 186.273 122.409 186.219 122.302 186.164C121.879 185.928 121.479 185.633 121.126 185.287C120.772 184.941 120.476 184.54 120.236 184.116C119.997 183.69 119.818 183.237 119.7 182.773C119.586 182.308 119.532 181.833 119.538 181.358C119.545 180.883 119.609 180.407 119.738 179.944C119.869 179.481 120.061 179.031 120.315 178.61C120.568 178.191 120.88 177.799 121.245 177.468C121.607 177.136 122.012 176.854 122.437 176.634C122.65 176.532 122.866 176.428 123.083 176.355L123.247 176.297L123.329 176.269L123.388 176.251L123.608 176.186L124.489 175.924C126.84 175.239 129.233 174.693 131.654 174.295C134.074 173.893 136.521 173.64 138.978 173.543L139.899 173.517L140.36 173.503C140.513 173.498 140.667 173.495 140.821 173.499L142.666 173.519C142.82 173.518 142.973 173.526 143.126 173.536L143.587 173.559L144.508 173.608C145.123 173.631 145.736 173.701 146.349 173.758L147.268 173.847L147.497 173.869L147.726 173.901L148.183 173.965C148.792 174.054 149.404 174.132 150.011 174.23L151.825 174.578L152.278 174.666C152.429 174.698 152.578 174.737 152.727 174.772L153.625 174.988C154.829 175.249 156 175.634 157.18 175.979C158.348 176.364 159.511 176.766 160.648 177.233C161.22 177.459 161.781 177.71 162.343 177.955C162.625 178.078 162.902 178.212 163.181 178.341C163.46 178.47 163.737 178.598 164.012 178.737C165.119 179.267 166.193 179.862 167.253 180.476C168.311 181.093 169.344 181.752 170.358 182.435C171.37 183.122 172.347 183.856 173.306 184.609C174.263 185.365 175.199 186.146 176.099 186.964C176.998 187.785 177.849 188.656 178.642 189.579C179.438 190.498 180.174 191.47 180.839 192.49C181.5 193.513 182.103 194.574 182.57 195.72Z" fill="black"/>
<g opacity="0.25">
<path d="M237.187 180.238C231.1 183.413 221.299 187.247 209.166 186.769C194.758 186.2 174.193 179.436 166.188 161.957C163.223 155.483 162.794 149.318 162.9 145.177C165.602 151.24 171.283 161.58 182.451 169.907C205.564 187.143 232.748 181.272 237.187 180.238Z" fill="black"/>
</g>
<path d="M181.491 218.102C189.391 223.711 200.374 221.462 205.465 213.219C214.651 198.342 217.611 184.046 212.094 174.231C209.763 170.085 203.487 162.478 196.287 163.569C190.45 164.453 185.456 170.321 184.27 180.271C184.175 181.068 184.05 181.86 183.879 182.643C182.902 187.111 181.103 192.907 177.652 199.07C177.561 199.232 177.471 199.392 177.38 199.55C173.776 205.845 175.492 213.84 181.406 218.039L181.491 218.102Z" fill="white"/>
<path d="M191.123 223.281C187.268 223.281 183.521 222.091 180.29 219.799L180.203 219.737C176.921 217.406 174.644 213.957 173.792 210.023C172.941 206.1 173.574 202.015 175.575 198.52C175.663 198.366 175.751 198.212 175.837 198.056C178.605 193.114 180.627 187.78 181.848 182.201C181.994 181.535 182.11 180.824 182.205 180.027C182.813 174.928 184.428 170.518 186.874 167.272C189.31 164.04 192.457 162.05 195.975 161.517C204.233 160.264 211.131 168.281 213.905 173.214C216.845 178.445 217.664 184.83 216.339 192.196C215.097 199.098 212.033 206.54 207.233 214.312C204.461 218.8 200.09 221.849 194.925 222.896C193.656 223.154 192.383 223.281 191.123 223.281ZM197.657 165.545C197.303 165.545 196.951 165.572 196.597 165.625C194.176 165.992 191.961 167.426 190.192 169.774C188.188 172.433 186.852 176.15 186.331 180.52C186.219 181.452 186.082 182.293 185.906 183.091C184.598 189.069 182.43 194.788 179.461 200.089C179.367 200.256 179.274 200.422 179.179 200.586C176.086 205.989 177.559 212.766 182.605 216.348L182.692 216.41C186.032 218.781 190.082 219.639 194.096 218.825C198.124 218.008 201.533 215.63 203.695 212.13C208.22 204.802 211.097 197.848 212.246 191.462C213.395 185.071 212.734 179.618 210.28 175.252C208 171.19 202.892 165.545 197.657 165.545Z" fill="black"/>
<path d="M207.658 165.496L207.682 165.544L207.697 165.579L207.726 165.645L207.775 165.769C207.805 165.848 207.837 165.929 207.863 166.006C207.92 166.163 207.971 166.316 208.02 166.469C208.119 166.776 208.203 167.08 208.281 167.385C208.436 167.995 208.557 168.608 208.642 169.224C208.813 170.455 208.853 171.701 208.709 172.924C208.639 173.534 208.528 174.136 208.361 174.721C208.197 175.305 207.994 175.874 207.731 176.41L207.636 176.61C207.604 176.677 207.566 176.741 207.531 176.806L207.317 177.193C207.156 177.44 207.012 177.693 206.833 177.922C206.501 178.397 206.106 178.819 205.712 179.219C205.968 178.714 206.208 178.211 206.371 177.684C206.467 177.427 206.523 177.156 206.596 176.898L206.676 176.5C206.688 176.433 206.703 176.369 206.713 176.303L206.739 176.103C206.817 175.575 206.834 175.044 206.815 174.523C206.799 174.002 206.732 173.485 206.631 172.979C206.434 171.969 206.086 170.998 205.645 170.083C205.424 169.626 205.179 169.183 204.913 168.76C204.779 168.548 204.642 168.34 204.5 168.143C204.428 168.045 204.357 167.947 204.285 167.856C204.249 167.809 204.213 167.767 204.178 167.723L204.127 167.664C204.117 167.653 204.111 167.648 204.104 167.64L204.093 167.629C204.091 167.628 204.092 167.632 204.091 167.633L207.658 165.496Z" fill="black"/>
<path d="M198.448 162.653L198.471 162.702L198.487 162.736L198.515 162.802L198.565 162.926C198.595 163.005 198.627 163.086 198.653 163.163C198.71 163.32 198.761 163.473 198.81 163.626C198.908 163.933 198.993 164.237 199.071 164.542C199.225 165.152 199.346 165.765 199.432 166.381C199.603 167.612 199.643 168.858 199.498 170.081C199.428 170.691 199.318 171.293 199.15 171.878C198.987 172.463 198.784 173.031 198.521 173.567L198.426 173.768C198.394 173.834 198.356 173.898 198.321 173.963L198.107 174.351C197.945 174.597 197.802 174.85 197.622 175.081C197.291 175.556 196.896 175.977 196.502 176.377C196.758 175.873 196.998 175.369 197.161 174.842C197.257 174.586 197.313 174.315 197.386 174.056L197.464 173.658C197.476 173.592 197.492 173.528 197.501 173.461L197.527 173.262C197.606 172.733 197.622 172.203 197.603 171.681C197.588 171.16 197.52 170.644 197.419 170.138C197.222 169.127 196.874 168.156 196.434 167.242C196.213 166.785 195.967 166.342 195.701 165.918C195.567 165.707 195.431 165.499 195.288 165.302C195.217 165.203 195.146 165.106 195.073 165.014C195.038 164.967 195.002 164.925 194.966 164.881L194.915 164.822C194.906 164.811 194.9 164.807 194.893 164.798L194.882 164.788C194.88 164.786 194.881 164.79 194.88 164.791L198.448 162.653Z" fill="black"/>
<path d="M105.46 216.439C98.3118 222.98 87.1353 222.103 81.0668 214.551C70.1148 200.923 65.4141 187.1 69.679 176.68C71.4802 172.277 76.7698 163.954 84.0506 164.149C89.9517 164.307 95.6319 169.513 98.0363 179.241C98.2286 180.02 98.4507 180.791 98.7166 181.547C100.238 185.859 102.738 191.39 106.924 197.08C107.033 197.228 107.143 197.377 107.252 197.523C111.605 203.325 110.889 211.47 105.538 216.368L105.46 216.439Z" fill="white"/>
<path d="M94.2013 222.911C93.7098 222.911 93.2158 222.892 92.7195 222.854C87.4644 222.452 82.7506 219.965 79.4462 215.854C73.7245 208.733 69.7659 201.727 67.6821 195.03C65.4582 187.885 65.4831 181.446 67.7545 175.894C69.8715 170.72 75.6088 162.068 83.7931 162.068C83.8964 162.068 83.9997 162.07 84.1042 162.073C87.6603 162.168 91.0287 163.756 93.8451 166.662C96.6734 169.581 98.8189 173.759 100.051 178.745C100.244 179.523 100.448 180.214 100.675 180.858C102.573 186.243 105.239 191.286 108.597 195.851C108.702 195.994 108.808 196.137 108.914 196.278C111.33 199.499 112.463 203.476 112.103 207.473C111.742 211.483 109.909 215.186 106.94 217.903L106.861 217.975C103.351 221.186 98.902 222.911 94.2013 222.911ZM83.8085 166.224C78.2328 166.224 73.4644 172.916 71.6015 177.467C69.7041 182.102 69.7208 187.596 71.6502 193.795C73.5784 199.992 77.2912 206.538 82.6865 213.25C85.2642 216.457 88.9402 218.397 93.0377 218.71C97.1222 219.023 101.036 217.673 104.057 214.907L104.136 214.835C108.701 210.657 109.327 203.75 105.59 198.77C105.476 198.618 105.364 198.466 105.25 198.312C101.65 193.418 98.7916 188.011 96.7565 182.239C96.4846 181.468 96.2436 180.65 96.018 179.741C94.9612 175.468 93.1778 171.945 90.8613 169.553C88.8167 167.443 86.4421 166.293 83.9938 166.228C83.932 166.225 83.8691 166.224 83.8085 166.224Z" fill="black"/>
<g opacity="0.25">
<path d="M80.4367 210.523C81.3462 211.661 84.3324 215.103 88.7042 215.32C95.0814 215.637 99.0542 209.437 99.7939 208.269C105.473 199.306 99.2632 188.022 98.9224 187.423C106.632 193.4 109.85 202.678 107.126 210.202C105.513 214.657 100.728 221.467 93.2529 221.203C87.9526 221.017 82.9575 216.76 80.4367 210.523Z" fill="black"/>
<path d="M93.662 221.27C93.5255 221.27 93.3878 221.268 93.2512 221.263C87.9901 221.078 82.9392 216.871 80.3816 210.545L80.2296 210.168L80.4837 210.485C81.8409 212.183 84.7142 215.061 88.7084 215.26C88.8652 215.268 89.0207 215.272 89.1739 215.272C94.6808 215.272 98.3853 210.384 99.746 208.237C105.456 199.223 99.144 187.928 98.8733 187.452L98.726 187.193L98.9611 187.376C102.733 190.301 105.51 194.048 106.995 198.213C108.467 202.345 108.532 206.498 107.185 210.223C106.726 211.489 105.347 214.734 102.432 217.516C99.8505 219.977 96.8263 221.27 93.662 221.27ZM80.644 210.87C83.2289 216.946 88.1433 220.964 93.2548 221.144C100.949 221.417 105.655 214.093 107.069 210.183C109.809 202.615 106.612 193.592 99.1131 187.648C100.074 189.447 105.19 199.861 99.8433 208.301C98.4339 210.526 94.5276 215.671 88.7001 215.378C84.8959 215.19 82.1009 212.602 80.644 210.87Z" fill="black"/>
</g>
<g opacity="0.25">
<path d="M206.293 208.231C205.754 209.514 203.909 213.456 199.931 214.775C194.129 216.7 188.82 211.993 187.829 211.104C180.214 204.282 182.959 192.275 183.116 191.635C182.309 192.192 176.047 196.664 175.625 204.519C175.567 205.608 175.389 211.063 179.187 215.561C180.501 217.119 181.813 217.994 182.63 218.53C184.377 219.675 190.738 223.849 197.29 221.372C202.316 219.472 205.818 214.277 206.293 208.231Z" fill="black"/>
<path d="M192.988 222.211C189.762 222.211 186.283 220.998 182.596 218.579C181.859 218.096 180.487 217.196 179.14 215.599C175.501 211.288 175.483 206.025 175.563 204.515C175.975 196.858 181.897 192.402 183.08 191.586L183.209 191.497L183.172 191.649C183.047 192.158 180.211 204.2 187.867 211.06C189.741 212.74 194.668 216.459 199.911 214.719C203.543 213.514 205.433 210.123 206.237 208.208L206.38 207.867L206.351 208.235C205.871 214.355 202.321 219.533 197.31 221.428C195.926 221.95 194.485 222.211 192.988 222.211ZM183.022 191.773C181.603 192.779 176.079 197.163 175.683 204.521C175.603 206.021 175.62 211.244 179.231 215.522C180.567 217.104 181.93 217.999 182.661 218.478C188.025 221.996 192.939 222.951 197.268 221.315C202.138 219.474 205.615 214.503 206.202 208.59C205.318 210.562 203.422 213.679 199.95 214.831C194.649 216.589 189.68 212.841 187.789 211.148C180.449 204.573 182.683 193.282 183.022 191.773Z" fill="black"/>
</g>
<path d="M72.9574 167.702L72.9396 167.754L72.9289 167.79L72.9088 167.86L72.8743 167.989C72.8541 168.071 72.8328 168.155 72.8161 168.235C72.7793 168.396 72.7473 168.555 72.7176 168.713C72.657 169.029 72.6119 169.343 72.5704 169.655C72.492 170.279 72.4481 170.903 72.4386 171.525C72.4207 172.768 72.5347 174.009 72.8292 175.204C72.9729 175.802 73.1581 176.386 73.3967 176.945C73.6307 177.504 73.9037 178.043 74.2291 178.542L74.3478 178.73C74.3882 178.791 74.4333 178.851 74.476 178.911L74.7361 179.269C74.9272 179.494 75.1006 179.727 75.3072 179.932C75.6942 180.363 76.1383 180.732 76.5788 181.081C76.2618 180.61 75.9626 180.141 75.7358 179.639C75.6088 179.397 75.5197 179.135 75.4152 178.888L75.2882 178.503C75.268 178.439 75.2442 178.376 75.2276 178.312L75.1766 178.117C75.0329 177.603 74.951 177.078 74.9059 176.558C74.8572 176.038 74.8596 175.518 74.8975 175.004C74.9688 173.977 75.1944 172.97 75.5185 172.008C75.6812 171.527 75.8712 171.057 76.0813 170.604C76.1882 170.378 76.2974 170.155 76.415 169.941C76.4731 169.834 76.5325 169.728 76.5919 169.629C76.6216 169.578 76.6513 169.531 76.6809 169.483L76.7249 169.417C76.732 169.406 76.7379 169.4 76.745 169.39L76.7545 169.378C76.7569 169.376 76.7569 169.381 76.7569 169.382L72.9574 167.702Z" fill="black"/>
<path d="M81.7909 163.505L81.773 163.557L81.7624 163.593L81.7422 163.663L81.7078 163.792C81.6876 163.874 81.6662 163.958 81.6496 164.038C81.6128 164.199 81.5807 164.359 81.551 164.516C81.4905 164.832 81.4453 165.146 81.4038 165.458C81.3254 166.083 81.2815 166.706 81.272 167.328C81.2542 168.571 81.3682 169.812 81.6626 171.008C81.8063 171.605 81.9915 172.189 82.229 172.748C82.4629 173.308 82.736 173.847 83.0613 174.345L83.1801 174.533C83.2204 174.595 83.2655 174.654 83.3083 174.715L83.5683 175.072C83.7595 175.298 83.9328 175.53 84.1394 175.736C84.5265 176.167 84.9706 176.535 85.4111 176.884C85.094 176.414 84.7948 175.945 84.568 175.442C84.441 175.2 84.352 174.938 84.2475 174.691L84.1204 174.306C84.1002 174.242 84.0765 174.179 84.0599 174.115L84.0088 173.92C83.8651 173.406 83.7832 172.881 83.7381 172.361C83.6894 171.841 83.6918 171.321 83.7298 170.807C83.801 169.78 84.0266 168.773 84.3508 167.811C84.5134 167.33 84.7034 166.86 84.9136 166.407C85.0204 166.181 85.1297 165.958 85.2472 165.744C85.3054 165.637 85.3648 165.532 85.4241 165.432C85.4538 165.381 85.4835 165.335 85.5132 165.286L85.5571 165.221C85.5642 165.209 85.5702 165.203 85.5773 165.193L85.5868 165.181C85.5892 165.179 85.5892 165.184 85.5892 165.185L81.7909 163.505Z" fill="black"/>
<g opacity="0.25">
<path d="M32.0741 183.267C32.0741 183.267 21.2099 201.138 18.6358 214.25C18.409 215.406 19.7293 216.23 20.6661 215.515C25.5295 211.804 36.3924 202.848 42.8444 192.41C44.7667 189.3 48.3822 187.667 51.9834 188.294L53.8024 188.611L44.9591 199.89C44.9591 199.89 12.8392 234.443 11.8893 220.788C10.9394 207.134 32.0741 183.267 32.0741 183.267Z" fill="black"/>
</g>
<g opacity="0.25">
<path d="M94.9444 170.026C95.6556 170.076 96.7943 170.245 98.0315 170.858C98.0315 170.858 99.055 171.364 99.9312 172.164C102.299 174.323 103.646 180.113 103.731 180.475C105.009 185.934 108.231 191.152 111.923 194.248C114.573 196.471 117.11 197.302 120.472 198.404C121.072 198.6 133.079 202.456 134.949 199.171C136.056 197.227 133.129 193.631 131.989 192.23C128.785 188.291 124.7 186.699 122.609 186.055C125.356 186.386 129.445 187.034 134.245 188.43C142.504 190.833 146.851 193.701 150.817 195.351C156.451 197.695 165.269 199.225 178.889 194.961C178.889 194.961 170.963 204.983 177.182 212.143C177.182 212.143 132.857 214.471 110.28 201.925C107.415 198.289 104.164 193.524 101.237 187.599C97.9674 180.978 96.0759 174.88 94.9444 170.026Z" fill="black"/>
</g>
<g opacity="0.25">
<path d="M166.897 165.991C166.897 165.991 160.604 175.608 177.939 189.619C177.939 189.619 160.633 175.869 144.708 175.917L166.897 165.991Z" fill="black"/>
</g>
<g opacity="0.25">
<path d="M89.1046 220.053C89.1046 220.053 105.199 232.296 114.619 213.557C115.154 212.494 116.352 211.945 117.502 212.246C125.242 214.277 153.549 221.195 172.343 219.095C173.083 219.012 173.82 219.269 174.354 219.787C177.438 222.782 188.908 232.011 201.248 217.842C201.248 217.842 180.536 226.889 176.092 210.628C176.092 210.628 135.551 213.246 110.261 201.966C110.443 202.795 111.93 210.126 106.936 215.858C102.713 220.706 95.5934 222.412 89.1046 220.053Z" fill="black"/>
</g>
<path d="M240.466 138.376C244.125 138.301 247.016 134.583 246.923 130.073C246.831 125.562 243.79 121.966 240.131 122.041C236.472 122.116 233.58 125.834 233.673 130.345C233.765 134.855 236.807 138.451 240.466 138.376Z" fill="black"/>
<path d="M235.526 130.28C235.558 131.859 236.44 133.123 237.496 133.101C238.551 133.08 239.38 131.782 239.348 130.202C239.316 128.623 238.434 127.359 237.378 127.381C236.322 127.402 235.494 128.7 235.526 130.28Z" fill="white"/>
<path d="M209.048 129.914C209.084 125.402 206.146 121.721 202.486 121.692C198.826 121.664 195.831 125.298 195.795 129.809C195.759 134.321 198.697 138.001 202.357 138.03C206.017 138.059 209.013 134.425 209.048 129.914Z" fill="black"/>
<path d="M207.316 129.511C207.329 127.931 206.483 126.644 205.427 126.635C204.371 126.627 203.505 127.901 203.493 129.481C203.481 131.06 204.326 132.348 205.382 132.356C206.438 132.364 207.304 131.09 207.316 129.511Z" fill="white"/>
<path d="M227.497 141.015C227.933 143.054 224.108 146.612 220.199 146.48C216.573 146.358 213.074 143.064 213.507 141.077C214.009 138.773 219.719 138.56 220.129 138.547C222.558 138.475 227.071 139.019 227.497 141.015Z" fill="black"/>
<path d="M226.81 143.541C227.546 142.615 227.864 141.701 227.707 140.967C227.209 138.631 222.063 138.267 220.123 138.323C219.48 138.342 213.831 138.578 213.297 141.028C213.145 141.724 213.415 142.584 214.058 143.451C215.173 144.957 217.568 146.617 220.192 146.706C220.284 146.709 220.377 146.71 220.469 146.709C223.111 146.685 225.589 145.077 226.81 143.541ZM227.287 141.065C227.413 141.651 227.117 142.45 226.477 143.255C225.279 144.763 222.805 146.346 220.205 146.257C217.721 146.173 215.453 144.602 214.397 143.177C213.836 142.418 213.594 141.69 213.716 141.128C214.092 139.402 218.078 138.832 220.133 138.772C220.237 138.768 220.34 138.767 220.447 138.766C223.181 138.742 226.935 139.414 227.287 141.065Z" fill="black"/>
<path d="M223.543 140.294C223.582 140.653 222.019 141.305 220.448 141.297C218.897 141.29 217.357 140.641 217.396 140.287C217.444 139.836 220.053 139.833 220.435 139.833C220.762 139.833 223.492 139.831 223.543 140.294Z" fill="white"/>
<path d="M219.226 142.592L219.218 142.792C219.216 142.852 219.214 142.913 219.214 142.971C219.213 143.09 219.214 143.205 219.218 143.321C219.225 143.552 219.238 143.782 219.259 144.011C219.278 144.24 219.308 144.468 219.341 144.696L219.396 145.038L219.464 145.379C219.655 146.285 219.948 147.186 220.389 148.048C220.604 148.479 220.865 148.897 221.153 149.298L221.384 149.592L221.5 149.738L221.626 149.878C221.71 149.97 221.794 150.064 221.88 150.156C221.968 150.246 222.064 150.33 222.155 150.417C222.523 150.765 222.938 151.066 223.371 151.333C223.48 151.399 223.594 151.456 223.706 151.516C223.819 151.574 223.929 151.638 224.044 151.69L224.394 151.838C224.51 151.885 224.625 151.94 224.746 151.973L225.105 152.085L225.284 152.14C225.343 152.157 225.405 152.168 225.465 152.182L225.827 152.262L226.008 152.3C226.069 152.312 226.129 152.318 226.19 152.326C226.311 152.343 226.432 152.357 226.552 152.371C226.673 152.384 226.794 152.403 226.913 152.404C227.153 152.413 227.393 152.426 227.63 152.428C227.867 152.419 228.102 152.411 228.337 152.4C228.455 152.397 228.567 152.377 228.682 152.364L229.024 152.322L229.195 152.301L229.281 152.29L229.339 152.282L229.401 152.271C229.549 152.245 229.672 152.214 229.8 152.181C230.05 152.113 230.29 152.034 230.523 151.935C230.988 151.742 231.425 151.482 231.817 151.164C232.206 150.844 232.549 150.467 232.813 150.045C233.34 149.201 233.56 148.219 233.39 147.312C233.096 147.67 232.826 147.997 232.539 148.278C232.254 148.561 231.96 148.8 231.661 149.003C231.065 149.407 230.436 149.675 229.783 149.852C229.62 149.894 229.456 149.933 229.297 149.958C229.22 149.971 229.137 149.981 229.078 149.985C229.069 149.986 229.065 149.985 229.061 149.985C229.056 149.985 229.063 149.983 229.059 149.983H229.041L228.97 149.985L228.826 149.988L228.54 149.995C228.445 149.995 228.349 150.005 228.257 149.996C228.072 149.987 227.888 149.981 227.704 149.975C227.522 149.957 227.344 149.932 227.165 149.913C227.075 149.907 226.989 149.884 226.902 149.867C226.816 149.849 226.729 149.831 226.642 149.816C226.6 149.808 226.555 149.802 226.513 149.79L226.388 149.754L226.139 149.685C226.097 149.673 226.055 149.665 226.015 149.65L225.897 149.603L225.658 149.514C225.029 149.269 224.475 148.902 223.991 148.443C223.932 148.385 223.869 148.331 223.811 148.269C223.755 148.205 223.698 148.144 223.641 148.081L223.554 147.989L223.475 147.888L223.314 147.687C223.116 147.404 222.914 147.118 222.749 146.8C222.66 146.646 222.583 146.482 222.502 146.32C222.461 146.24 222.428 146.154 222.39 146.071C222.354 145.987 222.316 145.905 222.284 145.817C222.14 145.477 222.025 145.121 221.911 144.761C221.8 144.4 221.709 144.03 221.627 143.657C221.587 143.471 221.55 143.283 221.515 143.097L221.428 142.568L221.409 142.452C221.31 141.854 220.744 141.448 220.145 141.547C219.62 141.638 219.245 142.082 219.226 142.592Z" fill="black"/>
<path d="M219.228 142.671L219.143 143.197C219.109 143.382 219.074 143.569 219.036 143.754C218.996 143.939 218.954 144.123 218.91 144.306C218.864 144.489 218.815 144.67 218.764 144.85C218.74 144.94 218.71 145.028 218.683 145.117C218.655 145.205 218.628 145.295 218.598 145.382L218.508 145.643L218.41 145.898C218.378 145.984 218.345 146.068 218.308 146.15L218.202 146.399C218.123 146.558 218.053 146.725 217.967 146.877C217.813 147.195 217.619 147.478 217.432 147.761C217.383 147.83 217.329 147.894 217.28 147.962C217.229 148.028 217.181 148.097 217.124 148.156C217.014 148.279 216.909 148.407 216.79 148.517C216.732 148.574 216.678 148.635 216.618 148.688L216.434 148.844L216.343 148.922C216.312 148.948 216.277 148.969 216.245 148.992C216.18 149.039 216.115 149.085 216.052 149.134C215.99 149.186 215.917 149.219 215.85 149.263L215.646 149.389L215.429 149.495C215.355 149.528 215.286 149.571 215.21 149.599C214.614 149.861 213.947 150.012 213.241 150.086L212.704 150.116C212.615 150.125 212.521 150.117 212.428 150.117L212.149 150.113L212.009 150.112H211.939C211.929 150.112 211.909 150.112 211.918 150.113C211.915 150.113 211.913 150.114 211.906 150.113C211.853 150.112 211.775 150.103 211.701 150.093C211.551 150.073 211.393 150.04 211.237 149.997C210.614 149.822 210.017 149.574 209.428 149.203C209.132 149.016 208.838 148.794 208.538 148.532L208.314 148.326L208.087 148.105C208.015 148.028 207.935 147.95 207.857 147.869C207.78 147.787 207.702 147.704 207.613 147.62C207.388 148.538 207.587 149.541 208.117 150.398C208.379 150.828 208.73 151.209 209.126 151.531C209.526 151.849 209.974 152.103 210.449 152.288C210.686 152.382 210.93 152.462 211.185 152.527C211.314 152.56 211.44 152.589 211.595 152.613L211.66 152.622L211.717 152.628L211.802 152.637L211.973 152.655L212.317 152.691C212.432 152.702 212.544 152.716 212.663 152.716L213.372 152.73C214.325 152.713 215.313 152.548 216.26 152.186C216.378 152.145 216.492 152.085 216.609 152.034L216.955 151.874L217.289 151.685C217.398 151.62 217.515 151.563 217.617 151.487C217.722 151.416 217.827 151.341 217.931 151.267C217.983 151.229 218.037 151.195 218.086 151.154L218.233 151.032L218.525 150.785C218.619 150.7 218.707 150.609 218.798 150.52C219.163 150.167 219.467 149.768 219.753 149.364C219.819 149.261 219.886 149.157 219.951 149.053L220.048 148.896L220.136 148.736L220.31 148.415L220.465 148.09C220.517 147.982 220.566 147.873 220.609 147.762L220.742 147.431C220.782 147.321 220.82 147.209 220.859 147.097L220.918 146.931L220.967 146.763C221.105 146.315 221.206 145.864 221.286 145.411L221.341 145.072L221.384 144.732C221.409 144.505 221.431 144.279 221.442 144.052C221.457 143.825 221.461 143.597 221.461 143.368C221.46 143.253 221.458 143.139 221.453 143.021C221.452 142.963 221.448 142.905 221.444 142.844L221.429 142.647C221.387 142.042 220.861 141.585 220.255 141.627C219.736 141.664 219.327 142.055 219.247 142.546L219.228 142.671Z" fill="black"/>
<g opacity="0.25">
<path d="M272.808 131.557C272.244 134.373 271.416 136.897 270.433 139.156C266.438 148.337 259.152 154.8 251.299 159.336C232.527 170.178 209.485 170.427 190.263 160.403C181.738 155.958 174.082 149.497 171.527 140.224C170.849 137.76 170.47 134.885 170.696 131.557C170.696 131.557 141.303 167.303 221.719 181.725C253.356 177.687 275.231 162.435 276.606 146.042C276.885 142.728 276.459 137.788 272.808 131.557Z" fill="black"/>
</g>
<path d="M113.857 84.2501C119.126 84.1441 123.295 78.9028 123.167 72.5433C123.039 66.1838 118.663 61.1143 113.394 61.2203C108.124 61.3262 103.955 66.5675 104.083 72.927C104.211 79.2865 108.587 84.356 113.857 84.2501Z" fill="black"/>
<path d="M163.909 78.4819C165.395 78.452 166.567 76.7664 166.526 74.7169C166.484 72.6675 165.246 71.0303 163.76 71.0602C162.274 71.09 161.102 72.7757 161.143 74.8251C161.185 76.8746 162.423 78.5118 163.909 78.4819Z" fill="white"/>
<path d="M167.611 83.2816C172.882 83.2461 177.12 78.0609 177.077 71.7001C177.034 65.3393 172.727 60.2117 167.456 60.2472C162.185 60.2827 157.947 65.4679 157.99 71.8287C158.032 78.1895 162.34 83.3171 167.611 83.2816Z" fill="black"/>
<path d="M163.882 75.3356C165.368 75.3256 166.561 73.5297 166.546 71.3244C166.531 69.1191 165.314 67.3395 163.828 67.3495C162.341 67.3596 161.148 69.1554 161.163 71.3607C161.178 73.566 162.395 75.3456 163.882 75.3356Z" fill="white"/>
<path d="M117.603 76.0514C119.09 76.0414 120.283 74.2455 120.268 72.0402C120.253 69.835 119.036 68.0553 117.55 68.0654C116.063 68.0754 114.87 69.8712 114.885 72.0765C114.9 74.2818 116.117 76.0614 117.603 76.0514Z" fill="white"/>
<path d="M116.643 120.852C116.643 120.852 118.156 110.286 125.273 107.681C126.168 107.353 129.669 106.328 133.136 107.927C134.097 108.372 136.33 109.401 136.619 111.205C136.934 113.165 134.711 114.526 132.38 117.375C130.899 119.187 129.105 121.93 127.813 125.968C126.251 125.625 124.365 125.075 122.317 124.17C119.947 123.123 118.056 121.908 116.643 120.852Z" fill="#FC3D98"/>
<path d="M115.492 121.33C115.43 121.174 115.395 120.986 115.4 120.81C115.399 120.731 115.42 120.597 115.417 120.629L115.419 120.616L115.427 120.564L115.444 120.463L115.478 120.267C115.501 120.138 115.527 120.011 115.552 119.883C115.604 119.631 115.659 119.379 115.717 119.128C115.835 118.628 115.964 118.133 116.11 117.642C116.399 116.659 116.744 115.691 117.148 114.741C117.556 113.792 118.027 112.863 118.579 111.97C119.132 111.078 119.761 110.217 120.505 109.436C121.245 108.655 122.093 107.948 123.041 107.38L123.397 107.168L123.769 106.981C123.893 106.92 124.015 106.855 124.143 106.798L124.527 106.639C124.658 106.588 124.78 106.532 124.918 106.484C125.056 106.434 125.189 106.394 125.32 106.353C125.453 106.312 125.584 106.277 125.717 106.24L126.112 106.142C127.168 105.903 128.247 105.791 129.338 105.815C130.428 105.843 131.528 106.027 132.58 106.377C132.71 106.423 132.845 106.461 132.973 106.513L133.357 106.672L133.55 106.753L133.646 106.793L133.731 106.832L134.082 106.997C134.557 107.226 135.041 107.486 135.514 107.805C135.985 108.123 136.453 108.498 136.873 108.987C137.082 109.232 137.278 109.506 137.442 109.815C137.607 110.122 137.736 110.467 137.812 110.828C137.888 111.186 137.913 111.571 137.872 111.948C137.831 112.326 137.729 112.685 137.596 113.002C137.463 113.32 137.304 113.599 137.138 113.852C136.972 114.103 136.798 114.333 136.624 114.545C136.275 114.97 135.924 115.343 135.583 115.705C135.239 116.066 134.905 116.414 134.579 116.762C133.929 117.458 133.325 118.158 132.77 118.9C132.491 119.271 132.227 119.652 131.969 120.038C131.718 120.427 131.47 120.82 131.24 121.225C130.31 122.835 129.572 124.564 128.999 126.351V126.352L128.641 127.421L127.544 127.189C127.018 127.079 126.495 126.954 125.975 126.816C125.455 126.676 124.939 126.522 124.427 126.353C123.405 126.015 122.402 125.621 121.422 125.173C120.445 124.721 119.488 124.223 118.566 123.668C118.105 123.39 117.65 123.101 117.205 122.798C116.983 122.648 116.762 122.492 116.545 122.335C116.436 122.257 116.327 122.176 116.219 122.097L116.179 122.067C116.147 122.043 116.105 122.011 116.069 121.981C115.994 121.921 115.92 121.854 115.851 121.784C115.712 121.638 115.59 121.483 115.492 121.33ZM117.795 120.375C117.8 120.298 117.782 120.219 117.748 120.155C117.73 120.123 117.708 120.096 117.686 120.072C117.675 120.062 117.66 120.048 117.654 120.044L117.692 120.07C117.793 120.141 117.892 120.214 117.994 120.282C118.198 120.423 118.402 120.561 118.608 120.696C119.02 120.967 119.439 121.228 119.865 121.478C120.715 121.978 121.59 122.435 122.487 122.845C123.383 123.258 124.302 123.62 125.235 123.938C125.701 124.097 126.173 124.245 126.648 124.379C127.122 124.515 127.6 124.639 128.081 124.75L126.626 125.589V125.587C127.249 123.65 128.055 121.757 129.083 119.977C129.336 119.531 129.611 119.095 129.89 118.664C130.175 118.235 130.47 117.813 130.779 117.401C131.396 116.577 132.073 115.792 132.759 115.059C133.101 114.692 133.445 114.335 133.777 113.987C134.107 113.639 134.425 113.297 134.697 112.965C134.969 112.635 135.187 112.309 135.298 112.041C135.407 111.769 135.423 111.586 135.376 111.343C135.33 111.109 135.199 110.861 134.979 110.604C134.762 110.349 134.465 110.1 134.126 109.872C133.786 109.644 133.407 109.437 133.001 109.241L132.687 109.094L132.606 109.057L132.532 109.028L132.386 108.967L132.094 108.845C131.997 108.804 131.893 108.777 131.794 108.743C130.99 108.475 130.14 108.331 129.273 108.307C129.056 108.309 128.84 108.297 128.621 108.313C128.512 108.319 128.404 108.321 128.295 108.328L127.968 108.358C127.534 108.404 127.099 108.473 126.673 108.57L126.356 108.649C126.252 108.679 126.148 108.706 126.046 108.737C125.945 108.769 125.844 108.8 125.751 108.833C125.658 108.865 125.557 108.911 125.46 108.95L125.167 109.07C125.071 109.113 124.977 109.165 124.882 109.212L124.597 109.354L124.323 109.518C123.593 109.956 122.921 110.511 122.315 111.148C121.708 111.785 121.175 112.511 120.698 113.282C120.222 114.054 119.805 114.874 119.439 115.723C119.079 116.574 118.764 117.452 118.501 118.347C118.368 118.793 118.251 119.246 118.144 119.698C118.091 119.925 118.042 120.151 117.996 120.377C117.974 120.49 117.951 120.603 117.932 120.715L117.902 120.88L117.889 120.96L117.883 121L117.882 121.009C117.876 121.048 117.896 120.922 117.895 120.851C117.896 120.687 117.858 120.515 117.795 120.375Z" fill="black"/>
<g opacity="0.5">
<path d="M133.815 115.754C133.808 115.751 133.951 115.433 134.077 114.809C134.292 113.742 134.285 112.638 134.165 112.13C133.723 110.243 129.973 108.961 126.861 109.255C124.276 109.501 122.397 110.81 121.398 111.663C121.782 110.842 123.137 108.213 126.116 106.995C129.539 105.594 134.085 106.471 135.289 108.828C136.618 111.428 133.84 115.762 133.815 115.754Z" fill="white"/>
</g>
<path d="M115.492 121.33C115.43 121.174 115.395 120.986 115.4 120.81C115.399 120.731 115.42 120.597 115.417 120.629L115.419 120.616L115.427 120.564L115.444 120.463L115.478 120.267C115.501 120.138 115.527 120.011 115.552 119.883C115.604 119.631 115.659 119.379 115.717 119.128C115.835 118.628 115.964 118.133 116.11 117.642C116.399 116.659 116.744 115.691 117.148 114.741C117.556 113.792 118.027 112.863 118.579 111.97C119.132 111.078 119.761 110.217 120.505 109.436C121.245 108.655 122.093 107.948 123.041 107.38L123.397 107.168L123.769 106.981C123.893 106.92 124.015 106.855 124.143 106.798L124.527 106.639C124.658 106.588 124.78 106.532 124.918 106.484C125.056 106.434 125.189 106.394 125.32 106.353C125.453 106.312 125.584 106.277 125.717 106.24L126.112 106.142C127.168 105.903 128.247 105.791 129.338 105.815C130.428 105.843 131.528 106.027 132.58 106.377C132.71 106.423 132.845 106.461 132.973 106.513L133.357 106.672L133.55 106.753L133.646 106.793L133.731 106.832L134.082 106.997C134.557 107.226 135.041 107.486 135.514 107.805C135.985 108.123 136.453 108.498 136.873 108.987C137.082 109.232 137.278 109.506 137.442 109.815C137.607 110.122 137.736 110.467 137.812 110.828C137.888 111.186 137.913 111.571 137.872 111.948C137.831 112.326 137.729 112.685 137.596 113.002C137.463 113.32 137.304 113.599 137.138 113.852C136.972 114.103 136.798 114.333 136.624 114.545C136.275 114.97 135.924 115.343 135.583 115.705C135.239 116.066 134.905 116.414 134.579 116.762C133.929 117.458 133.325 118.158 132.77 118.9C132.491 119.271 132.227 119.652 131.969 120.038C131.718 120.427 131.47 120.82 131.24 121.225C130.31 122.835 129.572 124.564 128.999 126.351V126.352L128.641 127.421L127.544 127.189C127.018 127.079 126.495 126.954 125.975 126.816C125.455 126.676 124.939 126.522 124.427 126.353C123.405 126.015 122.402 125.621 121.422 125.173C120.445 124.721 119.488 124.223 118.566 123.668C118.105 123.39 117.65 123.101 117.205 122.798C116.983 122.648 116.762 122.492 116.545 122.335C116.436 122.257 116.327 122.176 116.219 122.097L116.179 122.067C116.147 122.043 116.105 122.011 116.069 121.981C115.994 121.921 115.92 121.854 115.851 121.784C115.712 121.638 115.59 121.483 115.492 121.33ZM117.795 120.375C117.8 120.298 117.782 120.219 117.748 120.155C117.73 120.123 117.708 120.096 117.686 120.072C117.675 120.062 117.66 120.048 117.654 120.044L117.692 120.07C117.793 120.141 117.892 120.214 117.994 120.282C118.198 120.423 118.402 120.561 118.608 120.696C119.02 120.967 119.439 121.228 119.865 121.478C120.715 121.978 121.59 122.435 122.487 122.845C123.383 123.258 124.302 123.62 125.235 123.938C125.701 124.097 126.173 124.245 126.648 124.379C127.122 124.515 127.6 124.639 128.081 124.75L126.626 125.589V125.587C127.249 123.65 128.055 121.757 129.083 119.977C129.336 119.531 129.611 119.095 129.89 118.664C130.175 118.235 130.47 117.813 130.779 117.401C131.396 116.577 132.073 115.792 132.759 115.059C133.101 114.692 133.445 114.335 133.777 113.987C134.107 113.639 134.425 113.297 134.697 112.965C134.969 112.635 135.187 112.309 135.298 112.041C135.407 111.769 135.423 111.586 135.376 111.343C135.33 111.109 135.199 110.861 134.979 110.604C134.762 110.349 134.465 110.1 134.126 109.872C133.786 109.644 133.407 109.437 133.001 109.241L132.687 109.094L132.606 109.057L132.532 109.028L132.386 108.967L132.094 108.845C131.997 108.804 131.893 108.777 131.794 108.743C130.99 108.475 130.14 108.331 129.273 108.307C129.056 108.309 128.84 108.297 128.621 108.313C128.512 108.319 128.404 108.321 128.295 108.328L127.968 108.358C127.534 108.404 127.099 108.473 126.673 108.57L126.356 108.649C126.252 108.679 126.148 108.706 126.046 108.737C125.945 108.769 125.844 108.8 125.751 108.833C125.658 108.865 125.557 108.911 125.46 108.95L125.167 109.07C125.071 109.113 124.977 109.165 124.882 109.212L124.597 109.354L124.323 109.518C123.593 109.956 122.921 110.511 122.315 111.148C121.708 111.785 121.175 112.511 120.698 113.282C120.222 114.054 119.805 114.874 119.439 115.723C119.079 116.574 118.764 117.452 118.501 118.347C118.368 118.793 118.251 119.246 118.144 119.698C118.091 119.925 118.042 120.151 117.996 120.377C117.974 120.49 117.951 120.603 117.932 120.715L117.902 120.88L117.889 120.96L117.883 121L117.882 121.009C117.876 121.048 117.896 120.922 117.895 120.851C117.896 120.687 117.858 120.515 117.795 120.375Z" fill="black"/>
<path d="M111.099 116.229C111.742 116.413 112.268 116.686 112.775 116.972C113.026 117.116 113.266 117.27 113.499 117.431C113.616 117.509 113.73 117.591 113.843 117.674L114.177 117.928C115.054 118.619 115.971 119.258 116.904 119.86C117.841 120.458 118.802 121.013 119.78 121.528C120.761 122.04 121.758 122.512 122.771 122.952C124.8 123.817 126.887 124.552 129.041 125.082L129.243 125.134L129.446 125.18L129.851 125.273C130.121 125.341 130.392 125.393 130.663 125.462C131.205 125.59 131.748 125.725 132.295 125.87C132.568 125.945 132.842 126.015 133.116 126.097C133.392 126.173 133.668 126.256 133.945 126.343C134.501 126.517 135.062 126.695 135.636 126.942C135.348 127.063 135.059 127.16 134.767 127.24C134.474 127.322 134.181 127.388 133.886 127.443C133.591 127.5 133.294 127.541 132.997 127.576C132.702 127.605 132.404 127.632 132.106 127.643C131.511 127.665 130.916 127.654 130.325 127.603C129.732 127.556 129.147 127.462 128.562 127.362C128.269 127.307 127.976 127.259 127.686 127.196L126.815 127.008L125.951 126.789C125.662 126.716 125.378 126.627 125.092 126.545C123.953 126.2 122.829 125.797 121.741 125.311C120.654 124.825 119.595 124.277 118.574 123.665C117.555 123.05 116.578 122.37 115.642 121.643C114.704 120.919 113.815 120.135 112.965 119.317C112.75 119.115 112.553 118.893 112.361 118.668C112.174 118.437 111.996 118.198 111.835 117.944C111.675 117.688 111.528 117.422 111.402 117.14C111.34 116.997 111.279 116.855 111.23 116.703C111.178 116.55 111.131 116.395 111.099 116.229Z" fill="black"/>
<path d="M120.915 123.9C120.934 123.817 120.947 123.761 120.965 123.696L121.015 123.509C121.048 123.386 121.085 123.266 121.122 123.146C121.197 122.906 121.277 122.671 121.362 122.437C121.533 121.969 121.724 121.512 121.931 121.061C122.345 120.16 122.834 119.289 123.39 118.461C123.67 118.047 123.969 117.646 124.284 117.258C124.603 116.872 124.949 116.505 125.316 116.163C125.688 115.825 126.086 115.514 126.509 115.243C126.936 114.977 127.386 114.75 127.861 114.598C127.589 115.02 127.335 115.42 127.1 115.822C126.867 116.228 126.651 116.632 126.445 117.035C126.241 117.441 126.048 117.848 125.861 118.255C125.675 118.665 125.503 119.079 125.338 119.496C125.015 120.333 124.727 121.182 124.467 122.038C124.335 122.465 124.211 122.895 124.089 123.323L123.746 124.571L120.915 123.9Z" fill="black"/>
<g opacity="0.25">
<path d="M131.993 118.55C131.39 118.603 125.213 121.973 127.337 115.022C127.337 115.022 119.861 120.566 118.753 114.226L117.027 120.633L128.019 125.341L131.993 118.55Z" fill="black"/>
</g>
</svg>
