<svg width="20" height="20" viewBox="0 0 20 20" fill="none" xmlns="http://www.w3.org/2000/svg">
<path d="M19.0806 10.2595C19.6071 9.733 19.8441 8.9815 19.7151 8.249C19.5861 7.5165 19.1061 6.8905 18.4311 6.5765L17.4626 6.125C17.1656 5.987 16.9851 5.6745 17.0141 5.3475L17.1076 4.284C17.1726 3.5425 16.8716 2.8145 16.3016 2.336C15.7316 1.858 14.9606 1.6885 14.2426 1.8795L13.2106 2.157C12.8946 2.2405 12.555 2.1185 12.3671 1.8495L11.7546 0.9745C11.3286 0.3645 10.6291 0 9.88505 0C9.14105 0 8.44155 0.3645 8.01505 0.9735L7.40255 1.8485C7.21455 2.1175 6.87605 2.2395 6.55855 2.156L5.52705 1.8785C4.80805 1.687 4.03855 1.8565 3.46855 2.335C2.89855 2.8135 2.59755 3.5415 2.66255 4.283L2.75605 5.347C2.78455 5.6735 2.60455 5.986 2.30705 6.125L1.33855 6.576C0.663551 6.89 0.183551 7.5155 0.0545507 8.2485C-0.0744493 8.9815 0.16255 9.733 0.68905 10.259L1.44455 11.014C1.67655 11.2455 1.73905 11.601 1.60055 11.898L1.14855 12.8665C0.834051 13.541 0.868051 14.3285 1.24055 14.973C1.61305 15.6175 2.27755 16.041 3.01905 16.1055L4.08355 16.1985C4.41005 16.227 4.68605 16.459 4.77105 16.7755L5.04705 17.807C5.23955 18.526 5.77155 19.107 6.47105 19.3615C7.17005 19.616 7.95105 19.5135 8.56205 19.086L9.43655 18.4725C9.70505 18.2855 10.0661 18.2835 10.3346 18.4725L11.2096 19.086C11.5981 19.3585 12.0571 19.499 12.5196 19.499C12.7826 19.499 13.0466 19.4535 13.3001 19.3615C13.9991 19.1065 14.5316 18.5255 14.7241 17.807L15.0001 16.7755C15.0846 16.4585 15.3611 16.2265 15.6876 16.1985L16.7511 16.1055C17.4926 16.041 18.1576 15.6175 18.5296 14.973C18.9016 14.3285 18.9361 13.541 18.6211 12.866L18.1691 11.898C18.0306 11.601 18.0931 11.2455 18.3251 11.014L19.0806 10.2595ZM14.0306 8.2805L9.03055 13.2805C8.88405 13.427 8.69205 13.5 8.50005 13.5C8.30805 13.5 8.11605 13.427 7.96955 13.2805L5.46955 10.7805C5.17655 10.4875 5.17655 10.013 5.46955 9.72C5.76255 9.427 6.23705 9.427 6.53005 9.72L8.50005 11.6895L12.9696 7.22C13.2626 6.927 13.7371 6.927 14.0301 7.22C14.3231 7.513 14.3231 7.9875 14.0306 8.2805Z" fill="#9747FF"/>
</svg>
