<svg width="14" height="10" viewBox="0 0 14 10" fill="none" xmlns="http://www.w3.org/2000/svg">
<path d="M13.3202 -0.00651082C13.147 -0.00135007 12.9826 0.0710361 12.8619 0.195312L4.66656 8.39062L1.13791 4.86198C1.07648 4.798 1.0029 4.74692 0.921485 4.71173C0.840066 4.67654 0.752444 4.65795 0.66375 4.65704C0.575057 4.65614 0.487075 4.67294 0.404957 4.70647C0.322838 4.74 0.248235 4.78957 0.185516 4.85229C0.122797 4.91501 0.0732227 4.98961 0.0396966 5.07173C0.00617053 5.15385 -0.0106334 5.24183 -0.00973112 5.33052C-0.00882883 5.41922 0.00976158 5.50684 0.0449514 5.58826C0.0801412 5.66968 0.131223 5.74326 0.195205 5.80469L4.19521 9.80469C4.32023 9.92966 4.48978 9.99987 4.66656 9.99987C4.84334 9.99987 5.01288 9.92966 5.13791 9.80469L13.8046 1.13802C13.9009 1.04438 13.9667 0.923818 13.9934 0.792138C14.02 0.660459 14.0062 0.523803 13.9539 0.400079C13.9015 0.276355 13.813 0.171335 13.6999 0.0987828C13.5868 0.0262301 13.4545 -0.010471 13.3202 -0.00651082Z" fill="white"/>
</svg>
