<svg width="22" height="18" viewBox="0 0 22 18" fill="none" xmlns="http://www.w3.org/2000/svg">
<path d="M3.25 0.5C1.74011 0.5 0.5 1.74011 0.5 3.25V14.75C0.5 16.2599 1.74011 17.5 3.25 17.5H18.75C20.2599 17.5 21.5 16.2599 21.5 14.75V3.25C21.5 1.74011 20.2599 0.5 18.75 0.5H3.25ZM3.25 2H18.75C19.4491 2 20 2.55089 20 3.25V14.75C20 15.4491 19.4491 16 18.75 16H3.25C2.55089 16 2 15.4491 2 14.75V3.25C2 2.55089 2.55089 2 3.25 2ZM14.2354 4.99316C14.0406 4.99884 13.8556 5.0801 13.7197 5.21973L7.21973 11.7197C7.14775 11.7888 7.09028 11.8716 7.0507 11.9632C7.01111 12.0548 6.9902 12.1534 6.98918 12.2532C6.98817 12.3529 7.00707 12.4519 7.04479 12.5443C7.08251 12.6367 7.13828 12.7206 7.20883 12.7912C7.27939 12.8617 7.36332 12.9175 7.4557 12.9552C7.54808 12.9929 7.64706 13.0118 7.74684 13.0108C7.84662 13.0098 7.9452 12.9889 8.03679 12.9493C8.12839 12.9097 8.21116 12.8523 8.28027 12.7803L14.7803 6.28027C14.8885 6.1749 14.9623 6.03931 14.9922 5.89126C15.0221 5.7432 15.0066 5.58958 14.9477 5.4505C14.8888 5.31141 14.7893 5.19335 14.6622 5.11175C14.5351 5.03015 14.3863 4.98882 14.2354 4.99316ZM8.25 5C7.91848 5 7.60054 5.1317 7.36612 5.36612C7.1317 5.60054 7 5.91848 7 6.25C7 6.58152 7.1317 6.89946 7.36612 7.13388C7.60054 7.3683 7.91848 7.5 8.25 7.5C8.58152 7.5 8.89946 7.3683 9.13388 7.13388C9.3683 6.89946 9.5 6.58152 9.5 6.25C9.5 5.91848 9.3683 5.60054 9.13388 5.36612C8.89946 5.1317 8.58152 5 8.25 5ZM13.75 10.5C13.4185 10.5 13.1005 10.6317 12.8661 10.8661C12.6317 11.1005 12.5 11.4185 12.5 11.75C12.5 12.0815 12.6317 12.3995 12.8661 12.6339C13.1005 12.8683 13.4185 13 13.75 13C14.0815 13 14.3995 12.8683 14.6339 12.6339C14.8683 12.3995 15 12.0815 15 11.75C15 11.4185 14.8683 11.1005 14.6339 10.8661C14.3995 10.6317 14.0815 10.5 13.75 10.5Z" fill="white"/>
</svg>
