<svg width="20" height="18" viewBox="0 0 20 18" fill="none" xmlns="http://www.w3.org/2000/svg">
<path d="M2.75 0C1.51625 0 0.5 1.01625 0.5 2.25V15.75C0.5 16.9838 1.51625 18 2.75 18H5.75C6.32899 18 6.84937 17.7625 7.25 17.3975C7.65063 17.7625 8.17101 18 8.75 18H11.25C11.829 18 12.3494 17.7625 12.75 17.3975C13.1506 17.7625 13.671 18 14.25 18H17.25C18.4838 18 19.5 16.9838 19.5 15.75V2.25C19.5 1.01625 18.4838 0 17.25 0H14.25C13.0162 0 12 1.01625 12 2.25V3.15332C11.7628 3.06728 11.5153 3 11.25 3H8.75C8.4847 3 8.23724 3.06728 8 3.15332V2.25C8 1.01625 6.98375 0 5.75 0H2.75ZM2.75 1.5H5.75C6.17325 1.5 6.5 1.82675 6.5 2.25V5.25V15.75C6.5 16.1733 6.17325 16.5 5.75 16.5H2.75C2.32675 16.5 2 16.1733 2 15.75V2.25C2 1.82675 2.32675 1.5 2.75 1.5ZM14.25 1.5H17.25C17.6733 1.5 18 1.82675 18 2.25V15.75C18 16.1733 17.6733 16.5 17.25 16.5H14.25C13.8268 16.5 13.5 16.1733 13.5 15.75V5.25V2.25C13.5 1.82675 13.8268 1.5 14.25 1.5ZM4.23828 2.98926C4.03954 2.99236 3.85016 3.07423 3.71173 3.21686C3.5733 3.3595 3.49715 3.55125 3.5 3.75V10.75C3.49859 10.8494 3.51696 10.9481 3.55402 11.0403C3.59108 11.1325 3.6461 11.2164 3.71588 11.2872C3.78566 11.358 3.86882 11.4142 3.96051 11.4526C4.0522 11.4909 4.15061 11.5107 4.25 11.5107C4.34939 11.5107 4.4478 11.4909 4.53949 11.4526C4.63118 11.4142 4.71434 11.358 4.78412 11.2872C4.8539 11.2164 4.90892 11.1325 4.94598 11.0403C4.98304 10.9481 5.00141 10.8494 5 10.75V3.75C5.00144 3.64962 4.98271 3.54997 4.94493 3.45695C4.90715 3.36394 4.85108 3.27946 4.78005 3.20852C4.70901 3.13757 4.62446 3.08161 4.5314 3.04395C4.43834 3.00629 4.33866 2.98769 4.23828 2.98926ZM15.7383 2.98926C15.5395 2.99236 15.3502 3.07423 15.2117 3.21686C15.0733 3.3595 14.9971 3.55125 15 3.75V10.75C14.9986 10.8494 15.017 10.9481 15.054 11.0403C15.0911 11.1325 15.1461 11.2164 15.2159 11.2872C15.2857 11.358 15.3688 11.4142 15.4605 11.4526C15.5522 11.4909 15.6506 11.5107 15.75 11.5107C15.8494 11.5107 15.9478 11.4909 16.0395 11.4526C16.1312 11.4142 16.2143 11.358 16.2841 11.2872C16.3539 11.2164 16.4089 11.1325 16.446 11.0403C16.483 10.9481 16.5014 10.8494 16.5 10.75V3.75C16.5014 3.64962 16.4827 3.54997 16.4449 3.45695C16.4071 3.36394 16.3511 3.27946 16.28 3.20852C16.209 3.13757 16.1245 3.08161 16.0314 3.04395C15.9383 3.00629 15.8387 2.98769 15.7383 2.98926ZM8.75 4.5H11.25C11.6732 4.5 12 4.82675 12 5.25V15.75C12 16.1733 11.6732 16.5 11.25 16.5H8.75C8.32675 16.5 8 16.1733 8 15.75V5.25C8 4.82675 8.32675 4.5 8.75 4.5ZM9.75 6C9.65062 5.99859 9.55194 6.01696 9.45972 6.05402C9.36749 6.09108 9.28355 6.1461 9.21277 6.21588C9.142 6.28566 9.08579 6.36882 9.04743 6.46051C9.00907 6.5522 8.98932 6.65061 8.98932 6.75C8.98932 6.84939 9.00907 6.9478 9.04743 7.03949C9.08579 7.13118 9.142 7.21434 9.21277 7.28412C9.28355 7.3539 9.36749 7.40892 9.45972 7.44598C9.55194 7.48304 9.65062 7.50141 9.75 7.5H10.25C10.3494 7.50141 10.4481 7.48304 10.5403 7.44598C10.6325 7.40892 10.7164 7.3539 10.7872 7.28412C10.858 7.21434 10.9142 7.13118 10.9526 7.03949C10.9909 6.9478 11.0107 6.84939 11.0107 6.75C11.0107 6.65061 10.9909 6.5522 10.9526 6.46051C10.9142 6.36882 10.858 6.28566 10.7872 6.21588C10.7164 6.1461 10.6325 6.09108 10.5403 6.05402C10.4481 6.01696 10.3494 5.99859 10.25 6H9.75ZM3.75 13.5C3.65062 13.4986 3.55194 13.517 3.45972 13.554C3.36749 13.5911 3.28355 13.6461 3.21277 13.7159C3.142 13.7857 3.08579 13.8688 3.04743 13.9605C3.00907 14.0522 2.98932 14.1506 2.98932 14.25C2.98932 14.3494 3.00907 14.4478 3.04743 14.5395C3.08579 14.6312 3.142 14.7143 3.21277 14.7841C3.28355 14.8539 3.36749 14.9089 3.45972 14.946C3.55194 14.983 3.65062 15.0014 3.75 15H4.75C4.84938 15.0014 4.94806 14.983 5.04028 14.946C5.13251 14.9089 5.21645 14.8539 5.28723 14.7841C5.358 14.7143 5.41421 14.6312 5.45257 14.5395C5.49093 14.4478 5.51068 14.3494 5.51068 14.25C5.51068 14.1506 5.49093 14.0522 5.45257 13.9605C5.41421 13.8688 5.358 13.7857 5.28723 13.7159C5.21645 13.6461 5.13251 13.5911 5.04028 13.554C4.94806 13.517 4.84938 13.4986 4.75 13.5H3.75ZM9.75 13.5C9.65062 13.4986 9.55194 13.517 9.45972 13.554C9.36749 13.5911 9.28355 13.6461 9.21277 13.7159C9.142 13.7857 9.08579 13.8688 9.04743 13.9605C9.00907 14.0522 8.98932 14.1506 8.98932 14.25C8.98932 14.3494 9.00907 14.4478 9.04743 14.5395C9.08579 14.6312 9.142 14.7143 9.21277 14.7841C9.28355 14.8539 9.36749 14.9089 9.45972 14.946C9.55194 14.983 9.65062 15.0014 9.75 15H10.25C10.3494 15.0014 10.4481 14.983 10.5403 14.946C10.6325 14.9089 10.7164 14.8539 10.7872 14.7841C10.858 14.7143 10.9142 14.6312 10.9526 14.5395C10.9909 14.4478 11.0107 14.3494 11.0107 14.25C11.0107 14.1506 10.9909 14.0522 10.9526 13.9605C10.9142 13.8688 10.858 13.7857 10.7872 13.7159C10.7164 13.6461 10.6325 13.5911 10.5403 13.554C10.4481 13.517 10.3494 13.4986 10.25 13.5H9.75ZM15.25 13.5C15.1506 13.4986 15.0519 13.517 14.9597 13.554C14.8675 13.5911 14.7836 13.6461 14.7128 13.7159C14.642 13.7857 14.5858 13.8688 14.5474 13.9605C14.5091 14.0522 14.4893 14.1506 14.4893 14.25C14.4893 14.3494 14.5091 14.4478 14.5474 14.5395C14.5858 14.6312 14.642 14.7143 14.7128 14.7841C14.7836 14.8539 14.8675 14.9089 14.9597 14.946C15.0519 14.983 15.1506 15.0014 15.25 15H16.25C16.3494 15.0014 16.4481 14.983 16.5403 14.946C16.6325 14.9089 16.7164 14.8539 16.7872 14.7841C16.858 14.7143 16.9142 14.6312 16.9526 14.5395C16.9909 14.4478 17.0107 14.3494 17.0107 14.25C17.0107 14.1506 16.9909 14.0522 16.9526 13.9605C16.9142 13.8688 16.858 13.7857 16.7872 13.7159C16.7164 13.6461 16.6325 13.5911 16.5403 13.554C16.4481 13.517 16.3494 13.4986 16.25 13.5H15.25Z" fill="#B073E0"/>
</svg>
