<svg width="18" height="19" viewBox="0 0 18 19" fill="none" xmlns="http://www.w3.org/2000/svg">
<path d="M8.98828 0.989227C8.78954 0.992332 8.60016 1.07419 8.46173 1.21683C8.3233 1.35947 8.24715 1.55122 8.25 1.74997V12.4394L6.53027 10.7197C6.46036 10.6477 6.37672 10.5905 6.28429 10.5514C6.19187 10.5123 6.09254 10.4922 5.99219 10.4922C5.84293 10.4922 5.69707 10.5368 5.57328 10.6202C5.44949 10.7036 5.3534 10.822 5.2973 10.9603C5.24119 11.0986 5.22763 11.2505 5.25835 11.3966C5.28907 11.5427 5.36267 11.6762 5.46973 11.7802L8.46973 14.7802C8.61038 14.9208 8.80112 14.9998 9 14.9998C9.19888 14.9998 9.38962 14.9208 9.53027 14.7802L12.5303 11.7802C12.6023 11.7111 12.6597 11.6284 12.6993 11.5368C12.7389 11.4452 12.7598 11.3466 12.7608 11.2468C12.7618 11.147 12.7429 11.0481 12.7052 10.9557C12.6675 10.8633 12.6117 10.7794 12.5412 10.7088C12.4706 10.6382 12.3867 10.5825 12.2943 10.5448C12.2019 10.507 12.1029 10.4881 12.0032 10.4892C11.9034 10.4902 11.8048 10.5111 11.7132 10.5507C11.6216 10.5903 11.5388 10.6477 11.4697 10.7197L9.75 12.4394V1.74997C9.75144 1.64959 9.73271 1.54994 9.69493 1.45692C9.65715 1.36391 9.60108 1.27943 9.53004 1.20849C9.45901 1.13754 9.37446 1.08158 9.2814 1.04392C9.18834 1.00626 9.08866 0.987659 8.98828 0.989227ZM2.75 6.49997C1.24011 6.49997 0 7.74008 0 9.24997V16.25C0 17.7599 1.24011 19 2.75 19H15.25C16.7599 19 18 17.7599 18 16.25V9.24997C18 7.74008 16.7599 6.49997 15.25 6.49997H12.25C12.1506 6.49856 12.0519 6.51693 11.9597 6.55399C11.8675 6.59105 11.7836 6.64607 11.7128 6.71585C11.642 6.78563 11.5858 6.86879 11.5474 6.96048C11.5091 7.05217 11.4893 7.15058 11.4893 7.24997C11.4893 7.34936 11.5091 7.44777 11.5474 7.53946C11.5858 7.63115 11.642 7.71431 11.7128 7.78409C11.7836 7.85387 11.8675 7.90889 11.9597 7.94595C12.0519 7.98301 12.1506 8.00138 12.25 7.99997H15.25C15.9491 7.99997 16.5 8.55086 16.5 9.24997V16.25C16.5 16.9491 15.9491 17.5 15.25 17.5H2.75C2.05089 17.5 1.5 16.9491 1.5 16.25V9.24997C1.5 8.55086 2.05089 7.99997 2.75 7.99997H5.75C5.84938 8.00138 5.94806 7.98301 6.04028 7.94595C6.13251 7.90889 6.21645 7.85387 6.28723 7.78409C6.358 7.71431 6.41421 7.63115 6.45257 7.53946C6.49093 7.44777 6.51068 7.34936 6.51068 7.24997C6.51068 7.15058 6.49093 7.05217 6.45257 6.96048C6.41421 6.86879 6.358 6.78563 6.28723 6.71585C6.21645 6.64607 6.13251 6.59105 6.04028 6.55399C5.94806 6.51693 5.84938 6.49856 5.75 6.49997H2.75Z" fill="#B073E0"/>
</svg>
