<svg width="20" height="20" viewBox="0 0 20 20" fill="none" xmlns="http://www.w3.org/2000/svg">
<path d="M16.0001 0.504883C15.1027 0.504883 14.2055 0.845069 13.5255 1.52539L2.4581 12.5918C2.24811 12.8018 2.09432 13.0629 2.01278 13.3496L0.529385 18.5439C0.492802 18.6725 0.491222 18.8084 0.524808 18.9378C0.558395 19.0671 0.625929 19.1852 0.720424 19.2797C0.81492 19.3742 0.932945 19.4417 1.06229 19.4753C1.19164 19.5089 1.32761 19.5073 1.45614 19.4707L6.65145 17.9873C6.65178 17.987 6.65211 17.9867 6.65243 17.9863C6.93719 17.9045 7.19769 17.7526 7.40829 17.542L18.4747 6.47461C19.8353 5.11405 19.8353 2.88595 18.4747 1.52539C17.7947 0.845069 16.8974 0.504883 16.0001 0.504883ZM16.0001 1.99609C16.5105 1.99609 17.0202 2.19276 17.4132 2.58594C17.4135 2.58594 17.4138 2.58594 17.4141 2.58594C18.2016 3.37337 18.2016 4.62663 17.4141 5.41406L16.4444 6.38379L13.6163 3.55566L14.586 2.58594C14.979 2.19276 15.4897 1.99609 16.0001 1.99609ZM12.5558 4.61621L15.3839 7.44434L6.34677 16.4814C6.31745 16.5106 6.28032 16.5329 6.23837 16.5449L2.34189 17.6582L3.45517 13.7607C3.45517 13.7604 3.45517 13.7601 3.45517 13.7598C3.46663 13.7195 3.48763 13.6834 3.51864 13.6523L12.5558 4.61621Z" fill="#B073E0"/>
</svg>
