<svg width="19" height="18" viewBox="0 0 19 18" fill="none" xmlns="http://www.w3.org/2000/svg">
<path d="M1.75 0C1.0682 0 0.5 0.568203 0.5 1.25V2.79492C0.5 3.94325 1.02774 5.02942 1.92969 5.74023L7 9.73535V17.25C7.00007 17.3877 7.03806 17.5228 7.10981 17.6404C7.18155 17.7579 7.28429 17.8535 7.40674 17.9165C7.5292 17.9796 7.66665 18.0077 7.80403 17.9978C7.94141 17.9879 8.0734 17.9403 8.18555 17.8604L11.6855 15.3604C11.7828 15.291 11.862 15.1994 11.9167 15.0933C11.9714 14.9871 12 14.8694 12 14.75V9.73438L17.0703 5.74023C17.9723 5.02942 18.5 3.94325 18.5 2.79492V1.25C18.5 0.568203 17.9318 0 17.25 0H1.75ZM2 1.5H17V2.79492C17 3.4846 16.6846 4.13434 16.1426 4.56152L11.1436 8.5H7.85645L2.85742 4.56152C2.31537 4.13434 2 3.4846 2 2.79492V1.5ZM8.5 10H10.5V14.3643L8.5 15.793V10Z" fill="white"/>
</svg>
