<svg width="20" height="20" viewBox="0 0 20 20" fill="none" xmlns="http://www.w3.org/2000/svg">
<path d="M10 0C4.48603 0 0 4.48604 0 10C0 15.514 4.48603 20 10 20C15.514 20 20 15.514 20 10C20 4.48604 15.514 0 10 0ZM10 1.5C14.7033 1.5 18.5 5.2967 18.5 10C18.5 14.7033 14.7033 18.5 10 18.5C5.29669 18.5 1.5 14.7033 1.5 10C1.5 5.2967 5.29669 1.5 10 1.5ZM10 4C8.35207 4 7 5.35207 7 7V8.13965C6.13178 8.45255 5.5 9.27998 5.5 10.25V12.75C5.5 13.9838 6.51625 15 7.75 15H12.25C13.4838 15 14.5 13.9838 14.5 12.75V10.25C14.5 9.27998 13.8682 8.45255 13 8.13965V7C13 5.35207 11.6479 4 10 4ZM10 5.5C10.8371 5.5 11.5 6.16293 11.5 7V8H8.5V7C8.5 6.16293 9.16293 5.5 10 5.5ZM7.75 9.5H12.25C12.6732 9.5 13 9.82675 13 10.25V12.75C13 13.1732 12.6732 13.5 12.25 13.5H7.75C7.32675 13.5 7 13.1732 7 12.75V10.25C7 9.82675 7.32675 9.5 7.75 9.5ZM10 10.5C9.73478 10.5 9.48043 10.6054 9.29289 10.7929C9.10536 10.9804 9 11.2348 9 11.5C9 11.7652 9.10536 12.0196 9.29289 12.2071C9.48043 12.3946 9.73478 12.5 10 12.5C10.2652 12.5 10.5196 12.3946 10.7071 12.2071C10.8946 12.0196 11 11.7652 11 11.5C11 11.2348 10.8946 10.9804 10.7071 10.7929C10.5196 10.6054 10.2652 10.5 10 10.5Z" fill="#828282"/>
</svg>
