<svg width="40" height="40" viewBox="0 0 40 40" fill="none" xmlns="http://www.w3.org/2000/svg">
<g clip-path="url(#clip0_4405_5038)">
<path d="M39.5565 25.4625C39.5258 25.5656 39.4944 25.6685 39.462 25.7711L39.4307 25.869C39.3909 25.9923 39.3498 26.115 39.3076 26.2372L39.2787 26.3207C39.2344 26.4469 39.1888 26.5725 39.142 26.6975L39.1092 26.7848C39.0625 26.9078 39.0145 27.0302 38.9655 27.152L38.9282 27.2436C38.8785 27.3651 38.8278 27.4862 38.7756 27.6065L38.736 27.6968C38.6854 27.8122 38.6336 27.9271 38.5808 28.0412L38.5363 28.1366C38.4837 28.2487 38.43 28.3603 38.3753 28.4714L38.326 28.5708C38.2716 28.6799 38.216 28.7884 38.1595 28.8963L38.106 28.998C38.0483 29.1066 37.9895 29.2147 37.9299 29.3221L37.8774 29.4163C37.8155 29.5265 37.7524 29.6358 37.6883 29.7446L37.6305 29.8423C37.5667 29.9492 37.502 30.0555 37.4363 30.1612L37.3763 30.2567C37.3121 30.3588 37.2469 30.4602 37.1807 30.561L37.1128 30.6638C37.0483 30.7608 36.9829 30.8573 36.9166 30.9533L36.8408 31.0623C36.7747 31.1567 36.7077 31.2505 36.6398 31.3437L36.5602 31.4526C36.4918 31.5453 36.4226 31.6374 36.3525 31.729L36.2719 31.8341C36.2007 31.9259 36.1286 32.017 36.0559 32.1076L35.9708 32.2128C35.8962 32.3045 35.8206 32.3955 35.7443 32.486L35.6583 32.5871C35.5864 32.6711 35.5137 32.7545 35.4404 32.8372C35.4058 32.8763 35.3712 32.9153 35.3362 32.954C35.2656 33.0326 35.1942 33.1107 35.1222 33.1883L35.0044 33.3142C34.9338 33.389 34.8624 33.4633 34.7906 33.5371C34.75 33.5789 34.7092 33.6205 34.6681 33.662C34.5956 33.7352 34.5224 33.808 34.4487 33.8801C34.4086 33.9194 34.3684 33.9584 34.328 33.9973C34.2504 34.0721 34.1722 34.1463 34.0934 34.2198L33.9898 34.316C33.9048 34.3941 33.8192 34.4714 33.7329 34.5481C33.6916 34.5849 33.6497 34.6215 33.608 34.658C33.5308 34.7254 33.4532 34.7925 33.3748 34.8589C33.3326 34.8948 33.2901 34.9305 33.2475 34.966C33.1688 35.0315 33.0897 35.0966 33.01 35.1609C32.9666 35.196 32.9231 35.2312 32.8795 35.2659C32.7971 35.3314 32.7142 35.396 32.6307 35.4603C32.5901 35.4917 32.5494 35.5231 32.5083 35.5542C32.4229 35.6189 32.3368 35.6829 32.2503 35.7464C32.1992 35.7838 32.1479 35.8211 32.0964 35.8583C32.0155 35.9165 31.934 35.9742 31.8521 36.0313C31.8015 36.0666 31.7506 36.1017 31.6997 36.1366C31.616 36.194 31.5318 36.2506 31.4471 36.3067C31.3944 36.3416 31.3415 36.3762 31.2884 36.4107C31.1988 36.4689 31.1088 36.5266 31.0182 36.5834C30.9734 36.6116 30.9282 36.6394 30.8831 36.6673C30.7867 36.7267 30.69 36.7855 30.5926 36.8434C30.5511 36.8682 30.5091 36.8926 30.4673 36.917C30.3712 36.9732 30.2746 37.0287 30.1775 37.0834L30.0511 37.1539C29.9519 37.2088 29.8522 37.263 29.752 37.3163L29.6307 37.3803C29.5267 37.4347 29.4222 37.4882 29.3173 37.5409L29.2045 37.5972C29.0929 37.6524 28.9808 37.7065 28.8682 37.7596L28.7759 37.8032C28.6568 37.8587 28.5369 37.9128 28.4165 37.9662L28.3188 38.0092C28.1937 38.0639 28.0678 38.1173 27.9413 38.1697L27.8599 38.203C27.7314 38.2554 27.6021 38.3068 27.4723 38.3567L27.3936 38.3866C27.2665 38.4349 27.1388 38.4821 27.0106 38.5279L26.9307 38.5561C26.8023 38.6014 26.6733 38.6455 26.5437 38.6885L26.4655 38.7141C26.3345 38.7568 26.2027 38.7984 26.0706 38.8386L25.9943 38.8616C25.8611 38.9016 25.7271 38.9403 25.5926 38.9778L25.5184 38.9984C25.3803 39.0362 25.2416 39.0727 25.1023 39.1078L25.0396 39.1237C24.8909 39.1606 24.7418 39.1959 24.592 39.2297L24.5629 39.2363C24.4028 39.2721 24.2421 39.3063 24.0805 39.3384L24.0653 39.3413C23.9073 39.3726 23.7486 39.4022 23.5894 39.4299L23.55 39.4365C23.3975 39.4628 23.2443 39.4874 23.0907 39.5105L23.0417 39.5175C22.8907 39.5398 22.7394 39.5604 22.5874 39.5793L22.5338 39.5859C22.3822 39.6044 22.2302 39.6212 22.0778 39.6365L22.0253 39.6417C21.8707 39.6567 21.7157 39.67 21.5601 39.6818L21.5149 39.6851C21.3555 39.6968 21.1954 39.7066 21.0348 39.7147L21.0027 39.7163C20.8361 39.7245 20.6688 39.7306 20.5013 39.7349L20.4876 39.7353C20.314 39.7396 20.14 39.7416 19.9654 39.7416C19.7908 39.7416 19.6168 39.7396 19.4433 39.7353L19.4294 39.7349C19.2618 39.7307 19.0948 39.7244 18.9283 39.7163L18.8956 39.7147C18.7353 39.7067 18.5755 39.6968 18.416 39.6851L18.3705 39.6818C18.2151 39.6701 18.0602 39.6566 17.9058 39.6417L17.8527 39.6364C17.7003 39.6212 17.5484 39.6043 17.3971 39.5859L17.3435 39.5793C17.1915 39.5603 17.0401 39.5398 16.8892 39.5175L16.8401 39.5105C16.6869 39.4876 16.5344 39.463 16.3824 39.4368L16.3407 39.4298C16.1824 39.4022 16.0246 39.3728 15.8676 39.3417L15.8495 39.3382C15.6885 39.3061 15.5283 39.2722 15.3688 39.2365L15.3371 39.2292C15.1878 39.1957 15.0393 39.1604 14.8913 39.1237L14.8284 39.1078C14.6892 39.0727 14.5504 39.0362 14.4124 38.9984L14.3381 38.9778C14.2041 38.9405 14.0706 38.902 13.9377 38.8621L13.8597 38.8384C13.7283 38.7984 13.5975 38.7572 13.4673 38.7148L13.3855 38.6879C13.2567 38.6453 13.1288 38.6014 13.0014 38.5565L12.92 38.5278C12.7928 38.4824 12.6662 38.4355 12.5402 38.3877L12.4568 38.356C12.3288 38.3068 12.2015 38.2561 12.0747 38.2044L11.9849 38.1677C11.8602 38.1161 11.7361 38.0634 11.6125 38.0094L11.5128 37.9655C11.3936 37.9127 11.2749 37.859 11.1568 37.804L11.0593 37.7579C10.9478 37.7052 10.8368 37.652 10.7265 37.5974C10.6881 37.5785 10.6499 37.5591 10.6116 37.5399C10.5074 37.4875 10.4036 37.4345 10.3005 37.3805L10.1767 37.3151C10.0772 37.2621 9.9783 37.2083 9.87982 37.1539L9.75335 37.0834C9.65623 37.0287 9.55965 36.9732 9.46361 36.917L9.33819 36.8434C9.24131 36.7859 9.14511 36.7274 9.04936 36.6683C9.0013 36.6387 8.95339 36.609 8.90562 36.579C8.81737 36.5236 8.72965 36.4674 8.64238 36.4107C8.58856 36.3758 8.53505 36.3406 8.48161 36.3052C8.39843 36.2501 8.31555 36.1945 8.23327 36.1381C8.18158 36.1027 8.13012 36.0671 8.07872 36.0313C7.99682 35.9742 7.91538 35.9164 7.8344 35.8583C7.78195 35.8205 7.72986 35.7826 7.67787 35.7444C7.59317 35.6822 7.50878 35.6196 7.42515 35.5561C7.38291 35.5241 7.34082 35.4917 7.29889 35.4594C7.21586 35.3955 7.13336 35.331 7.05139 35.2659C7.00772 35.2311 6.9642 35.196 6.92083 35.1609C6.84113 35.0966 6.76196 35.0315 6.68332 34.966C6.64071 34.9305 6.59824 34.8948 6.55593 34.8589C6.47766 34.7925 6.40001 34.7255 6.32281 34.658C6.28111 34.6215 6.23933 34.5849 6.19784 34.5481C6.11156 34.4714 6.02596 34.3941 5.94103 34.316L5.83741 34.2198C5.75915 34.1469 5.68157 34.0731 5.60452 33.999C5.56357 33.9595 5.52277 33.92 5.48213 33.8801C5.4084 33.808 5.33528 33.7352 5.26271 33.662C5.22168 33.6205 5.18081 33.5789 5.14016 33.5371C5.06834 33.4633 4.99711 33.389 4.92642 33.3142L4.80857 33.1883C4.73757 33.1117 4.66711 33.0347 4.59732 32.957L4.48901 32.8357C4.41635 32.7535 4.34437 32.671 4.27314 32.5877L4.18367 32.4826C4.10837 32.3933 4.03388 32.3035 3.96017 32.213C3.93065 32.1768 3.90136 32.1404 3.87214 32.1041C3.80265 32.0175 3.73385 31.9305 3.66581 31.8428C3.63531 31.8035 3.60503 31.764 3.57483 31.7246C3.50739 31.6363 3.44072 31.5474 3.37472 31.4581L3.28699 31.3382C3.22204 31.2488 3.15779 31.1589 3.09436 31.0684L3.00966 30.9466C2.94623 30.8547 2.88357 30.7622 2.82165 30.6692L2.74574 30.5543C2.68216 30.4572 2.61948 30.3597 2.55764 30.2617L2.49202 30.1571C2.42806 30.0544 2.36524 29.9509 2.30318 29.8469L2.23983 29.74C2.17754 29.6342 2.11622 29.5276 2.05591 29.4204L1.99807 29.3168C1.94085 29.2137 1.88446 29.11 1.82906 29.0058L1.76828 28.8903C1.71379 28.7861 1.6602 28.6813 1.60752 28.5761L1.55204 28.4642C1.49966 28.3578 1.44827 28.2509 1.39778 28.1434L1.34669 28.0339C1.29538 27.9228 1.24512 27.8112 1.19584 27.6991L1.15346 27.6022C1.10199 27.4832 1.05173 27.3636 1.00261 27.2436L0.965371 27.152C0.916324 27.0305 0.868489 26.9083 0.821865 26.7855L0.78735 26.6935C0.741104 26.5698 0.695918 26.4455 0.652093 26.3207L0.623256 26.2372C0.581021 26.115 0.539998 25.9923 0.500109 25.869L0.46885 25.7711C0.436304 25.6686 0.405044 25.5655 0.374239 25.4625C0.13718 24.5916 0.60002 23.671 1.46712 23.3383C5.87957 21.6454 12.5282 20.5679 19.9654 20.5679C27.4027 20.5679 34.0513 21.6454 38.4637 23.3383C39.3308 23.671 39.7937 24.5916 39.5565 25.4625ZM0.374163 14.4039C0.405271 14.2999 0.436682 14.1959 0.469531 14.0925L0.499202 13.9998C0.53962 13.8748 0.581172 13.7504 0.624012 13.6265L0.651488 13.547C0.695918 13.4202 0.741785 13.2941 0.788788 13.1684L0.820578 13.0838C0.867884 12.9592 0.916477 12.8352 0.966204 12.7118L1.00163 12.6247C1.05151 12.5027 1.1026 12.381 1.15497 12.2602L1.19365 12.1718C1.24428 12.0566 1.29583 11.9419 1.34859 11.8278L1.39627 11.7256C1.44721 11.6172 1.49914 11.5092 1.55204 11.4018L1.60692 11.2911C1.6602 11.1844 1.71455 11.0783 1.7698 10.9726L1.82657 10.8648C1.88318 10.7584 1.94071 10.6524 1.99921 10.5471L2.05582 10.4456C2.11615 10.3385 2.17746 10.2319 2.23983 10.1259L2.30318 10.0191C2.36569 9.91416 2.42913 9.80986 2.49354 9.7063L2.55567 9.60729C2.61835 9.50791 2.68193 9.40897 2.74634 9.3107L2.82165 9.19677C2.88394 9.10313 2.94699 9.01007 3.01087 8.9176L3.09436 8.79757C3.15832 8.70642 3.22311 8.61571 3.28858 8.5256L3.37358 8.40946C3.44018 8.31927 3.50739 8.2296 3.57552 8.14051L3.66112 8.02915C3.73136 7.93852 3.80251 7.84848 3.87434 7.7591L3.96001 7.65311C4.03449 7.56159 4.1098 7.47081 4.18602 7.38062L4.27268 7.27882C4.34558 7.1937 4.41915 7.10917 4.49347 7.02523L4.59392 6.91262C4.66642 6.83199 4.73954 6.75194 4.81334 6.67248L4.92225 6.55612C4.9956 6.47828 5.06969 6.4011 5.14433 6.32444L5.25839 6.20831C5.33264 6.13333 5.40735 6.05894 5.48274 5.98515C5.52315 5.9456 5.56379 5.9062 5.60452 5.86695C5.68157 5.79279 5.75915 5.71905 5.83741 5.64607L5.94103 5.54993C6.02587 5.47186 6.11156 5.39454 6.19784 5.3178C6.23924 5.28097 6.28102 5.24444 6.32281 5.20791C6.40008 5.14043 6.47766 5.07339 6.55593 5.00702C6.59801 4.97137 6.64024 4.93579 6.68263 4.90044C6.76263 4.83377 6.84317 4.76769 6.92416 4.7022C6.96548 4.66883 7.00681 4.63554 7.04844 4.60246C7.13162 4.53622 7.21548 4.47081 7.2998 4.40583C7.34136 4.37385 7.38283 4.34181 7.42461 4.31013C7.50999 4.24544 7.59605 4.18164 7.68248 4.11821C7.72995 4.08344 7.77747 4.0486 7.82524 4.0142C7.90971 3.95334 7.99471 3.89329 8.08016 3.83367C8.13102 3.79817 8.18203 3.76289 8.23327 3.72782C8.31555 3.67153 8.39843 3.6158 8.48161 3.56067C8.53505 3.52525 8.58856 3.49011 8.64238 3.4552C8.72973 3.39853 8.81737 3.34229 8.90562 3.28688C8.95339 3.25689 9.0013 3.22719 9.04936 3.19757C9.14511 3.13854 9.24131 3.08004 9.33819 3.02248C9.37952 2.99793 9.42115 2.97367 9.46262 2.94941C9.56034 2.89231 9.65851 2.83593 9.7572 2.78036L9.87551 2.71435C9.97572 2.65893 10.0764 2.60424 10.1776 2.55037L10.3005 2.48538C10.4036 2.43143 10.5074 2.37837 10.6116 2.32603C10.6499 2.30677 10.6881 2.28743 10.7265 2.26847C10.8368 2.21394 10.9478 2.16064 11.0593 2.10802L11.1568 2.06185C11.2748 2.0068 11.3936 1.95314 11.5128 1.90037L11.6125 1.85641C11.7361 1.80253 11.8602 1.74982 11.9849 1.69822L12.0747 1.66147C12.2015 1.6098 12.3288 1.55908 12.4568 1.50983L12.5402 1.47823C12.6662 1.43038 12.7928 1.38356 12.92 1.33806L13.0014 1.30939C13.1287 1.26441 13.2567 1.22052 13.3855 1.17797L13.4673 1.15114C13.5975 1.10873 13.7283 1.06748 13.8597 1.02751L13.9377 1.00383C14.0706 0.963992 14.2041 0.925476 14.3381 0.888136L14.4124 0.867481C14.5504 0.829553 14.6892 0.793169 14.8284 0.758107L14.8913 0.74223C15.0392 0.705405 15.1878 0.670196 15.3371 0.636605L15.3688 0.629328C15.5283 0.593605 15.6885 0.559792 15.8495 0.527745L15.8676 0.524217C16.0246 0.493051 16.1824 0.463796 16.3407 0.436158L16.3824 0.429102C16.5344 0.402935 16.6871 0.378384 16.8401 0.355451L16.8892 0.34832C17.0401 0.326122 17.1915 0.305541 17.3435 0.286577L17.3971 0.280035C17.5484 0.261586 17.7003 0.244753 17.8527 0.229464L17.9058 0.224246C18.0602 0.209251 18.2151 0.195873 18.3705 0.184186L18.416 0.180731C18.5755 0.169117 18.7353 0.159341 18.8956 0.151256L18.9283 0.149566C19.0948 0.14148 19.2618 0.135232 19.4294 0.131042L19.4433 0.130601C19.6167 0.126412 19.7908 0.124207 19.9654 0.124207C20.14 0.124207 20.314 0.126264 20.4876 0.130601L20.5013 0.131042C20.6688 0.135232 20.836 0.141407 21.0027 0.149566L21.0348 0.151256C21.1954 0.159341 21.3554 0.169117 21.5149 0.180731L21.5601 0.184186C21.7157 0.195873 21.8707 0.209178 22.0253 0.224246L22.0778 0.229391C22.2302 0.244607 22.3822 0.261512 22.5338 0.280035L22.5874 0.286577C22.7393 0.305468 22.8907 0.326122 23.0417 0.34832L23.0907 0.355451C23.2443 0.378458 23.3975 0.403155 23.55 0.429396L23.5894 0.436012C23.7486 0.463722 23.9073 0.493271 24.0653 0.524584L24.0805 0.527525C24.2421 0.559646 24.4028 0.593678 24.5629 0.629548L24.592 0.636237C24.7419 0.669976 24.8909 0.705332 25.0396 0.74223L25.1023 0.758107C25.2416 0.793169 25.3803 0.829627 25.5184 0.867481L25.5926 0.888136C25.7271 0.925623 25.8611 0.964213 25.9943 1.0042L26.0706 1.02728C26.2027 1.06748 26.3345 1.10901 26.4655 1.15179L26.5437 1.17737C26.6733 1.22031 26.8023 1.26448 26.9307 1.30983L27.0106 1.33799C27.1389 1.38377 27.2665 1.43104 27.3936 1.47933L27.4723 1.50918C27.6022 1.55908 27.7314 1.61046 27.8599 1.66294L27.9413 1.69624C28.0678 1.7485 28.1937 1.80195 28.3188 1.85663L28.4165 1.89977C28.5369 1.95306 28.6568 2.00724 28.7759 2.06274L28.8682 2.10633C28.9808 2.15954 29.0929 2.21349 29.2045 2.26862L29.3173 2.325C29.4222 2.3777 29.5267 2.43121 29.6307 2.48561L29.7512 2.54926C29.8531 2.60351 29.9545 2.65849 30.0553 2.71435L30.1736 2.78036C30.2723 2.83593 30.3705 2.89231 30.4682 2.94941C30.5097 2.97367 30.5513 2.99793 30.5926 3.02248C30.69 3.0804 30.7867 3.13921 30.8831 3.19859C30.9282 3.22646 30.9734 3.25432 31.0182 3.28247C31.1088 3.33936 31.1988 3.39698 31.2884 3.4552C31.3415 3.48967 31.3944 3.5243 31.4471 3.55921C31.5317 3.61529 31.616 3.67204 31.6997 3.7293C31.7501 3.76384 31.8005 3.79868 31.8506 3.83367C31.9361 3.89329 32.0212 3.95334 32.1056 4.0142C32.1524 4.04794 32.1992 4.08205 32.2458 4.11622C32.3339 4.18091 32.4217 4.24603 32.5087 4.31204C32.5494 4.34284 32.5896 4.37385 32.6299 4.40495C32.7145 4.47022 32.7988 4.53594 32.8824 4.60246L33.0066 4.7022C33.0877 4.76769 33.1682 4.83377 33.2482 4.90044C33.2905 4.93579 33.3328 4.97137 33.3748 5.00702C33.4531 5.07347 33.5308 5.14043 33.608 5.20791C33.6498 5.24437 33.6915 5.28097 33.7329 5.3178C33.8193 5.39446 33.9049 5.47179 33.9898 5.54993L34.0934 5.64607C34.1722 5.71965 34.2504 5.79381 34.328 5.86856C34.3682 5.9073 34.4083 5.94611 34.4481 5.98515C34.5235 6.05894 34.5982 6.13333 34.6724 6.20831C34.7105 6.24689 34.7486 6.28556 34.7865 6.32444C34.8612 6.4011 34.9353 6.47828 35.0085 6.55612L35.1175 6.67248C35.1922 6.7529 35.2661 6.83389 35.3395 6.91548L35.4361 7.02376C35.5111 7.10837 35.5854 7.19363 35.6588 7.27956L35.7421 7.37731C35.8192 7.46867 35.8955 7.56078 35.9711 7.65339L36.0538 7.75571C36.1289 7.84921 36.2035 7.94337 36.2768 8.03826L36.3518 8.13587C36.4224 8.2282 36.4922 8.32111 36.5612 8.41467L36.6384 8.52016C36.7067 8.61417 36.7742 8.70862 36.8408 8.80374L36.9155 8.91105C36.9821 9.00749 37.0479 9.10459 37.1128 9.2022L37.1802 9.30408C37.2472 9.40618 37.3133 9.50887 37.3783 9.61221L37.4347 9.70225C37.5011 9.80877 37.5662 9.91594 37.6305 10.0237L37.6883 10.1214C37.7524 10.2302 37.8155 10.3396 37.8774 10.4498L37.9287 10.5419C37.9897 10.6516 38.0498 10.762 38.1086 10.8729L38.1579 10.9666C38.2152 11.0759 38.2714 11.1859 38.3265 11.2963L38.3753 11.3946C38.4305 11.5067 38.4846 11.6193 38.5378 11.7325L38.5787 11.8202C38.6331 11.9375 38.6862 12.0556 38.7382 12.1742L38.7741 12.2561C38.8271 12.3784 38.8786 12.5012 38.9292 12.6247L38.9646 12.7118C39.0145 12.8355 39.0632 12.9597 39.1105 13.0846L39.1406 13.1646C39.1881 13.2915 39.2344 13.4189 39.2794 13.547L39.3068 13.6265C39.3496 13.7504 39.3913 13.8748 39.4316 13.9998L39.4613 14.0925C39.4941 14.1959 39.5256 14.2999 39.5566 14.4039C39.7934 15.2747 39.3306 16.1951 38.4637 16.5276C34.0513 18.2204 27.4027 19.2981 19.9654 19.2981C12.5282 19.2981 5.87957 18.2204 1.46712 16.5276C0.600171 16.1951 0.137483 15.2747 0.374163 14.4039Z" fill="#E7E8E9"/>
<path d="M37.0689 22.8473C35.6471 30.7702 28.5309 36.7939 19.9654 36.7939C11.3999 36.7939 4.28374 30.7702 2.86184 22.8473C7.22215 21.4396 13.2745 20.5674 19.9654 20.5674C26.6564 20.5674 32.7086 21.4396 37.0689 22.8473ZM2.86192 17.0175C4.28381 9.09451 11.3999 3.07091 19.9654 3.07091C28.5309 3.07091 35.6471 9.09451 37.0689 17.0175C32.7086 18.4252 26.6564 19.2975 19.9654 19.2975C13.2745 19.2975 7.22222 18.4252 2.86192 17.0175Z" fill="#B9BBBD"/>
<path d="M34.1301 22.0392C33.0844 28.7238 27.1409 33.8463 19.9654 33.8463C12.79 33.8463 6.84651 28.7238 5.80078 22.0392C9.77416 21.1134 14.6698 20.5669 19.9654 20.5669C25.2612 20.5669 30.1566 21.1134 34.1301 22.0392ZM5.80085 17.8247C6.84658 11.14 12.79 6.01762 19.9654 6.01762C27.1409 6.01762 33.0843 11.14 34.13 17.8247C30.1566 18.7506 25.2612 19.297 19.9654 19.297C14.6698 19.297 9.77424 18.7506 5.80085 17.8247Z" fill="#8E9092"/>
<path d="M31.1509 21.4476C30.3915 26.7878 25.6734 30.9006 19.9654 30.9006C14.2575 30.9006 9.53935 26.7878 8.77981 21.4476C12.1214 20.8862 15.9271 20.5684 19.9654 20.5684C24.0038 20.5684 27.8094 20.8862 31.1509 21.4476ZM8.77981 18.4194C9.53935 13.0791 14.2575 8.96635 19.9654 8.96635C25.6734 8.96635 30.3915 13.0791 31.1509 18.4194C27.8094 18.9808 24.0038 19.2986 19.9654 19.2986C15.9271 19.2986 12.1214 18.9808 8.77981 18.4194Z" fill="#656668"/>
<path d="M28.1476 21.0238C27.5996 24.937 24.1456 27.953 19.9655 27.953C15.7856 27.953 12.3316 24.937 11.7835 21.0238C14.3377 20.7289 17.0926 20.568 19.9655 20.568C22.8384 20.568 25.5935 20.7289 28.1476 21.0238ZM11.7835 18.8423C12.3316 14.9289 15.7857 11.913 19.9655 11.913C24.1455 11.913 27.5996 14.9289 28.1476 18.8423C25.5935 19.1371 22.8384 19.2982 19.9655 19.2982C17.0926 19.2982 14.3377 19.1371 11.7835 18.8423Z" fill="#231F20"/>
</g>
<defs>
<clipPath id="clip0_4405_5038">
<rect width="40" height="40" fill="white"/>
</clipPath>
</defs>
</svg>
