<svg width="20" height="20" viewBox="0 0 20 20" fill="none" xmlns="http://www.w3.org/2000/svg">
<path d="M2.75 0.5C1.235 0.5 0 1.735 0 3.25V12.75C0 14.265 1.235 15.5 2.75 15.5H11.5V14.6602C11.35 14.4502 11.2205 14.23 11.1055 14H2.75C2.06 14 1.5 13.44 1.5 12.75V3.25C1.5 2.56 2.06 2 2.75 2H17.25C17.94 2 18.5 2.56 18.5 3.25V6.59961C19.065 6.88961 19.57 7.26961 20 7.72461V3.25C20 1.735 18.765 0.5 17.25 0.5H2.75ZM4.75 4.5C4.65062 4.49859 4.55194 4.51696 4.45972 4.55402C4.36749 4.59108 4.28355 4.6461 4.21277 4.71588C4.142 4.78566 4.08579 4.86882 4.04743 4.96051C4.00907 5.0522 3.98932 5.15061 3.98932 5.25C3.98932 5.34939 4.00907 5.4478 4.04743 5.53949C4.08579 5.63118 4.142 5.71434 4.21277 5.78412C4.28355 5.8539 4.36749 5.90892 4.45972 5.94598C4.55194 5.98304 4.65062 6.00141 4.75 6H15.25C15.3494 6.00141 15.4481 5.98304 15.5403 5.94598C15.6325 5.90892 15.7164 5.8539 15.7872 5.78412C15.858 5.71434 15.9142 5.63118 15.9526 5.53949C15.9909 5.4478 16.0107 5.34939 16.0107 5.25C16.0107 5.15061 15.9909 5.0522 15.9526 4.96051C15.9142 4.86882 15.858 4.78566 15.7872 4.71588C15.7164 4.6461 15.6325 4.59108 15.5403 4.55402C15.4481 4.51696 15.3494 4.49859 15.25 4.5H4.75ZM16 7.5C13.7997 7.5 12 9.29975 12 11.5C12 12.5071 12.38 13.4277 13 14.1328V18.75C13 18.8857 13.0369 19.0189 13.1067 19.1354C13.1764 19.2518 13.2765 19.3471 13.3962 19.4112C13.5158 19.4752 13.6506 19.5056 13.7862 19.499C13.9218 19.4925 14.0531 19.4493 14.166 19.374L16 18.1514L17.834 19.374C17.9469 19.4493 18.0782 19.4925 18.2138 19.499C18.3494 19.5056 18.4842 19.4752 18.6038 19.4112C18.7235 19.3471 18.8236 19.2518 18.8933 19.1354C18.9631 19.0189 19 18.8857 19 18.75V14.1328C19.62 13.4277 20 12.5071 20 11.5C20 9.29975 18.2003 7.5 16 7.5ZM16 9C17.3896 9 18.5 10.1104 18.5 11.5C18.5 12.8896 17.3896 14 16 14C14.6104 14 13.5 12.8896 13.5 11.5C13.5 10.1104 14.6104 9 16 9ZM4.75 10C4.65062 9.99859 4.55194 10.017 4.45972 10.054C4.36749 10.0911 4.28355 10.1461 4.21277 10.2159C4.142 10.2857 4.08579 10.3688 4.04743 10.4605C4.00907 10.5522 3.98932 10.6506 3.98932 10.75C3.98932 10.8494 4.00907 10.9478 4.04743 11.0395C4.08579 11.1312 4.142 11.2143 4.21277 11.2841C4.28355 11.3539 4.36749 11.4089 4.45972 11.446C4.55194 11.483 4.65062 11.5014 4.75 11.5H9.25C9.34938 11.5014 9.44806 11.483 9.54028 11.446C9.63251 11.4089 9.71645 11.3539 9.78723 11.2841C9.858 11.2143 9.91421 11.1312 9.95257 11.0395C9.99093 10.9478 10.0107 10.8494 10.0107 10.75C10.0107 10.6506 9.99093 10.5522 9.95257 10.4605C9.91421 10.3688 9.858 10.2857 9.78723 10.2159C9.71645 10.1461 9.63251 10.0911 9.54028 10.054C9.44806 10.017 9.34938 9.99859 9.25 10H4.75ZM14.5 15.2041C14.9639 15.3934 15.47 15.5 16 15.5C16.53 15.5 17.0361 15.3934 17.5 15.2041V17.3486L16.416 16.626C16.2928 16.5439 16.1481 16.5 16 16.5C15.8519 16.5 15.7072 16.5439 15.584 16.626L14.5 17.3486V15.2041Z" fill="#50D177"/>
</svg>
