<svg width="16" height="2" viewBox="0 0 16 2" fill="none" xmlns="http://www.w3.org/2000/svg">
<path d="M1.49999 0.000100009C1.36748 -0.00177404 1.23592 0.0227068 1.11295 0.0721206C0.98998 0.121534 0.878058 0.194896 0.783689 0.28794C0.689319 0.380985 0.614383 0.491857 0.563235 0.614114C0.512087 0.736372 0.485748 0.867576 0.485748 1.0001C0.485748 1.13263 0.512087 1.26383 0.563235 1.38609C0.614383 1.50835 0.689319 1.61922 0.783689 1.71226C0.878058 1.80531 0.98998 1.87867 1.11295 1.92808C1.23592 1.9775 1.36748 2.00198 1.49999 2.0001H14.5C14.6325 2.00198 14.7641 1.9775 14.887 1.92808C15.01 1.87867 15.1219 1.80531 15.2163 1.71226C15.3107 1.61922 15.3856 1.50835 15.4367 1.38609C15.4879 1.26383 15.5142 1.13263 15.5142 1.0001C15.5142 0.867576 15.4879 0.736372 15.4367 0.614114C15.3856 0.491857 15.3107 0.380985 15.2163 0.28794C15.1219 0.194896 15.01 0.121534 14.887 0.0721206C14.7641 0.0227068 14.6325 -0.00177404 14.5 0.000100009H1.49999Z" fill="#ABC0B1"/>
</svg>
