<svg width="18" height="20" viewBox="0 0 18 20" fill="none" xmlns="http://www.w3.org/2000/svg">
<path d="M8.63856 0.00883858C4.59682 0.199208 1.49988 3.67175 1.49988 7.69048V11.3243L0.174688 13.9903C0.172357 13.9951 0.170078 14 0.167852 14.0049C-0.365276 15.1387 0.497737 16.5 1.75086 16.5H5.99988C5.99988 18.148 7.35195 19.5 8.99988 19.5C10.6478 19.5 11.9999 18.148 11.9999 16.5H16.2479C17.5011 16.5 18.3652 15.139 17.8319 14.0049C17.8297 14 17.8274 13.9951 17.8251 13.9903L16.4999 11.3243V7.50005C16.4999 3.24695 12.9315 -0.193268 8.63856 0.00883858ZM8.70887 1.50689C12.1689 1.34399 14.9999 4.08115 14.9999 7.50005V11.5C14.9998 11.6159 15.0265 11.7302 15.078 11.834L16.4745 14.6446C16.5643 14.8371 16.4604 15 16.2479 15H1.75086C1.5384 15 1.43534 14.8373 1.52527 14.6446V14.6436L2.92176 11.834C2.97325 11.7302 2.99999 11.6159 2.99988 11.5V7.69048C2.99988 4.44021 5.48961 1.65852 8.70887 1.50689ZM7.49988 16.5H10.4999C10.4999 17.3371 9.83695 18 8.99988 18C8.16282 18 7.49988 17.3371 7.49988 16.5Z" fill="#B073E0"/>
</svg>
