<svg width="18" height="20" viewBox="0 0 18 20" fill="none" xmlns="http://www.w3.org/2000/svg">
<path d="M3.25 0C2.01625 0 1 1.01625 1 2.25V9.02539C0.434939 9.14383 0 9.65375 0 10.25V15.75C0 16.3462 0.434939 16.8562 1 16.9746V17.75C1 18.9838 2.01625 20 3.25 20H14.75C15.9838 20 17 18.9838 17 17.75V16.9746C17.5651 16.8562 18 16.3462 18 15.75V10.25C18 9.65375 17.5651 9.14383 17 9.02539V7.25C17 7.0511 16.9209 6.86036 16.7803 6.71973L16.7725 6.71191L10.2803 0.219727C10.1396 0.0790744 9.9489 3.82642e-05 9.75 0H3.25ZM3.25 1.5H9V5.75C9 6.98375 10.0162 8 11.25 8H15.5V9H2.5V2.25C2.5 1.82675 2.82675 1.5 3.25 1.5ZM10.5 2.56055L14.4395 6.5H11.25C10.8268 6.5 10.5 6.17325 10.5 5.75V2.56055ZM1.5 10.5H16.5V15.5H1.5V10.5ZM5 11C4.724 11 4.5 11.224 4.5 11.5V14.5C4.5 14.776 4.724 15 5 15C5.276 15 5.5 14.776 5.5 14.5V14H6C6.827 14 7.5 13.327 7.5 12.5C7.5 11.673 6.827 11 6 11H5ZM8.5 11C8.224 11 8 11.224 8 11.5V14.5C8 14.776 8.224 15 8.5 15H9C10.103 15 11 14.103 11 13C11 11.897 10.103 11 9 11H8.5ZM12 11C11.724 11 11.5 11.224 11.5 11.5V14.5C11.5 14.776 11.724 15 12 15C12.276 15 12.5 14.776 12.5 14.5V13.5H13.25C13.526 13.5 13.75 13.276 13.75 13C13.75 12.724 13.526 12.5 13.25 12.5H12.5V12H13.5C13.776 12 14 11.776 14 11.5C14 11.224 13.776 11 13.5 11H12ZM5.5 12H6C6.2755 12 6.5 12.2245 6.5 12.5C6.5 12.7755 6.2755 13 6 13H5.5V12ZM9 12C9.5515 12 10 12.4485 10 13C10 13.5515 9.5515 14 9 14V12ZM2.5 17H15.5V17.75C15.5 18.1733 15.1732 18.5 14.75 18.5H3.25C2.82675 18.5 2.5 18.1733 2.5 17.75V17Z" fill="#828282"/>
</svg>
