<svg width="16" height="16" viewBox="0 0 16 16" fill="none" xmlns="http://www.w3.org/2000/svg">
<path d="M7.98536 0.486435C7.72031 0.49032 7.46765 0.599267 7.28289 0.789339C7.09813 0.979411 6.99638 1.23506 7 1.50011V7.00011H1.50001C1.36749 6.99823 1.23593 7.02271 1.11296 7.07213C0.989995 7.12154 0.878073 7.1949 0.783704 7.28795C0.689334 7.38099 0.614398 7.49186 0.56325 7.61412C0.512103 7.73638 0.485764 7.86758 0.485764 8.00011C0.485764 8.13263 0.512103 8.26383 0.56325 8.38609C0.614398 8.50835 0.689334 8.61922 0.783704 8.71227C0.878073 8.80531 0.989995 8.87867 1.11296 8.92809C1.23593 8.9775 1.36749 9.00198 1.50001 9.00011H7V14.5001C6.99813 14.6326 7.02261 14.7642 7.07203 14.8871C7.12144 15.0101 7.1948 15.122 7.28784 15.2164C7.38089 15.3108 7.49176 15.3857 7.61402 15.4369C7.73628 15.488 7.86748 15.5143 8 15.5143C8.13253 15.5143 8.26373 15.488 8.38599 15.4369C8.50825 15.3857 8.61912 15.3108 8.71216 15.2164C8.80521 15.122 8.87857 15.0101 8.92798 14.8871C8.9774 14.7642 9.00188 14.6326 9 14.5001V9.00011H14.5C14.6325 9.00198 14.7641 8.9775 14.887 8.92809C15.01 8.87867 15.1219 8.80531 15.2163 8.71227C15.3107 8.61922 15.3856 8.50835 15.4368 8.38609C15.4879 8.26383 15.5142 8.13263 15.5142 8.00011C15.5142 7.86758 15.4879 7.73638 15.4368 7.61412C15.3856 7.49186 15.3107 7.38099 15.2163 7.28795C15.1219 7.1949 15.01 7.12154 14.887 7.07213C14.7641 7.02271 14.6325 6.99823 14.5 7.00011H9V1.50011C9.00183 1.3664 8.97683 1.23369 8.92648 1.10981C8.87612 0.985937 8.80143 0.873418 8.70683 0.77891C8.61224 0.684403 8.49965 0.609825 8.37572 0.559589C8.2518 0.509353 8.11906 0.484478 7.98536 0.486435Z" fill="#ABC0B1"/>
</svg>
