<svg width="16" height="8" viewBox="0 0 16 8" fill="none" xmlns="http://www.w3.org/2000/svg">
<path d="M4.33317 0.333546C2.31398 0.333546 0.666504 1.98103 0.666504 4.00021C0.666504 6.0194 2.31398 7.66688 4.33317 7.66688H5.83317C5.89943 7.66782 5.96521 7.65558 6.02669 7.63087C6.08818 7.60616 6.14414 7.56948 6.19132 7.52296C6.23851 7.47644 6.27597 7.421 6.30155 7.35987C6.32712 7.29875 6.34029 7.23314 6.34029 7.16688C6.34029 7.10062 6.32712 7.03502 6.30155 6.97389C6.27597 6.91276 6.23851 6.85732 6.19132 6.8108C6.14414 6.76428 6.08818 6.7276 6.02669 6.70289C5.96521 6.67818 5.89943 6.66594 5.83317 6.66688H4.33317C2.85436 6.66688 1.6665 5.47903 1.6665 4.00021C1.6665 2.5214 2.85436 1.33355 4.33317 1.33355H5.83317C5.89943 1.33448 5.96521 1.32224 6.02669 1.29754C6.08818 1.27283 6.14414 1.23615 6.19132 1.18963C6.23851 1.1431 6.27597 1.08767 6.30155 1.02654C6.32712 0.96541 6.34029 0.899809 6.34029 0.833546C6.34029 0.767284 6.32712 0.701682 6.30155 0.640553C6.27597 0.579425 6.23851 0.523988 6.19132 0.477466C6.14414 0.430944 6.08818 0.394263 6.02669 0.369557C5.96521 0.34485 5.89943 0.332609 5.83317 0.333546H4.33317ZM10.1665 0.333546C10.1002 0.332609 10.0345 0.34485 9.97298 0.369557C9.9115 0.394263 9.85554 0.430944 9.80835 0.477466C9.76117 0.523988 9.7237 0.579425 9.69812 0.640553C9.67255 0.701682 9.65938 0.767284 9.65938 0.833546C9.65938 0.899809 9.67255 0.96541 9.69812 1.02654C9.7237 1.08767 9.76117 1.1431 9.80835 1.18963C9.85554 1.23615 9.9115 1.27283 9.97298 1.29754C10.0345 1.32224 10.1002 1.33448 10.1665 1.33355H11.6665C13.1453 1.33355 14.3332 2.5214 14.3332 4.00021C14.3332 5.47903 13.1453 6.66688 11.6665 6.66688H10.1665C10.1002 6.66594 10.0345 6.67818 9.97298 6.70289C9.9115 6.7276 9.85554 6.76428 9.80835 6.8108C9.76117 6.85732 9.7237 6.91276 9.69812 6.97389C9.67255 7.03502 9.65938 7.10062 9.65938 7.16688C9.65938 7.23314 9.67255 7.29875 9.69812 7.35987C9.7237 7.421 9.76117 7.47644 9.80835 7.52296C9.85554 7.56948 9.9115 7.60616 9.97298 7.63087C10.0345 7.65558 10.1002 7.66782 10.1665 7.66688H11.6665C13.6857 7.66688 15.3332 6.0194 15.3332 4.00021C15.3332 1.98103 13.6857 0.333546 11.6665 0.333546H10.1665ZM3.83317 3.50021C3.76691 3.49928 3.70113 3.51152 3.63965 3.53622C3.57816 3.56093 3.5222 3.59761 3.47502 3.64413C3.42783 3.69066 3.39037 3.74609 3.36479 3.80722C3.33922 3.86835 3.32605 3.93395 3.32605 4.00021C3.32605 4.06648 3.33922 4.13208 3.36479 4.19321C3.39037 4.25433 3.42783 4.30977 3.47502 4.35629C3.5222 4.40282 3.57816 4.4395 3.63965 4.4642C3.70113 4.48891 3.76691 4.50115 3.83317 4.50021H12.1665C12.2328 4.50115 12.2985 4.48891 12.36 4.4642C12.4215 4.4395 12.4775 4.40282 12.5247 4.35629C12.5718 4.30977 12.6093 4.25433 12.6349 4.19321C12.6605 4.13208 12.6736 4.06648 12.6736 4.00021C12.6736 3.93395 12.6605 3.86835 12.6349 3.80722C12.6093 3.74609 12.5718 3.69066 12.5247 3.64413C12.4775 3.59761 12.4215 3.56093 12.36 3.53622C12.2985 3.51152 12.2328 3.49928 12.1665 3.50021H3.83317Z" fill="#11031A"/>
</svg>
