<svg width="22" height="22" viewBox="0 0 22 22" fill="none" xmlns="http://www.w3.org/2000/svg">
<path d="M9.75 0.5C4.63826 0.5 0.5 4.77376 0.5 10C0.5 12.7504 1.64573 15.2329 3.47461 16.9678C3.47461 16.9681 3.47461 16.9684 3.47461 16.9688C4.1204 17.5809 4.5 18.3853 4.5 19.2344V20.75C4.49859 20.8494 4.51696 20.9481 4.55402 21.0403C4.59108 21.1325 4.6461 21.2164 4.71588 21.2872C4.78566 21.358 4.86882 21.4142 4.96051 21.4526C5.0522 21.4909 5.15061 21.5107 5.25 21.5107C5.34939 21.5107 5.4478 21.4909 5.53949 21.4526C5.63118 21.4142 5.71434 21.358 5.78412 21.2872C5.8539 21.2164 5.90892 21.1325 5.94598 21.0403C5.98304 20.9481 6.00141 20.8494 6 20.75V19.2344C6 17.9375 5.41904 16.7447 4.50684 15.8799C2.96871 14.4208 2 12.3346 2 10C2 5.56124 5.47274 2 9.75 2C13.7798 2 17.0742 5.16799 17.4453 9.24609C17.4586 9.39246 17.5147 9.53169 17.6064 9.64648L20.001 12.6396C20.0163 12.6589 20.0236 12.6353 20 12.6436L18.002 13.3418C17.8552 13.3932 17.7281 13.489 17.6382 13.6158C17.5483 13.7427 17.5 13.8943 17.5 14.0498V17.1699C17.5 17.4955 17.2959 17.7781 16.9873 17.8809L14.1973 18.8105C13.4853 19.0476 13 19.7202 13 20.4707V20.75C12.9986 20.8494 13.017 20.9481 13.054 21.0403C13.0911 21.1325 13.1461 21.2164 13.2159 21.2872C13.2857 21.358 13.3688 21.4142 13.4605 21.4526C13.5522 21.4909 13.6506 21.5107 13.75 21.5107C13.8494 21.5107 13.9478 21.4909 14.0395 21.4526C14.1312 21.4142 14.2143 21.358 14.2841 21.2872C14.3539 21.2164 14.4089 21.1325 14.446 21.0403C14.483 20.9481 14.5014 20.8494 14.5 20.75V20.4707C14.5 20.3602 14.5659 20.2693 14.6709 20.2344L17.4619 19.3037C18.3783 18.9985 19 18.1353 19 17.1699V14.582L20.4961 14.0586C21.4516 13.7238 21.8055 12.4929 21.1729 11.7021L18.8916 8.85059C18.3356 4.1666 14.478 0.5 9.75 0.5ZM10 5.5C9.578 5.5 9.16884 5.55382 8.77734 5.65332C8.58184 5.70282 8.44197 5.87567 8.41797 6.07617L8.37012 6.47656C8.34212 6.71106 8.20498 6.91813 8.00098 7.03613C7.79698 7.15413 7.54805 7.16917 7.33105 7.07617L6.96484 6.91992C6.77934 6.84092 6.55995 6.87503 6.41895 7.01953C5.84995 7.60453 5.42091 8.32679 5.19141 9.13379C5.13641 9.32829 5.21643 9.5367 5.37793 9.6582L5.7002 9.90039C5.8892 10.0419 6 10.2645 6 10.5C6 10.7355 5.8892 10.9581 5.7002 11.0996L5.37793 11.3418C5.21643 11.4628 5.13591 11.6717 5.19141 11.8662C5.42091 12.6732 5.84847 13.3955 6.41797 13.9805C6.55847 14.125 6.77934 14.1596 6.96484 14.0801L7.33008 13.9238C7.54708 13.8308 7.796 13.8464 8 13.9639C8.204 14.0814 8.34114 14.2899 8.36914 14.5244L8.41797 14.9248C8.44197 15.1253 8.58184 15.2982 8.77734 15.3477C9.16934 15.4467 9.578 15.5 10 15.5C10.422 15.5 10.8312 15.4462 11.2227 15.3467C11.4182 15.2972 11.558 15.1243 11.582 14.9238L11.6299 14.5234C11.6579 14.2889 11.795 14.0819 11.999 13.9639C12.203 13.8459 12.4519 13.8308 12.6689 13.9238L13.0352 14.0801C13.2207 14.1596 13.4401 14.125 13.5811 13.9805C14.1501 13.3955 14.5791 12.6732 14.8086 11.8662C14.8636 11.6717 14.7836 11.4633 14.6221 11.3418L14.2998 11.0996C14.1108 10.9581 14 10.736 14 10.5C14 10.264 14.1108 10.0419 14.2998 9.90039L14.6221 9.6582C14.7836 9.5372 14.8641 9.32829 14.8086 9.13379C14.5791 8.32679 14.1515 7.60453 13.582 7.01953C13.4415 6.87503 13.2207 6.84042 13.0352 6.91992L12.6699 7.07617C12.4529 7.16917 12.204 7.15363 12 7.03613C11.796 6.91863 11.6589 6.71009 11.6309 6.47559L11.582 6.0752C11.558 5.8752 11.4182 5.70184 11.2227 5.65234C10.8307 5.55334 10.422 5.5 10 5.5ZM10 9C10.8285 9 11.5 9.6715 11.5 10.5C11.5 11.3285 10.8285 12 10 12C9.1715 12 8.5 11.3285 8.5 10.5C8.5 9.6715 9.1715 9 10 9Z" fill="#B073E0"/>
</svg>
