<svg width="16" height="16" viewBox="0 0 16 16" fill="none" xmlns="http://www.w3.org/2000/svg">
<path d="M8.00375 0.875011C7.89862 0.874355 7.79541 0.90317 7.70583 0.958189C7.61624 1.01321 7.54387 1.09223 7.49691 1.18629L5.56478 5.05055L0.976893 5.7566C0.874199 5.77247 0.777908 5.81647 0.698696 5.88373C0.619485 5.95098 0.560449 6.03886 0.528135 6.13762C0.495822 6.23638 0.491494 6.34217 0.515632 6.44324C0.539769 6.54431 0.591428 6.63671 0.664881 6.71022L3.83847 9.8838L3.13168 14.4768C3.11587 14.5796 3.12884 14.6847 3.16916 14.7805C3.20948 14.8764 3.27557 14.9592 3.36009 15.0197C3.44461 15.0802 3.54426 15.1162 3.64797 15.1235C3.75167 15.1309 3.85539 15.1093 3.9476 15.0613L8.00009 12.9468L12.0526 15.0613C12.1448 15.1093 12.2485 15.1309 12.3522 15.1235C12.4559 15.1162 12.5556 15.0802 12.6401 15.0197C12.7246 14.9592 12.7907 14.8764 12.831 14.7805C12.8713 14.6847 12.8843 14.5796 12.8685 14.4768L12.1617 9.8838L15.3353 6.71022C15.4087 6.63671 15.4604 6.54431 15.4845 6.44324C15.5087 6.34217 15.5044 6.23638 15.472 6.13762C15.4397 6.03886 15.3807 5.95098 15.3015 5.88373C15.2223 5.81647 15.126 5.77247 15.0233 5.7566L10.4354 5.05055L8.50326 1.18629C8.45686 1.09334 8.38563 1.01506 8.29746 0.960115C8.20929 0.905171 8.10763 0.875715 8.00375 0.875011Z" fill="white"/>
</svg>
