<svg width="24" height="24" viewBox="0 0 24 24" fill="none" xmlns="http://www.w3.org/2000/svg">
<path d="M4.25 3.5C2.74011 3.5 1.5 4.74011 1.5 6.25V17.75C1.5 19.2599 2.74011 20.5 4.25 20.5H19.75C21.2599 20.5 22.5 19.2599 22.5 17.75V6.25C22.5 4.74011 21.2599 3.5 19.75 3.5H4.25ZM4.25 5H19.75C20.4491 5 21 5.55089 21 6.25V17.75C21 18.4491 20.4491 19 19.75 19H4.25C3.55089 19 3 18.4491 3 17.75V6.25C3 5.55089 3.55089 5 4.25 5ZM4.25 6C3.974 6 3.75 6.224 3.75 6.5V7C3.75 7.276 3.974 7.5 4.25 7.5H4.75C5.026 7.5 5.25 7.276 5.25 7V6.5C5.25 6.224 5.026 6 4.75 6H4.25ZM7.25 6C6.974 6 6.75 6.224 6.75 6.5V7C6.75 7.276 6.974 7.5 7.25 7.5H7.75C8.026 7.5 8.25 7.276 8.25 7V6.5C8.25 6.224 8.026 6 7.75 6H7.25ZM10.25 6C9.974 6 9.75 6.224 9.75 6.5V7C9.75 7.276 9.974 7.5 10.25 7.5H10.75C11.026 7.5 11.25 7.276 11.25 7V6.5C11.25 6.224 11.026 6 10.75 6H10.25ZM13.25 6C12.974 6 12.75 6.224 12.75 6.5V7C12.75 7.276 12.974 7.5 13.25 7.5H13.75C14.026 7.5 14.25 7.276 14.25 7V6.5C14.25 6.224 14.026 6 13.75 6H13.25ZM16.25 6C15.974 6 15.75 6.224 15.75 6.5V7C15.75 7.276 15.974 7.5 16.25 7.5H16.75C17.026 7.5 17.25 7.276 17.25 7V6.5C17.25 6.224 17.026 6 16.75 6H16.25ZM19.25 6C18.974 6 18.75 6.224 18.75 6.5V7C18.75 7.276 18.974 7.5 19.25 7.5H19.75C20.026 7.5 20.25 7.276 20.25 7V6.5C20.25 6.224 20.026 6 19.75 6H19.25ZM10.3691 9C10.2186 9.00094 10.0686 9.04089 9.93457 9.11914C9.66557 9.27564 9.5 9.5635 9.5 9.875V14.125C9.5 14.4365 9.66557 14.7244 9.93457 14.8809C10.0706 14.9599 10.2225 15 10.375 15C10.524 15 10.6722 14.9622 10.8057 14.8857L14.5557 12.7607C14.8302 12.6057 15 12.315 15 12C15 11.685 14.8302 11.3943 14.5557 11.2393L10.8057 9.11426C10.6702 9.03726 10.5196 8.99906 10.3691 9ZM4.25 16.5C3.974 16.5 3.75 16.724 3.75 17V17.5C3.75 17.776 3.974 18 4.25 18H4.75C5.026 18 5.25 17.776 5.25 17.5V17C5.25 16.724 5.026 16.5 4.75 16.5H4.25ZM7.25 16.5C6.974 16.5 6.75 16.724 6.75 17V17.5C6.75 17.776 6.974 18 7.25 18H7.75C8.026 18 8.25 17.776 8.25 17.5V17C8.25 16.724 8.026 16.5 7.75 16.5H7.25ZM10.25 16.5C9.974 16.5 9.75 16.724 9.75 17V17.5C9.75 17.776 9.974 18 10.25 18H10.75C11.026 18 11.25 17.776 11.25 17.5V17C11.25 16.724 11.026 16.5 10.75 16.5H10.25ZM13.25 16.5C12.974 16.5 12.75 16.724 12.75 17V17.5C12.75 17.776 12.974 18 13.25 18H13.75C14.026 18 14.25 17.776 14.25 17.5V17C14.25 16.724 14.026 16.5 13.75 16.5H13.25ZM16.25 16.5C15.974 16.5 15.75 16.724 15.75 17V17.5C15.75 17.776 15.974 18 16.25 18H16.75C17.026 18 17.25 17.776 17.25 17.5V17C17.25 16.724 17.026 16.5 16.75 16.5H16.25ZM19.25 16.5C18.974 16.5 18.75 16.724 18.75 17V17.5C18.75 17.776 18.974 18 19.25 18H19.75C20.026 18 20.25 17.776 20.25 17.5V17C20.25 16.724 20.026 16.5 19.75 16.5H19.25Z" fill="#50D177"/>
</svg>
