<svg width="24" height="24" viewBox="0 0 24 24" fill="none" xmlns="http://www.w3.org/2000/svg">
<rect width="24" height="24" rx="4" fill="#7B61FF"/>
<path d="M11.8924 16.3188L9.18431 16.2682C8.30748 16.2506 7.42846 16.2858 6.56882 16.103C5.26111 15.83 5.16847 14.4914 5.07153 13.3686C4.93796 11.79 4.98967 10.1828 5.24174 8.61745C5.38404 7.73911 5.94406 7.21499 6.81012 7.15796C9.73369 6.95098 12.6767 6.97551 15.5938 7.07207C15.9019 7.08092 16.2121 7.12931 16.5158 7.18438C18.0154 7.45299 18.052 8.96992 18.1492 10.2469C18.2461 11.537 18.2052 12.8338 18.0199 14.1152C17.8712 15.1761 17.5868 16.0658 16.3866 16.1517C14.8827 16.264 13.4134 16.3544 11.9053 16.3256C11.9054 16.3188 11.8967 16.3188 11.8924 16.3188ZM10.3003 13.6328C11.4336 12.9679 12.5452 12.314 13.672 11.6535C12.5366 10.9886 11.4271 10.3347 10.3003 9.67426V13.6328Z" fill="white"/>
</svg>
